<mxfile host="app.diagrams.net" modified="2023-02-12T04:27:02.466Z" agent="5.0 (Windows NT 10.0; Win64; x64) AppleWebKit/537.36 (KHTML, like Gecko) Chrome/109.0.0.0 Safari/537.36" etag="UJ2rktlcGsTbReajSO51" version="17.2.4" type="github">
  <diagram id="q-DoiihQufY4-6wU0RWV" name="Page-1">
    <mxGraphModel dx="1038" dy="547" grid="1" gridSize="10" guides="1" tooltips="1" connect="1" arrows="1" fold="1" page="1" pageScale="1" pageWidth="3300" pageHeight="4681" math="0" shadow="0">
      <root>
        <mxCell id="0" />
        <mxCell id="1" parent="0" />
        <mxCell id="8h9t13kz1k91gfvvCFST-2" value="" style="shape=image;imageAspect=0;aspect=fixed;verticalLabelPosition=bottom;verticalAlign=top;image=data:image/jpeg,/9j/4AAQSkZJRgABAQEAZABkAAD/2wBDAAgGBgcGBQgHBwcJCQgKDBQNDAsLDBkSEw8UHRofHh0aHBwgJC4nICIsIxwcKDcpLDAxNDQ0Hyc5PTgyPC4zNDL/2wBDAQkJCQwLDBgNDRgyIRwhMjIyMjIyMjIyMjIyMjIyMjIyMjIyMjIyMjIyMjIyMjIyMjIyMjIyMjIyMjIyMjIyMjL/wAARCAHgAoADASIAAhEBAxEB/8QAHwAAAQUBAQEBAQEAAAAAAAAAAAECAwQFBgcICQoL/8QAtRAAAgEDAwIEAwUFBAQAAAF9AQIDAAQRBRIhMUEGE1FhByJxFDKBkaEII0KxwRVS0fAkM2JyggkKFhcYGRolJicoKSo0NTY3ODk6Q0RFRkdISUpTVFVWV1hZWmNkZWZnaGlqc3R1dnd4eXqDhIWGh4iJipKTlJWWl5iZmqKjpKWmp6ipqrKztLW2t7i5usLDxMXGx8jJytLT1NXW19jZ2uHi4+Tl5ufo6erx8vP09fb3+Pn6/8QAHwEAAwEBAQEBAQEBAQAAAAAAAAECAwQFBgcICQoL/8QAtREAAgECBAQDBAcFBAQAAQJ3AAECAxEEBSExBhJBUQdhcRMiMoEIFEKRobHBCSMzUvAVYnLRChYkNOEl8RcYGRomJygpKjU2Nzg5OkNERUZHSElKU1RVVldYWVpjZGVmZ2hpanN0dXZ3eHl6goOEhYaHiImKkpOUlZaXmJmaoqOkpaanqKmqsrO0tba3uLm6wsPExcbHyMnK0tPU1dbX2Nna4uPk5ebn6Onq8vP09fb3+Pn6/9oADAMBAAIRAxEAPwD3+iiigAooooAKKKKACiiigAooooAKKKKACiiigAooooAKKKKACiiigAooooAKKKKACiiigAooooAKKKKACiiigAooooAKKKKACiiigAooooAKKKKACiiigAooooAKKKKACiiigAooooAKKKKACiiigAooooAKKKKACiiigAooooAKKKKACiiigAooooAKKKKACiiigAooooAKKKKACiiigAooooAKKKKACiiigAooooAKKKKACiiigAooooAKKKKACiiigAooooAKKKKACiiigAooooAKKKKACiiigAooooAKKKKACiiigAooooAKKKKACiiigAooooAKKKKACiiigAooooAKKKKACiiigAooooAKKKKACiiigAooooAKKKKACiiigAooooAKKKKACiiigAooooAKKKKACiiigAooooAKKKKACiiigAooooAKKKKACiiigAooooAKKKKACiiigAooooAKKKKACiiigAooooAKKKKACiiigAooooAKKKKACiiigAooooAKKKKACiiigAooooAKKKKACiiigAooooAKKKKACiiigAooooAKKKKACiiigAooooAKKKKACiiigAooooAKKKKACiiigAooooAKKKKACiiigAooooAKKKKACiiigAooooAKKKKACiiigAooooAKKKKACiiigAooooAKKKKACiiigAooooAKKKKACiiigAooooAKKKKACiiigAooooAKKKKACiiigAooooAKKKKACiiigAooooAKKKKACiiigAooooAKKKKACiiigAooooAKKKKACiiigAooooAKKKKACiiigAooooAKKKKACiiigAooooAKKKKACiiigAooooAKKKKACiiigAooooAKKKKACiiigAooooAKKKKACiiigAooooAKKKKACiiigAooooAKKKKACiiigAooooAKKKKACiiigAooooAKKKKACiiigAooooAKKKKACiiigAooooAKKKKACiiigAooooAKKKKACiiigAooooAKKKKACiiigAooooAKKKKACiiigAooooAKKKKACiiigAooooAKKKKACiiigAooooAKKKKACiiigAooooAKKKKACiiigAooooAKKKKACiiigAooooAKKKKACiiigAooooAKKKKACiiigAooooAKKKKACiiigAooooAKKKKACiiigAooooAKKKKACiiigAooooAKKKKACiiigAooooAKKKKACiiigAooooAKKKKACiiigAooooAKKKKACiiigAooooAKKKKACiiigAooooAKKKKACiiigAooooAKKKKACiiigAooooAKKKKACiiigAooooAKKKKACiiigAooooAKKKKACiiigAooooAKKKKACiiigAooooAKKKKACiiigAooooAKKKKACiiigAooooAKKKKACiiigAooooAKKKKACiiigAooooAKKKKACiiigAooooAKKKKACiiigAooooAKKKKACiiigAooooAKKKKACiiigAooooAKKKKACiiigAooooAKKKKACiiigAooooAKKKKACiiigAooooAKKKKACiiigAooooAKKKKACiiigAooooAKKKKACiiigAooooAKKKKACiiigAooooAKKKKACiiigAooooAKKKKACiiigAooooAKKKKACiiigAooooAKKKKACiiigAooooAKKKKACiiigAooooAKKKKACiiigAooooAKKKKACiiigAooooAKKKKACiiigAooooAKKKKACiiigAooooAKKKKACiiigAooooAKKKKACiiigAooooAKKKKACiiigAooooAKKKKACiiigAooooAKKKKACiiigAooooAKKKKACiiigAooooAKKKKACiiigAooooAKKKKACiiigAooooAKKKKACiiigAooooAKKKKACiiigAooooAKKKKACiiigAooooAKKKKACiiigAooooAKKKKACiiigAooooAKKKKACiiigAooooAKKKKACiiigAooooAKKKKACiiigAooooAKKKKACiiigAooooAKKKKACiiigAooooAKKKKACiiigAooooAKKKKACiiigAooooAKKKKACiiigAooooAKKKKACiiigAooooAKKKKACiiigAooooAKKKKACiiigAooooAKKKKACiiigAooooAKKKKACiiigAooooAKKKKACiiigAooooAKKKKACiiigAooooAKKKKACiiigAooooAKKKKACiiigAooooAKKKKACiiigAooooAKKKKACiiigAooooAKKKKACiiigAooooAKKKKACiiigAooooAKKKKACiiigAooooAKKKKACiiigAooooAKKKKACiiigAooooAKKKKACiiigAooooAKKKKACiiigAooooAKKKKACiiigAooooAKKKKACiiigAooooAKKKKACiiigAooooAKKKKACiiigAooooAKKKKACiiigAooooAKKKKACiiigAooooAKKKKACiiigAooooAKKKKACiiigAooooAKKKKACiiigAooooAKKKKACiiigAooooAKKKKACiiigAooooAKKKKACiiigAooooArCeQ9lpRLMT0T9aa0wzwyn8aTzSR2qXcRK8kijgLULXjKQNoz34oiJdhkUksAzn5u9XEZIt2CpJBz9KVbkseAKoSrtHerNtjYST2FNoGTmWTdwFxTPtD9wtRmb98y5XpVdpDvTp1qQLTXMoY4CY/GpnldVJAX8aiUr5YORTPN3MOVpgS+dJsBwlLJOySBcDGM0wyDYBkU5iH5yPwoAVbgsTgDin738wL8uCKoMh3nAJ5qVjg7vSpclcd0WElkLPkLhTxiopLt0cjC7R7c1IoXyWO7quetRLFG0Ybcc/WnuJiC+ZjgKM/SplnbGWA/Cq/lBX3c9c095Ny4yKWpDuSNdADgfpTHu3CBlC5z3FNVFCsST0pyFdo5H507MWo83DiMsQuRToZnk6hcY7VDcrlsDJ47VFIGjt1IU5zjkfWkUmXd8jfd2/jUQnlDkOExnHGaQzeWcZX15pFbzS2cfhVItBLeMrhVA5HcUsNxLJvDBM/w4z+tV54ts64yeKlRFkTcxIMYyP8AP4U9AkuxZV5AcPt/4DUBu2kaTyQMRff3j+WPoabIN0CleTnoKXzXxGigEHh+OlBOqJY7hpIw+BzRJO6A4C9M0w/L8q8gUOMg/SgVwiunfqF6dqDdP5yqAu0jn1pIYx79KSQbTgUmLUma5CjJBp0cvmDIHesqZGbPynr2FW7QlByMc9/pSKSZaEhy24Djpik872qOQ56c0xRzQMlM7g8BaGml2AgJn3zUZOCKlQgqBkUmS0xXlZcYAyaZHNM0zKwTaBkYzmmSxnehAPBoTPmkY7Uri1J2lKjcRwKEnDDoaqJvU52n8RViOXscCqHcVZ2aQLgc06RpRjZs992ahkQGQHnpUwC7Rlu3rTHcjka73hY/I5H8WakaR0RS+3OPmx/SqigpbNIAdwPAP4UsjlEjY4AYZYntUSZRP9oZhlQMe9OM5XaGHLdMVy+o+J1sbyWFJ7PCYxvfnkA+vvQvi2zLW4mvtPjEmNxMwGOmerVnzMVmdS0jKM4FVRc3YkQOIdpPOM5xTYriy1G3U2t3FcIeQYZFfOOO3vTmVoRsRSUk4ckdB/k1omBaM3OMU15mVwFAxjvVaNVQ7VOVHQ0nnHyifl61YFgTSlyMJj8acs5xhgN3t0qJJf3CnipYSG+YnnNJgCzEltwGB0xR9pBkCAHkd6axBZhkdcUiQr5gbJyKSAleRlK4A5qN5ZwflEePfNNcB35P3T2oYAd6qwE2+QIGO3OM8UizFhyOarnD/KT7UkkYiiDLkknHNSyXcmN0QeRTXvMD5V/MUnlAqSSagKgMeaECuadFFFMoKKKKACiiigAooooAKKKKACiiigAooooAKKKKACiiigCktrzk4/OpdiKMYpkr7YyP+WnYVWjYGQ+YcD29aUiWycv5RyOKlaUFEznJFRlpd4UqNp6mopolcjYSX9PelGQKQ+VA6kgUkaHBHFRgvbofOAVepPWp13funhG5GwXJ7D/Oau5RW2EXjg46f4Urw4KnjippFAuXk9Riph5b/wARoApszBQAaIomC5JGc1aMYDHGcU+VjtLKAQKAKW1jKVyOKdGXEROe9WIceYXPUilYnYdoyvc1DYFZ7hLcAyBju6YpLadLu2ZlB+9jn8K4vx/qMDNYRpIC0ZlVxtPB+WuQsvEuoaYhhsobeTLb/wB4p64x6jsK4p1GpmTep7W0beQQCB8v9KrqZI4uWHHpXmsXxG1RJbWKaCyWJiqzsI3yi8ZI+b0z6101t4w0GUK0l9jOc4hf/wCJrojU0KuddHiWL321EYdjHOKraZqdhfJJJZzmRIwGYlSMA5x1A9DU9zMZIg8OGUngmtIzTKQjsegNG0rGGp5iWNW3kjIpgCsgVSSBWw2idTkbj2pJ8PCqj1zzQoZUK44zQHKelSySBl3yAH0qRF8oMRTXOZRt54qQFguGAAIpFIiWTzLpA2Tx/jRMXSRQhwhPzj1FBgDSiVckAYriPiZ4kvtG02GysIreVb6GeKfzVOV4UfLgj+8fXtTbNoK5Z8a+NIvC1qroLhT5yx/u0Vuqlv4j7VuaVrMd7pulXKiTN9DHIxZQCdwB55469q+XpopJrp3uV2EgZ2n2H1r6d8IbIfB2lqxIDafAB/37FJMU42N9lAOMUNjB+lV4mi2BQx49qkLc4pmFh8ZwKgZizbqsxqNoyTTDGpjKoSSaC0JGqMcEdqdJGEHFQ2yE3Dq3GAen1qZzMblU2DySPmbuDz/9ak2DYxP4s04AZpqgs0uf4TxTUZjMqYHNLmJuLIOeKjkdo4wwPOcVMWUFvNO3HTFG5GQHP7vsaZQjXGSBz+VMSQrctk9v8Kn8qNWU7jwc0TEfeXk5qSbBvVkJIOKqSTKszAA0/wA6eM7ERSTzz/8ArpyRSTOXlXaSOxqkIkkJKkioD556OPyqxMOCDUSBRnmmIkiViPLcggnpWbr12LTRr2X5sw28rLgA4wp/wrRaSOVT5Tbn6AYrl/HYv00KQWcCSI1tN9oLEfINo6cj39elZyNEeULqE2ua8F3k+d/fUDovt9K625+H13c2lm6vaAyx5UmR+MgdeKyfAGmXSa5p1+8WIB5mX3D+6w6Zz1r2cFDGMscEVizSx5Yn9tfD+FXuryJrT/UpHbqHYM3z5+ZRxwe9drovi228QmYWqXCJDt8wSooyGz0wT6Gtx/N8oCBQy54Jrwzw+/8AaHiLTXj+bybuInHGMuPX6U1KxDPdY/LZQyKQp6A0x7cD5MDn3qGUlThRl+4NPuftCoZNi7wOBnjr9a3jsJomjiUIEI6e9TKqqMgcVmoZCgldQGbggdKxPGmvHw94RvtRtPLeeHyyqyqSp3SKpzjHYnvWsYXIudLvXe+Acg0xp3WQAN29K8L034m+KBqNvNdafpqafJKjSyqjErFnJYDzCc4Oen4V6LafE/ww8RMupqsu7hRbS4x/3z9ap07AjsIy7eYc+9SJG7jORVWC8F3aQXUJDW06CQPgjKEAg4PPQ1M83lQrJDhkJwC1Q0WHkyByQy9acA7yGNmBAGcVLGxdUdeSQC3tTRPH9rdA3zgcjH0rJisBLYIB601YC3JxUjSEdMVGZ5WONq4pJjSLtFFFWIKKKKACiiigAooooAKKKKACiiigAooooAKKKKACiiigCk6l51PbFI6RR/Myk544NSA7mDntxXN+LLOa409REm4+eD1A4w1RNmLkcVqvxKu7fVoYop51iMWSvkxnJ+b/AAFX7T4m2hurKGVLxpJnRSRFHjJIB7+9Z3gP7Dq2nSWksziaS4baqDGQFU9SMdjXSal4A02azmaOe8Nz5bGNN6YL44H3fX3rBT1IUjqbW6TWbR5YwwQNsIcYORg9vrV2BwIXQZ/drivG7ODVPA+rwXdzbJHYxgvJLIwcqWBQcKc9cdu9em6PrkOu263Fs6yCNEeTarLjcM9/oa2UjeLNPfvOO9SBGjBORTMeYxlXkNTjIzcEDmquUIJdzY5p0z7FMfc80wxYG4Z5pI5QfvYB9qdwJYx+7BPWq0tw0djIQTuyMHHuKJCzSHAG31qe4KKhANKwHjGuJqeqardD7RHsink2hhjALew9q2vDPguS6kWe8NvLGrspAdgfu8dAO5r0pAUUGAbiw+bd2/zzUkscAOx3YEjP+eK5pUbyuS4XZyl14C0hrK6K2aCfy2MbGaTAbBwevriuVXwFqYAeOezEfYF2z/6DXq64jT5OVA5J9Kw9e8QW+n2VwxkQFNv3kY9SPT60prlQcp57Ya3e6CdStPPOV/dnYikfLuHcV1/hLUb7VIEluJw9u0bFVKgEENjsPr3rzd7VdZ18TQlmWW63yFTjAZ88Z/GvX/D+nx2GjwQkuI13YJIJyWJ7VFKbuNGtsd438wgnHy+1RRRMo+Yj8Klk8mNkLOQ2flHrT/PB9PyrvuWQvNt45poYv3pHG45p8Z20XM2Rg4lBNTbg8b4HKimW4Djn17UoTy/O9Dn+tCLijN1fV10nRLi6ff8Auyp+RQTywHf6147N4i/4S3xJFZ3hkliW88qJXVU2h3xjK89hXafE64T/AIRi9t8/M6REDH/TUf4Vy/wlh1JLm/b7OnlF4CrbhyuX560SOqCscz4k0qLTfGd/ZbF+zRqmxFYnBKIep57mvdvDkRl8LaWsWFVLKEYPpsFeU/EfwxrN74mvL60s/MErxjPmoBgRgdCc9q7zwj4ssjpFjo1xOiX1tBDamIRv/rAoUqT06jGc4pIU9Tr7eEhyGwTirEiKrdO1QxROG3MuCR60SxOTnb29aZzyRODiMYqtDOVYMxJUdcCnRMUGDxUjRiW3aME5JobIuJIDGvnR8Fz/AD5p0kpjUlsk+1V7jU7fTYE+0SBFBCZKk849vpXkt/4+uNQt3SFbVmIAAEbjoc9zWE52LUbnsC7pNrRHaDy+e/8AnmpREFkDDqK8Vt9Y1prSXyLS3YunOfof9qmaf4q1fRL2OS9trWJVyxJBbgggdG9ayjU1K9mexu3mvIvcEinAhIFRhnB7VyfhrxcNcuHBMPDpnYjD7xPr9K7CTZj5iQvrXVF3Rm1YfI6Y4Bz2qE72PUYphKeYmD3qWcnyxs55707Bca0UguUbcuMf41KWdehojaXPKiiQuewoCxGfMkPLCnrA/qKjy/8AdFLtmPRB+dFw5RNixRloxhh0NUNUt3vbKS1kKt9ojaMZ4HzDHOPrWl8sUZkB5HrTlZ9ocgcjIoaHsYeheHrTS7a3tmhXzY93KuxHJJ7/AFrcEaHKheF461HMEeNmYkSHsOlJE6gbM8nArOUQ5jL8ReIIfD9qrMsuPMCfu1B6gnufavJPB1rJDrtqysoX7TCWHqN1dz8R2gutMjspHIMdyj4Uc/cbv071g/DzVltL2eF2UefJCoypPdh2+tYt6lrU9RnhaX5oSFcnkt6VLJKqHyrgFywz8vTH+RWPrPiDS7HKXN1swwH+rY8kZ7CtKw1GDULZprOQSorbSdpHOAe+PWtozJlsLLE0kY8khUzwDXifxI1m/uPENvown/4lFxaK89uUXLuHcg7sbhyq9COle5sWUb8DceCK+dvGGpjUvHNh/bJW3h+ybWaEHIAMhH97vXdQdznb1O7tvAmnXvhW08i2jWeayXYzzSYDFBgnn1rj9Q+FHiC1BuobzTVgQAMvmOWJJx3T3Heu68NeNPDUlrbaZBqRaSFIrdFMMgJONoyduO1dpb3Lou+EK1uD8zHqD/nFXUdkUmeEx/EbXdGCaPJfuRbYtVCQRFRs+XqRnHH1r07wJ4yt/ENtHptytxJeRRPNJIyKqEb8DG09cMO1b2paBb6pYXkU7zKLyJ1+RgPvAg4yDjr3qLw9o6+HtEt9IgMjQW+7a0rAsdzFuSMD+I9qw3RVzaWOeIM6uoi6he+306U6KOKT9+i4kbgknt/kUFCPKYDpzUqzNvIYACsZFJkeCTSlVUcinnmo3BbioQ7lyiiitBBRRRQAUUUUAFFFFABRRRQAUUUUAFFFFABRRRQAUUUUAUZHAuUUZAx0H41n65IFskPP+sH8jVPxRqkumeH7oxLGbsbCiOCQQXAPQ/XvXmbWGv6kxnSxiPmnzeHUDnnu3vWU3c5JspeAdUh0zWbeKVZCS7t8gGP9WR6+1e1Q3sMtt54RtoQPyBnGM15pq3w+hs7OR4jdEgA/NInrj0rmrjUZUtZtOZUAiRoF4OTgbeTnGeK5XdMwU2mdj8QddsJ7STTvIlM8sSMrMi7QA+eTnPY1f+GuYrW4Vj8rJAAB0xhqxfhv4bW8tDfTearR3Dp8rLjGwe3vXp8Nu1sFjUHYcLknnArendnVSbZfUIBwoA9MUyRQCoAAJ9qr+UVnY4+XHWrbsrDg8itkjoGAYO084qDyjJIHTAUDBFMLul05wMY/wqysocZzTsDEKgRgYG7uahijZT+9Ice/NWMg04Oq9TSQrldlbPyHaPbimTZU+WxzIRkN6CrEs8Axvcj04NRyXDQWzvIArA8DrRJ2QXFklW3tgXBPyc4+leY+NfEWnyC+05beYXB8v5yi7f4W65z09qf411tbx4oLVkkkUyo42kYJwO/41X8IeEr241Cz1S4gdYG37nWRMDhl6detcU5ObC9xnhHSZbm4gnjMQRXidgc5Izn0r1iGERoFYKUHRR0FJbWyWcWELH5QPm9qGncnGBitadNLUdiF3Usu4Z54zTwVboMUok3MoOOTRKNrkjpW7uMd5RUZOKYWVTgipPMDoQDzURQ7iSKtIi46OF0O7IwPQ0l3cJBbSuwJwjE4HoKUwo7hwTxxXlfxg1x7JdMtoBG3mCeNt6nIxsHHPvVbG9NJsyPiPrkV7fLpkPnrJNbowLYC8Ox5wf8AZ9K7P4b6NNpWlNLctE/2qCBoyhJI+UnnIH94V4voGoRW3iC1v7txGIgwJCkjBVh0GT1NdzdfFu8t1jgsUsZUQbFLwyZIGAP4hUXOuULrQ9O8Rxxx2CSuiljKATjnoa8Mstch03xxczyCYxxalvZUxkhZCSBzUfibxnrmtWyvLaWYRpQwMasOQpHdqu/D34fWvit7+e/e6jIMTnyJEA+fcT1B9KQ+RRj7x7T4f8VWfiJ8Wkdyh2F/3ygcAgdifWts3sW8IVYluBwKw9D8M2/hWwitbF55IowyqZ2Uk7mLHoB3rWmJlbcvOBiqSOCpLXQWaVFkIwfyp8L+ZICuQKbEQIxv4NYXjS6K+FL2OHDOfLIBH/TRamo7IIwe5z/xDupf7NCQyyRut5gkMRxh/SqfhTwiLpftTQ2TRJIysrrkn5R/s+9edXUH2iVw2Q+8lgD0NdlDY654Pgae7so4oEO9md1fG75RwreuK5PiNdj0a00O1smJktLUqSMBYx0H4UmqeHLHVYWaGwsl4C/PCo6HPYGqPhXxVDqyGKWSMNiNQEjYZJz611EoEXTp71pGmiXJmPonh2HTPM221ojNt5iQDkZ9vettwAoUgEg0xvmjBXnAzTAgmUI2RjniuiMUjOTJdiy8qoG31FJIpVAxPGaXyo42XDHk96il3NMwUZXsaqxCJy2GDc4HakaVW6A0kO9UJkAVc8kUrNCT98/lSsUM2t1zU8Z45phjiI+81V2gj3HDN1pWFzD3Uyzq6nEQGCp7n6flQjEMykkjOFHpUVspUcjHNWBt3DnvVoGxohczbyQU9M0rBYFeR1BAG7gc8VMUyOK4j4heItQ0ewjhsoLeSOeKZZjKCSoAA4wR6n1rmrSa2HFXOa+JOvWt2zWVtHNHcxzo7yEAAr5Z4yDnuPyrW8C6bBEb9preB3HlmNtgJQ/NyCRx2rkvCOq6e2oPda3cG2heFgGiRjltwwMAE9AavyfEvWZ7aa1ntrBfPQxrtjfJyMf3/eueLbNthvxBtrtdRmlE+ImkQKoc8fu/T8DXe+DFf+wLiMNhzcEg5/2Vrzmz8Ma5rMK38FiH83P3ZUUcHHQtntXpOjeFLXQoTHbPcNOXLqsrKc5AB6Adga1hF31M3qbKyNbuRMxfjHBz/Ovn3x9Ym48a2UUQjUtZjGRgfekr6GthKjYdQGxyKZOkUcZgRiZW5VT3/wA4rupVIxMpRR8v6l4f1TSI4LmC7jhaUGRWgkZWBGCDkAc81seC/HF74f1SD+3dQ1O+t97u8QmMoYFCBw7AHB5r36a1ju7G4t3ZgGjKSbeoyCDj9a+fPijo0el+KrWO2Mj2xslZnkYEhi7jHAHoO1dUbVCT3XSPE1n4hgWWyjuI0VUbEqgcMOOhPpW/GqmFSQC3qRXi/wAF1a4GrBxhY/s+0juP3nX8q9qtwiRKMnjP86wqrldikV5N7OArEYOOtSHiIKfvg8mn7UdzyetMuYAFymSc96wYyTGFOaRGGelV49x4I71N9zrSshlyiiimMKKKKACiiigAooooAKKKKACiiigAooooAKKKKACiiigDx/xfe3D65BG00rRG3G6Mudp+Zuoru9LFumiWDi1i3G3jydoz90e1c9408Ok2ct5ZCSS4jjRUVnUKfn5z07E965nT9Z1rQtsslpbKNgi+f5vQ9m9qwOSSZ6fdQCQbJCHBHIYZryXxlpsdprVn5W1RPcSbgqbf4l6+vWtcfEi7YeXMlmqHqRG+f51yN3c3vibXIRHDG225OzZ8udzDGdx9qhx1MlHU9T8CRfZtDnCnj7Sx4GP4VrqxcbwF28jjOa57wRpd3pOnSR3sPlOZ2cDcG4KqOxPpXRyzskqKwADthfetqcTspRHJluCefWiMEBiWJxSqJFuGYqNpGAaQGRlYFRyMVp1NRWCsM7Rmom+RsCpAgEKg5DZ5FNiAxh+GzwKbExVJIqOXOOpFTMuOR0pqozdqlEkEWCW3qH9N3OK5Px5q1xBpFw8DyREIn3JCP4x6V2TzxWmPNbbu6cE9PpXgMV3dX2swNdxpHKFKhU6YwT6n3rCs+gmbnhqMahqVq1xiQyTRE+YN2cnnrXsUMMdjbLDEiqidAi7Ryc9PxrD8NafHY6ekkbOXuYo2cMRgHHb862hEd3fd6VFKPcaJll3DkfrS7RjOB+VNjdUDZONvWnGfKB0wVPQ1uo6lFYqQynceDUzcxgn1pzzMgxIAAaiY/LuXlT0NaSQyG2cmUA5PXv7Vckx5YOO9VDE38AyfepIRIW2soBApoyY1LnYPuZ/GsnW/Ddj4i8l7i3tsw7iDJAsn3sevTpW3FM08JBAznHFI2yArgnc/Y+tNmkJWONX4b6W0gGyzH/bmv+NaNt4J0KzZBLpenTkkDLWadvwNbrOWukDYC45I/GvKtd+LGpWGp6np9tDYPJbTSwQK8UmWKsVXJ3Adh6UjoVRsp/FuysNOslSysLa2Auox+5jVODGxxwPWszwb4zbwpauRZG5+0pESBNsxtB/2Tn71R3mp+JvG+nRR3un2qPv84i3O3lcqPvOeMGuv0r4Vafd6daT3kt9HMsSOVSWPG4gEj7p4zU9TpUo8tmdH4R8Yt4nv3D2RgTyWkCmbeBhgvoPWuuYLHIq7Ac+1cxoPhK20O5aS3e4YGMp+8dT1IPYD0rpJhGZASx6UzjqqN9AlUFzj5R6CvK/FtzdS65BZi5mWGSAFkDnaSGY8jv0FepsjmMGMZ571zXifSbrVNCubfT4jNK4QKpYLkhwT1I7VnU1RCky3pPhrSX0eykk06yeRreMu7WyEsSoySccmtLWNNh1HTpYp0jcNtB3oG6MD3ryTwvrqeH9fuoNUZIPJjeBvlZsOGUEfLn0PPSvRn8a+HZGEkeo5I4/1Mn/xNc6RabZ5jP5vh7xKBBM5ja8OEjJjACvwOO3NeqeHb99XsHkkDAiUp8zbugB/rXmHjrXF16/sYrRklMcsix4UrncVxnd9K7P4bW97aaDPHcQqkxu2ZV3A5GxPQ+xrSLHJHZzr5KKAc5H0p1snAbPUU8ZlA3jBXriopTuYxj7o5FdCMHuKqlgSWPFK/wAkCv1JOKhGBynIHXNKHmkYqiqU6g07jSF+1fvAmzg+9SB1P/LMVGtxGYixb5s+hp0c27lcEUhsdLMFBwn60yOUHPyCn+cZl/d4Paq/27y3ZTtBBweDTM2TBeOuKbsIbO49amB2rk9KkJJA9+lQmUMRiAOSa85+IlhJcSWublgrmb5cZAB28da9I4UZbgVC00SyKA3LHHSspq41oeYeGfh9Fe2Udw98m11bEbWwIGGx/e9q7u30DRX3FtH08kY2k2yHH04rWBMlw0Z+6BkHvSPIyPGsIDIxxIT2Ht+tKEB8wyC2hsolWCNI4xwEjUKB36CsHxL4nOj5K2nmMI1YES7Ty2PQ1vThQSQT1rzTx9pPinX2NlZaZDLYSwoJJBKiuGDlsDc/svbvXXGCaC53egam2q6PBqJQxmbcNhfdjDEdfwrQlAiO5gHcDhj1FfOularqXgPWp7GaCFLiKLYyS/Pjdtfqhx3FemL8U/Ckx+zpqqmRuQPs03/xPtWiw1yWrnb3Mg/s27dF2MIWOR1Jwa+cfindynXIXZ3bFonBY/33r0LXPihpH2GZIryFrhI5BbIYJcO2OAePXHpXk+pavd+KNSiubuOJJ1j8pVhBAIGT3J55NdNOnybk2PVPgvbbNP1CYPzLFbMRjpw5/rXrMB4weeK8x+ENhqljb6kdStlhgnSD7KyuGMi4fk4JxwV64616eLeMKCzMK5qzvIY/jPAxRghySdw9DUAhTzMoScGrClT8meRzWIEAIDDinP8AP7U6VAfu5PFNjBT7wxSAu0UUUFBRRRQAUUUUAFFFFABRRRQAUUUUAFFFFABRRRQAUUUUAZ7xxzqYpY1YN13DNVptI0y5QRPZ2h2nPzQqauRFZHBzSm3VHZ8tyaiMTJxOVfwdptxCzLBaqenFspp2k+FLLS5ppzHbs+5XT/R1UgjJ4Nb28W42evPNSiIzhSc49qpxJ5QgYSof4TnpUqKH3hwMr9xmHT3H6VG0JhcbMkYzzUsjBVQj72MmktDaJGWdPkJYkd81IueetM5f526n0qRSCDVJlEErsDjn86dE2WBP60SLljTMY6U2JlsEMopu7YKbCf5VFcSBT+FSiSlq2mS6r5Pl3j23l7s7QTuzj3HpWLYeAbWzv45pLiGZlzw1sM8gj1NdXakShvbHSlY/6Un0/wAaylG8hpEI2QIkMUCkRjaNox04pyvIZQTEyj1NJlkmYqMkt3p4e5aTDxqI+5HX+dU1YGPUJtcHblh3qMjagRR09KV1PmJgcE0/aA5zVw1Eh5CSdSvHrTJtixBRt4Paq6SEnjFKVZ3IxVMtE8eOvFMbKzMRn8KQsYhzToyH+b1pEtEcMTRMBk+vSlnjLtGcng+lC3G6ZQMflTjLuJHHFNEjBFm4XJ7elYT+BdJbU5L2azspnlmMp32aE5LZPJ69etbplKyhuOBTxNMWG9FCdiPT86GXGdiouj6Vbrtg0+zhI/uQKvH4CrTH7PCoji3jbwqjHTtTZQ8kh8pQxpQ88ewSIqigu7eiFjm3xBmi8tj1Q9RTztPJAqNyJJCVORT2XaD9KGZuLRNG6hAOKrpIsMRCqGfOQo6mljGRUSGFJRLI5Vl7Y4qGri5uhg+JPCdjqlkslvZW8N1JMJZJI7ZS5yDnJGCeTXKan8K50iaW21+TIA/dx2x5OfZ69Pjn/eEnGw9DjrSxorRlsnrWbiaJnnfh/wABtFKr3hMjRMhV5rXkkdTkmu+tLaHT4iqBB827hQvtVsMVQ7uABxVWb94cj0pqI3K4gnJaTGeT60luGa4YtnG3v+FNEezB9anhGD+FbJaGbJI1TZJwvSkhKK2Pl6VDHLww45pUVjIeO1IaGiON4io27ieMDmpIYNg5P6VAm6K6QEds/wA6me5KsRx+VBVhIgIR+OfSq4RJJZCQv3s9KuPGWjNVvK8sknPNMhomYkwt1p7uVSH6f4U4qPJb61HP92H6f4Vm9CkOYloz1qHyw0sZ44b0qwgzGKgWQecRno1CVxSQvmhL2Tjt6/SnRupDHjimNFvnZxnkUkUZ2tV2sSiSQRyoAJFVs5PPNVZEPkNbo5Z35Ei9R7fpUqpAshLuwbHIp0CxrMpZiJOcDtilzcozjfFfgG28SWCLHLDbaj5wkluVtQ8rqFI2scg45XqewrkB8DVgkEx8QBGXpmxwf/RlexMUS6eWM5lIwVPTHH/1qS4h8+M+ZkP0AHpW0MQ9rhc8gPwQWVhKfEIfad2DZZ/9qVqaT8KLexuEd7yKfBJ5sgOox/eNeixpJGCirntzU8McqHLrgfWtXWbBsq2dlHaW0MEKIvkoqEomM4GO1TymQjA3daspGF3MM/NyaY5APJrBu4JFeLercluo61ZwDyp59qZww45qMyNExJAx0qGOxJhsj5jT+COWH40wMWGaY270qQsaNFFFUAUUUUAFFFFABRRRQAUUUUAFFFFABRRRQAUUUUAFFFFADRGi/dRR9BSkA9QDS0UAMMMTHLRoT7qKcFVRgKB9BS0UAIVU9QD+FIUQ9VX8qdRQA3Yv90flS7F/uj8qWigBuxD/AAr+VHlp/cX8qdRQAgRR0UD8KaYo26xqfqKfRQA1URPuqq/QYo2LnO0Z9cU6igBvlpnOxc/Sl2j0FLRQAm1f7o/KjapOcD8qWigBgijHRFH4UuxQc7Rn6U6igBpjRuqKfqKAiDoqj6CnUUAMEMQORGgP+6KXy0/uL+VOooAb5UZ/gX8qXYuMbRj6UtFACBFU5CgH2FBVW+8oP1FLRQA0RoOiKPwpSqnqo/KlooAaEUdFA/CkMMR6xofqop9FADfLjAxsXH0pQqgYCgD2FLRQAhUHqBSeWn9xfyp1FADfLQ/wL+VARR0UflTqKAGCKMdI1H4U4Io6KB+FLRQA0xoW3FFJ9cUhijPWND/wEU+igBMDGMCkKIeqqfwp1FACbRjGBj6UhRTjKg46ZFOooAQKoGAB+VN8qPJPlrk98U+igBNij+EflSBFHRQPwp1FADDFGTkxoT67RS+VHu3bFz64p1FADfLTOdi59cUpVT1A/KloosA3y0BzsXP0pcA9hS0UAJgegpCiHqqn8KdRQA0Ig6Kv5UGONuqKfqKdRQA3y0HRF/KjYn9xfyp1FABRRRQAUUUUAFFFFABRRRQAUUUUAFFFFABRRRQAUUUUAFFFFABRRRQAUUUUAFFFFABRRRQAUUUUAFFFFABRRRQAUUUUAFFFFABRRRQAUUUUAFFFFABRRRQAUUUUAFFFFABRRRQAUUUUAFFFFABRRRQAUUUUAFFFFABRRRQAUUUUAFFFFABRRRQAUUUUAFFFFABRRRQAUUUUAFFFFABRRRQAUUUUAFFFFABRRRQAUUUUAFFFFABRRRQAUUUUAFFFFABRRRQAUUUUAFFFFABRRRQAUUUUAFFFFABRRRQAUUUUAFFFFABRRRQAUUUUAFFFFABRRRQAUUUUAFFFFABRRRQAUUUUAFFFFABRRRQAUUUUAFFFFABRRRQAUUUUAFFFFABRRRQAUUUUAFFFFABRRRQAUUUUAFFFFABRRRQAUUUUAFFFFABRRRQAUUUUAFFFFABRRRQAUUUUAFFFFABRRRQAUUUUAFFFFABRRRQAUUUUAFFFFABRRRQAUUUUAFFFFABRRRQAUUUUAFFFFABRRRQAUUUUAFFFFABRRRQAUUUUAFFFFABRRRQAUUUUAFFFFABRRRQAUUUUAFFFFABRRRQAUUUUAFFFFABRRRQAUUUUAFFFFABRRRQAUUUUAFFFFABRRRQAUUUUAFFFFABRRRQAUUUUAFFFFABRRRQAUUUUAFFFFABRRRQAUUUUAFFFFABRRRQAUUUUAFFFFABRRRQAUUUUAFFFFABRRRQAUUUUAFFFFABRRRQAUUUUAFFFFABRRRQAUUUUAFFFFABRRRQAUUUUAFFFFABRRRQAUUUUAFFFFABRRRQAUUUUAFFFFABRRRQAUUUUAFFFFABRRRQAUUUUAFFFFABRRRQAUUUUAFFFFABRRRQAUUUUAFFFFABRRRQAUUUUAFFFFABRRRQAUUUUAFFFFABRRRQAUUUUAFFFFABRRRQAUUUUAFFFFABRRRQAUUUUAFFFFABRRRQAUUUUAFFFFABRRRQAUUUUAFFFFABRRRQAUUUUAFFFFABRRRQAUUUUAFFFFABRRRQAUUUUAFFFFABRRRQAUUUUAFFFFABRRRQAUUUUAFFFFABRRRQAUUUUAFFFFABRRRQAUUUUAFFFFABRRRQAUUUUAFFFFABRRRQAUUUUAFFFFABRRRQAUUUUAFFFFABRRRQAUUUUAFFFFABRRRQAUUUUAFFFFABRRRQAUUUUAFFFFABRRRQAUUUUAFFFFABRRRQAUUUUAFFFFABRRRQAUUUUAFFFFABRRRQAUUUUAFFFFABRRRQAUUUUAFFFFABRRRQAUUUUAFFFFABRRRQAUUUUAFFFFABRRRQAUUUUAFFFFABRRRQAUUUUAFFFFABRRRQAUUUUAFFFFABRRRQAUUUUAFFFFABRRRQAUUUUAFFFFABRRRQAUUUUAFFFFABRRRQAUUUUAFFFFABRRRQAUUUUAFFFFABRRRQAUUUUAFFFFABRRRQAUUUUAFFFFABRRRQAUUUUAFFFFABRRRQAUUUUAFFFFABRRRQAUUUUAFFFFABRRRQAUUUUAFFFFABRRRQAUUUUAFFFFABRRRQAUUUUAFFFFABRRRQAUUUUAFFFFABRRRQAUUUUAFFFFABRRRQAUUUUAFFFFABRRRQAUUUUAFFFFABRRRQAUUUUAFFFFABRRRQAUUUUAFFFFABRRRQAUUUUAFFFFABRRRQAUUUUAFFFFABRRRQAUUUUAFFFFABRRRQAUUUUAFFFFABRRRQAUUUUAFFFFABRRRQAUUUUAFFFFABRRRQAUUUUAFFFFABRRRQAUUUUAFFFFABRRRQAUUUUAFFFFABRRRQAUUUUAFFFFABRRRQAUUUUAFFFFABRRRQAUUUUAFFFFABRRRQAUUUUAFFFFABRRRQAUUUUAFFFFABRRRQAUUUUAFFFFABRRRQAUUUUAFFFFABRRRQAUUUUAFFFFABRRRQAUUUUAFFFFABRRRQAUUUUAFFFFABRRRQAUUUUAFFFFABRRRQAUUUUAFFFFABRRRQAUUUUAFFFFABRRRQAUUUUAFFFFABRRRQAUUUUAFFFFABRRRQAUUUUAFFFFABRRRQAUUUUAFFFFABRRRQAUUUUAFFFFABRRRQAUUUUAFFFFABRRRQAUUUUAFFFFABRRRQAUUUUAFFFFABRRRQAUUUUAFFFFABRRRQAUUUUAFFFFABRRRQAUUUUAFFFFABRRRQAUUUUAFFFFABRRRQAUUUUAFFFFABRRRQAUUUUAFFFFABRRRQAUUUUAFFFFABRRRQAUUUUAFFFFABRRRQAUUUUAFFFFABRRRQAUUUUAFFFFABRRRQAUUUUAFFFFABRRRQAUUUUAFFFFABRRRQAUUUUAFFFFAH/2Q==;clipPath=inset(39.33% 11% 39.78% 10.67%);" vertex="1" parent="1">
          <mxGeometry x="30" y="110" width="300" height="60" as="geometry" />
        </mxCell>
        <mxCell id="8h9t13kz1k91gfvvCFST-3" value="" style="shape=image;imageAspect=0;verticalLabelPosition=bottom;verticalAlign=top;image=data:image/jpeg,/9j/4AAQSkZJRgABAQEAZABkAAD/2wBDAAgGBgcGBQgHBwcJCQgKDBQNDAsLDBkSEw8UHRofHh0aHBwgJC4nICIsIxwcKDcpLDAxNDQ0Hyc5PTgyPC4zNDL/2wBDAQkJCQwLDBgNDRgyIRwhMjIyMjIyMjIyMjIyMjIyMjIyMjIyMjIyMjIyMjIyMjIyMjIyMjIyMjIyMjIyMjIyMjL/wAARCAHgAoADASIAAhEBAxEB/8QAHwAAAQUBAQEBAQEAAAAAAAAAAAECAwQFBgcICQoL/8QAtRAAAgEDAwIEAwUFBAQAAAF9AQIDAAQRBRIhMUEGE1FhByJxFDKBkaEII0KxwRVS0fAkM2JyggkKFhcYGRolJicoKSo0NTY3ODk6Q0RFRkdISUpTVFVWV1hZWmNkZWZnaGlqc3R1dnd4eXqDhIWGh4iJipKTlJWWl5iZmqKjpKWmp6ipqrKztLW2t7i5usLDxMXGx8jJytLT1NXW19jZ2uHi4+Tl5ufo6erx8vP09fb3+Pn6/8QAHwEAAwEBAQEBAQEBAQAAAAAAAAECAwQFBgcICQoL/8QAtREAAgECBAQDBAcFBAQAAQJ3AAECAxEEBSExBhJBUQdhcRMiMoEIFEKRobHBCSMzUvAVYnLRChYkNOEl8RcYGRomJygpKjU2Nzg5OkNERUZHSElKU1RVVldYWVpjZGVmZ2hpanN0dXZ3eHl6goOEhYaHiImKkpOUlZaXmJmaoqOkpaanqKmqsrO0tba3uLm6wsPExcbHyMnK0tPU1dbX2Nna4uPk5ebn6Onq8vP09fb3+Pn6/9oADAMBAAIRAxEAPwD3+iiigAooooAKKKKACiiigAooooAKKKKACiiigAooooAKKKKACiiigAooooAKKKKACiiigAooooAKKKKACiiigAooooAKKKKACiiigAooooAKKKKACiiigAooooAKKKKACiiigAooooAKKKKACiiigAooooAKKKKACiiigAooooAKKKKACiiigAooooAKKKKACiiigAooooAKKKKACiiigAooooAKKKKACiiigAooooAKKKKACiiigAooooAKKKKACiiigAooooAKKKKACiiigAooooAKKKKACiiigAooooAKKKKACiiigAooooAKKKKACiiigAooooAKKKKACiiigAooooAKKKKACiiigAooooAKKKKACiiigAooooAKKKKACiiigAooooAKKKKACiiigAooooAKKKKACiiigAooooAKKKKACiiigAooooAKKKKACiiigAooooAKKKKACiiigAooooAKKKKACiiigAooooAKKKKACiiigAooooAKKKKACiiigAooooAKKKKACiiigAooooAKKKKACiiigAooooAKKKKACiiigAooooAKKKKACiiigAooooAKKKKACiiigAooooAKKKKACiiigAooooAKKKKACiiigAooooAKKKKACiiigAooooAKKKKACiiigAooooAKKKKACiiigAooooAKKKKACiiigAooooAKKKKACiiigAooooAKKKKACiiigAooooAKKKKACiiigAooooAKKKKACiiigAooooAKKKKACiiigAooooAKKKKACiiigAooooAKKKKACiiigAooooAKKKKACiiigAooooAKKKKACiiigAooooAKKKKACiiigAooooAKKKKACiiigAooooAKKKKACiiigAooooAKKKKACiiigAooooAKKKKACiiigAooooAKKKKACiiigAooooAKKKKACiiigAooooAKKKKACiiigAooooAKKKKACiiigAooooAKKKKACiiigAooooAKKKKACiiigAooooAKKKKACiiigAooooAKKKKACiiigAooooAKKKKACiiigAooooAKKKKACiiigAooooAKKKKACiiigAooooAKKKKACiiigAooooAKKKKACiiigAooooAKKKKACiiigAooooAKKKKACiiigAooooAKKKKACiiigAooooAKKKKACiiigAooooAKKKKACiiigAooooAKKKKACiiigAooooAKKKKACiiigAooooAKKKKACiiigAooooAKKKKACiiigAooooAKKKKACiiigAooooAKKKKACiiigAooooAKKKKACiiigAooooAKKKKACiiigAooooAKKKKACiiigAooooAKKKKACiiigAooooAKKKKACiiigAooooAKKKKACiiigAooooAKKKKACiiigAooooAKKKKACiiigAooooAKKKKACiiigAooooAKKKKACiiigAooooAKKKKACiiigAooooAKKKKACiiigAooooAKKKKACiiigAooooAKKKKACiiigAooooAKKKKACiiigAooooAKKKKACiiigAooooAKKKKACiiigAooooAKKKKACiiigAooooAKKKKACiiigAooooAKKKKACiiigAooooAKKKKACiiigAooooAKKKKACiiigAooooAKKKKACiiigAooooAKKKKACiiigAooooAKKKKACiiigAooooAKKKKACiiigAooooAKKKKACiiigAooooAKKKKACiiigAooooAKKKKACiiigAooooAKKKKACiiigAooooAKKKKACiiigAooooAKKKKACiiigAooooAKKKKACiiigAooooAKKKKACiiigAooooAKKKKACiiigAooooAKKKKACiiigAooooAKKKKACiiigAooooAKKKKACiiigAooooAKKKKACiiigAooooAKKKKACiiigAooooAKKKKACiiigAooooAKKKKACiiigAooooAKKKKACiiigAooooAKKKKACiiigAooooAKKKKACiiigAooooAKKKKACiiigAooooAKKKKACiiigAooooAKKKKACiiigAooooAKKKKACiiigAooooAKKKKACiiigAooooAKKKKACiiigAooooAKKKKACiiigAooooAKKKKACiiigAooooAKKKKACiiigAooooAKKKKACiiigAooooAKKKKACiiigAooooAKKKKACiiigAooooAKKKKACiiigAooooAKKKKACiiigAooooAKKKKACiiigAooooAKKKKACiiigAooooAKKKKACiiigAooooAKKKKACiiigAooooAKKKKACiiigAooooAKKKKACiiigAooooAKKKKACiiigAooooAKKKKACiiigAooooAKKKKACiiigAooooAKKKKACiiigAooooAKKKKACiiigAooooAKKKKACiiigAooooAKKKKACiiigAooooAKKKKACiiigAooooAKKKKACiiigAooooAKKKKACiiigAooooAKKKKACiiigAooooAKKKKACiiigAooooAKKKKACiiigAooooAKKKKACiiigAooooAKKKKACiiigAooooArCeQjouaBLNnpH+tNeYA8Mp/GgykgdKAJGkkA4C5qJrwqVBUZ78UkJLsMillgBOfmoAkW6BUkg0LcFicCqMybB3qzakBDk9hQBKZpNxAC4pv2h+4WozN+/YZXpVdpDvTp1oAtNdShiAEx+NTSSuqkqFz71EpXywcj86Z5u5xgrQBL50mwHCZ/GlknZJAoAwRmmGQbAMj86cSH5yPwoAVLguSABxT/ADH8wL8uCKznQ72wCealY4O70oAtJLIWcELhTxioZLx0cjC7R7VIu3yWJbquetRrFG0YbcfzoAQXzMcBRn3FTJO+MsF/Cq4hCPuGeueae77lxkfhQBK10B0Bpj3TiMMoXJPcU1I1AYk09Cu0DcPzoAc07rGWwuRRDM8n3guMdqiugWbABPHaoZA0dspCnOccj60AXd8jfd2fjUYnlDkOExnHy5pDN5ZxlfXmkRvOLZx+FABLeMrhVA5HcU6CeWTfuCZ/hxn9aq3Ee2dcAn5f8amRFkTcxwYxkY/z7UAWVdwcPt/4DUBu2kaTyQMRH95vHX6Y+hpsvzQLt+Y56DmnCZ9scagEHh+Pu0ASRztJGHwOaWSZkBwB0zTD8vyjkDvRIMg/SgAiuWfqB07UG5cTKoC7SOfWkgjHv0pJAFOBQBK1yqrkg0+OXzFyB3rImRmJ+U9ewq3aEovIxz3+lAFsSHLbgOOmKPN9qikOenNRgc0ATGdweAtDSybAQEz75qInBFTIwKgZFACvKy4wBk+tMjmmaZlYJtAyMZzUcsZ3oQDwaVMmZhjtQBO0u1SxHAoScOOhqqu9TnafxFTxS84JA4oAcszNIFwOaWVpRjy9nvuzUUiAyA89KmCqVGW7etAEMj3gkCx+RyP4s09pXjRS4Xdj5sdPwqqoZLZ5ADuB4B/CiWQokbnADDLE9BQBOLlmGVAx7043BUoGHLdMVymp+KlsbyWBJ7PCYxvfnkA+vvQnjCzLWwmv9OjWQgOTMBjpnq1AHWtKyjOBVUXN4siBxBtY4O3OcUyK5sdStkNpdw3CHJBhkV8447e9PZWhGxFJSThyR0H+TQBb84ZximvM6uAoGMd6rRqqfKpyo6GmiY+UT8uc0AWRNKXIwm38aVbg4wwG7tjpUaS5gU8daliww3E8g0ACTsS24DA6YpPtI8wIAeRTScuw98UJCvmhsnigCV5GBXGOajeWdT8ojx75pHAd8E/dPakYAd6AJt8gjDHbnGeKRZiw5HNVyQ/ykj04pJIxFEGXJJOOaAJTdEHkUj3mB8q/mKTywVJOagKqGIzQBp0UUUAFFFFABRRRQAUUUUAFFFFABRRRQAUUUUAFFFFABRRRQBSW15ycfmal8tAAMUyV9sZH/LTsKqxsDIfM4Ht60ATlvKORU7SgohOeRUJaXeFKjaepqKaNHI2El/T3oAllQSKSB+dNiQgEcVEC9uh84BV6k9asDd+6eEBkbBcnsP8AOaAKuwi8ccdP8KV4eVPHFTyIBdPJ6jH8qm/dv/EaAKTM20AGliiYDJIzmrRjAY4zinys20soBAoAolWaUrkcCnRlxETnvVmHHmFz1IoYkIdoyvc0AU5blLbBkDHf020lpcpeWzMob72Pm49K4f4jalbs2nxpIC0ZlVxtPB+T/CuLsPE+paWhhsYLaTcxf94p64x/eHYUAe7tGfIIBA+X+lV1aSOEAsMD0ry6H4l6rHJaRT29isLFVuGEb5ReASPm9M+tdTa+NPD8oQyX+M5ziGT/AOJoA7OP97Fz121EYdjnpVLS9WsL9JJLKfzUjCs5KMMA5x1A9DVm5nMkQeHDKTwTQA52J4Hek2lYwaf5axowckZFMARowikkDmgCwDkbj2ps+JIQo7HPNKoYIVxxmgOU9KAK7JvkAPpUiL5IJFNkOZRt54p4LBcMAARQBGsgkukDZPH+NMnZ0lUIcIW+ceo/zmnNbhpBKuSAMda4L4peJ77RNMgsdOht5Rfwzwz+cpyvyqBtwR/ePr0FAFvxx44i8KWquguFPnrH+7jRuqlv4j7Vv6RrcV7pmk3SiTN/DFIxZQCdyqeeePvdq+UpYpJrp3uV2EgZ2n6fWvqjwZsh8FaUrEgNp0AH/fsUAdGyKDjFDYwfpVaF4toUMePapS3agB8bYquzFm3enFWY1G0ZJphjUxlUJJNADY1Ruo7U+SMIOKgtkJuHVuMA9PrUztMblU2L5JHzN3B5/wDrUANT+LNOGDTEyzSg/wAJ4pEZjMqYHNABIOeKjkkaKIMD3xU5ZAW807cdMUEoyg5/d9jQA1rkEgc/lTI5SLp8nt/hU5ijVlO48HNExH3l5JNACh1ZCSDiqkkyLOwANP8AOnjOxEUk88//AK6csUkzl5V2kjsaAJZMlSQagIuD0dfy/wDrVYmGVINRJtGeaAHRqxHluQQTmsvxDdi00S/l+bMFvKy4AOMKf8K1HkjlU+U25+gGK5Lx+NQTQZBZQJIjWs/2guR8g2jpyPf16UAeQrqU2u+IAm8nzv76gdE9vpXYXXw6vLmzsnWS0BmjypMj8ZA6/L71j/D3S7pNd07UJIsQDzcvuH9116Zz1r2wGMxrljgigDymM658O4Vku72FrP8A1CR2yh2DN8+fmUccHv3rutD8YWviIzi1S4RIdvmiVFG4Nnpgn0NbbecIVECBkzwTXg3h1/7R8SaW8fzCG7hJxxjLj1+lAHv8XlMoKKQvYGmtbqBswOfeq8pKnCjL9wakuftCIZfLXeOgzx/OgCxHCuwIR096mVFXkDis2MyGMTOoDNwQOlYvjbXm8OeD7/UrPy3nh8vasykqd0iqc4wehPegDpNy73wDnNMad1lADdvSvCNM+KHioajbzXWnaZHp8sqNLKqOSsWclgPMJztOen4V6Pa/FLws8RM2qKsu7hRbTYx/3z9aAOwjLt5hyKkSN3GSRVaC9F5ZwXcBD2s8YlV8EZRgCDg89DUry+VCskOGQnALUAHkyByQy9aUCR5DG7AgDNTRtuVXXkkAv7VGLiP7W6BvnA5GD7UAKWbBAPWmrAWOTg09pSORjpUf2iVjjatAF+iiigAooooAKKKKACiiigAooooAKKKKACiiigAooooAKKKKAKcil51PbFMkSGL5nQnJxwanzuYP6cVy/i+ynudOQRJuP2gN1A4w1AHDat8Try31iGKKe4WJotzL5EZyct/gKv2fxStDdWMMyXrSTOiEiKPGSQD/ABe9ZvgD7DrGmyWc0zrNJcNtVARkBFPUjHY102pfD3TJrKZo571rny3Mab0AZ8cD7vrjvQB1lreJrdm8sQYIG2ESDByMHt9avW74hkQf8s1xXitlBqvgTWYLy5tUjsIlMkksrBypYFBwhz1x2716jo2uw6/bLc20iyCNEkk2oyhdwz3+hoA1Q+/jvUuxowTkVEP3jGZeQ1PMrNwQOeKAATbmxzTppNimPueaj8rHzDPNEcob7+A3oKAJIx+6BPWq01w0dhIQTuBGDj3FLLuaU4AK1NcFFQgGgDw/xBHqeq6vdD7TEUink2hhjALew9q2vC3geS6lWe9NvLGrspAkcH7vHQDua9SQFFBtxvLD593b/PNPkhgB8t3YEjP+eKAORuvh/oxsbsrZIJ/Kby286TCtg4PX1xXIr8P9UUB457NY+wLvn/0GvXwBGnycqB1PpXPeIfEVvp1jcu0qBo9vDIx6ken1oA850/Xr7w+2p2nnkFT5R2IrD5dw7iu08Hanf6tbpLcTh7do2KoVAIIfGeB9e9eWvarrfiITwlnWW73yFTtwGfPGfxr2jw5p0en6LbwsXEShgCSCclie1AG4Ed45PMIJx8vtUUUTJ1I/CpZPIjZCzkNn5R6mn/aAw7flQBG8+3jmmBy9I43HNPjOwUAR5xKCfSptweN8A5Ud6ZbgOOeue1AQxef6HP8AWgDL1nWV0jQ7i7fzCYyp+RQTywHf614pP4k/4TDxRFZXplliS98qJXRU2h3AxleewruvincIfCt7bZ+Z0iIGD/z1H+Fcl8IYNTjutQb7MnlF7cq24crl+etAHLeJdIh0zxtqFjsX7LEibEVicEoh6nnua+gPDMRl8KaUsOFVLGEYb02D/CvIfiZ4W1u+8U3t/aWXmCV4h/rUAwIgOhOe1eheDfGFi2jafolzOiX9rbwWhiWN/wDWBQhUt06jGc4oA7O2hIchsE4q1Iqq3A7VWhifduZcMR606aJy2dvb1oAsAkRjFVoZyrBnJKjqAKfCxRQDxinSIstu0QJyxoASTMa+dHwXP8+aJZzEpLZJ9hVa51W20y3T7RIEUER5Kk849vpXjmo/EO51C3eOFbRmIAAEbjoc9zQB7UpaQq0R2g8vnv8A55qURgSBu4rwm21vW3tJvIs7Zi6c5+h/2qTTPF+saHexyX1raRKuWJKs3BBA6Me9AHt7sJXkXuCRzTxhIFRxkA9q4zwt4xGu3DgtDw8f3I2H3ifX6V277CPmJC+tAD5HTA4Oe1QneT1GKYdvmJz3qWdj5Y2AHnvQA1opBco25cAf41KWdRwaEaXPzKBRIznsKAGHzJD94U5YHx1FRZk/uilxMeiD86AEKLFGWjGGHQ1natbPfWMlrIVYXMbxjPA+YY5x9a1PlijMgPI9aerOVDkDkZFAHPaB4bs9Ktre2aFfNj3co7Ecknv9a3RDGSUC8Lx1pJ1V0ZmJ3nsOlNidQuzPJwKAMbxJ4jh8O2is6zY80J+7VW6gnufavHvBdrJDr9oysoX7VCWHqN1d98TWt7rS47GRyDHdI/yjn7jd8Y71zvw41dLO+uIZGUfaJIVGVJ7sO31oA9aniab5oCFYnkt6VPJKqHybgFywz8vTH+RWDrPiLSrAmO6uvLwwH+rY8kZ7CtbTtSg1G2aaykEqK+0naRzgHvj1FAEzxGSIeThUzwGrxL4l61f3HiK30QXH/EnubRXntyi5dw7kHdjcOVToR0r3QFgu/A3HgivnPxjqg1Px7p/9tlbaH7HtZoFOQAZCP73egDv7fwFpl74TtPs9rGs81iuxnmkwGMYwTye9cVqXwj8Q2oN3De6YsCKAy+Y5YknHdPcd67/w1438MSWtrpdvqZeSFIrdFMEgJONoBO3Hau0huZFXfCFaAH5mPUH/ADigDwGP4la/ooTRpdQci1xaqI7eIqNny9SMkcdTzXqPgHxrb+I7WPTLpbmS9iieaSRkVUI34GNp64YdvWug1Lw9barp97DO8yi8idfkYA/OCDjIOOveo/Duip4c0O20e3MjQW+7a0rAudzFjkjA6se1AGyI7iIO6uoi6he+306elEccUh89FIkbgsT2/wAinMhHlNjkc/yqQTNvIYACgCLGTzS7AvOKceTmmOC3FAF6iiigAooooAKKKKACiiigAooooAKKKKACiiigAooooAKKKKAKUjgXSKMhSOg/Gs7XpALFDz/rR/I1T8VatLpfh26aJYzdjYyRuCQQXAPQ+me9eXPp/iHU3a4SwiPnHzeJFA557t70AUPh9qkGl63bQyrISXkf5AMY8sj1HpXt8N9DNa+eEbaED8gZxjNeZax8OoLOzkeI3TEAH5pU9celctc6jMlrPprKgESNAvBycDbyc4zxQB2fxF1+wns5dN+zy+fNEjKzIu0ASZ5Oc/wntWh8MMxWtwrHKukAAHTGGrD+GXhhby0a+m81WjuXT5XXGNi+3vXqsFs1sFjUEpwuSRnAoAvKEA4UBewApsigFQAATVbyitwxA+XHBq67K44PSgBijB2nnFQeUZZBImFUDBHSoy7x3TnAxjH8qtLMHGc0AIUAQDA3dzUEUbKf3pDj3Oas5Bpyuq9TQBWZWz+7O0e3FMnyp8tuZCMhvQfWrUtxAu3e5HpwarzXL29q8koVWBGB14zQAs0y29qC4JGznHsK8p8c+JdOlF/pq28wuD5fzlF2/wALdc56e1P8c66l7JFb2jJJIplRxtYYJwO/41X8GeDr651Ky1W4gkS3bzNzrKmBwy9OT1oAZ4O0aW6ubeePyQivC7A5yRnPpXr9vAIkCsFKDooHApLS1Syi2oWPygfMfSnNcOWIAXFAELyKWXcCeeMingqx4GKdvyyg9zTZRtckUAS+UQMnFNLKvBH6VJ5gdCAeaiKHcSaAFjheM7twwPQ0y8uY7e0ld1Y4RicD0FPaBJJA4JwBivI/jPrslkml2sAibzBcRtvU5GNg45HrQBi/EzX4r6/TS4fPWWa2RgWwF4djzg/7PpXb/DLRZtJ0lprkwv8Aa4IGiKEkr8pPOQMfeHSvDvD+oRWviO1v7xxGIgwJCkjBVh0GT1Nd7d/GK9tkit7FLCVIwUUvDLkgYA/iFAHqnieKOLTY5nRSzTAFgOTwf8K8Dsdfh0zx5czyCcxxanvZY8ZIWUkgc1D4p8b67rtssktnZBGlVgY1YchSO7mtD4b/AA4tfF0moXGoPdxFTE5+zyIB8+8nqD6cUAe5+HPFtl4lfFnHcxnyzJ++VRwGC9ie5rf+2xbwhViW4HArA8P+Fbbwlp0VpYvPJFGGVTOykncxY9AO9bUzea25ecDFABNKiyEYP4CiOTzJAVyBSxsFQb+DXNeOrsjwjfRQbWdvLIBB/wCei0Ac78R7yX+zQkM0sbre4JDEcYf0qh4S8Gi7X7W0Fi0SSsjK6ZJ+Uf7PuK82urf7TK4bIfeWYA9DXbwWGv8Agy3a4vLGOKBG3szur43YUcK3rigD0iz8P2ti5MtpaMhIwFjB4H4U7VPC9hq0LPBp9guAF/eQqOQc9gfWqPhLxbBq6eVLJGGxGoCRsMlsjvXXS4i+7yvqaAMTQfDUOlb9ttZozbOYowORn2HrW+ygLsIBIqNvmjBXnAzTVQTqEYkY54oAm2LJyqgbfakkUpGGPQnFL5UcTDDHk96hlLGdlUAr2NAE5bDBucDtTWlVugNJDvVCZQFXPJFOLQsfvn8qAI9jZzn9anjzjmkZImX7zYqs1vGScM1ADnUy3CupxEBhkPc89vypyEqzKSSCcKPSobVSvUY5q0u3d170AR+S/nbywKemaZIUtw8rrkDLcDnirLplTivPviT4j1LRrCOGygt5I54p0mMoJKgADjDD1PrQBzHxN8Q2l4zWNtHPHdRzo7yFQAV8s8ZBz3H5VseAdMgiOoNNbwPIPLMbbASh+bkEjjt+VcZ4N1XTn1KS71y4NrA8DANEjHL7lwMAMegNaj/E7W57We0uLXT0NwhjXbG+TkEf3z60AM+IlteLqU8wuMRNLGFUOeD5fp+Br0TwOr/8I/cRq2HNySDn/ZSvNLPwpr2twrqEFiH80H7sqKODt6Fs9q9P0PwjaaBCY7aS4ecuXVZXUg5AB6AdgaAN+KRrdyJmZ+McHP8AOvnv4g2JufHFjFCI1LWQxngfekPavoa1EqNtdQGA5FJP5UaG3jYmVvmVT3/zigD5c1Tw7qukRwXMF3HC8oMitBIysCMEHIA5Ga1/BPjq+8PapB/b+o6pf2293eITtKGBQgcOwBw3NfQsttHeWFxbuzANEUk29RkEHH6188fFTRY9K8WWkdqZHtjZKzvIwJDF5BjgD0HagD3fR/E9n4it1lso7iNFRGxKoHDDI6E+lb8YUxKSAT6kV4t8FEa5GrhxhYvs+0juP3nX8q9qtwiRKMnigCvLvdwFYjBx1p7cRBT98Hk1JtV3PJ61Hc2425TJOaAJNuFOaahGelQR7jxjvU/3BzQBbooooAKKKKACiiigAooooAKKKKACiiigAooooAKKKKACiiigDxvxjfXDa7BG00rRG3G6Mudp+Zuo/Ku/0kW6aFp7i1i3G3jydoyflHtXNeNvDZNnLe2QlluI40VFZ1Cn5+c9OxPeuY07W9b0DbNJZ2yjyxF8/wA3oeze1AHqt1AJAY5CHUjkMM968e8baZHZ63ZeVsUXFzJuCpt/iXr69a2v+FmXbDy5ks1Q9SInz/6FXG3lzfeKNehEUMbbbo+Xs+XO9hjO4+1AHq3gKL7LoM4U8faWPAx/CtdctxvULt5AxnNc74F0q80jTZI76HynNwzgbg3BVR2J7g10ss7JNGrAAO2F96AFTLfKTz60sSlQxLE0KJEuGcqNpGAfyoBkZGBUcjFACsFYZ2jP0qFvkYAdKmVAsKhshs8imQgbcPw2eBQAKSRTZc44YipWUjkdKRUZugoArxYJbeof03c4rjPiFq9xBo9w8DyxERx/ckK/8tB6V3Es8Vpjzn27unBPT6V86xXd3qGtQPeRRxyhSoWPpjBPqfegDd8MRjUdTtWucSmSaIsZBvzubnrXtUEEdharBCiqiZwEXaOTnoPrWB4X06Ow0+OSJnL3UUbOGIIBx2/M1vrEQw67vSgCVZdw5H607aCM4H5UiOqhsnG3rT/PygdMFT0NAFZkIZTuPBzUp+aME+tPeZkGJAADULH5Qy8qehoAitXPnKDkjnv7Vekx5YOO9UjE2f3Yyfc1NAJC211AwO1ADEudg+5n8axde8MWHiTyXuLe23Q7iDJbrIctjPXp0rfima4hYEDOccU1wluy4J3Oeh9aAOGX4Y6U0oGyzH/bkv8AjWlbeA9AsXjEuk6ZcEkDL2Ufb8D1ronctdpu4XHJH415Jr/xe1PT9U1XTbaHT3ktppYIFeKTLFWKqCdwHYelAGb8Y7HT9Mswljp9ragXcYHkRKnBiYkcD1rL8EeOG8I2rkWJuvtKREgT+XjaD/snOd1Nv9T8UeO9NiivdOtI33+cRbNt5XKj7znjBrsdI+EWn3mm2lxey38c6wxuVjmjxuIBI+6eM0AdR4M8at4r1GQPYmBPIaQIZ/MAIZV/uj1rsm2xyKu0HNcn4e8HW2g3LSWz3DgxlAZXU9SD2A9K6mZYzICWPAoAJkDOcfL9BXkXjK5updegsxdTLDJbgsgc7SQzHkZwegr1xkcxgxjPPeuW8V6Rd6toF1badEZpXCBVLKuSHBPJI7CgCfR/C+kPo1jJJp1jJK9vGXdrZCzEqMknHJrU1rS4NS0yaK4WN1baD5kYYcMD3ryDwrryeHfEN3BqrJb+RE9u3ys+HV1BHy59Dz0r0qTxx4bkYSR6luIGP9RJ/wDE0AeWTmXw54oAt5nMb3pwkZMYAV+Bx25r1vw1qL6xYSSSBgRKU+Z93QA/1ryjx7rq+INQsIrNklMcsix4VlzuKgZ3fSu5+GFte2egTx3MKpObtmVdwORsT0PsaAO6mXyUUA5yMelOtk4D56inrmUDeMFeuKjlO5jGPujkUAKFLAkseKR/kgV+pJxmohheUOQOue1IHmkchEUp1BoAf9qzIIynB96kV0J/1a1ElzGYiS3zZ6YNOjn3crgj6UAPkmCjhBTY5Q2fkFPE5mX93hu1Vjf+W7KdoIODwaAJgOOOKbsYNneetSg7RuPQVJuO0eh6UAMVyAByfxrzH4k6dJcyWubpgrmb5SMjB28da9QPyjLcCq7yxLKoVuXbB4oA8o8LfDmK9sorh79Nrq2I2tgQMNj+97frXoFr4d0N9xbRdOZlxtJtUJX6cVsrl7hoz90DIPftSu7pJGIAGRjiQnsPb9aAGW1pDZQqtvFHFGMgJGgUDnPQVg+J/E/9i5ZbTzGEasCJdp5bHoa6CcIDwT1rzH4g6R4r8QsbGx0uGWwlgQSSiVFcOHLYG5x6L270Ad34e1NtX0a31JkMZm3DYX3YwxHX8K0pUEPzsA7gcMRyK+ctI1XU/AGtz2E1vAlxDFsZJvnxu2v1RsdxXqSfFbwjOwt01dTI/IH2Wb6/3fagDt7lwNMunRdjCFjkdScGvm74rXcv9vQuzu2LNOCx/vvXouu/FPRhYTpDewtcpFILZDby4d8fKDx649K8i1PWbvxTqcVzeRwpOsflKsIIBUZPcnnk0AerfBW22adqEwfmWK2cjHThz/WvWoDxg88V5h8H7HVbG31P+07VYIJ0t/sjK4YyLh+TgnHBXrjrXqH2eMKCzMKAH8Z4GKTBDkliw9DUAgQSZQk4PerKlD8meRzQBApAI4705/n9qWVAfu88U2MFPvjFAF2iiigAooooAKKKKACiiigAooooAKKKKACiiigAooooAKKKKAM5o451MUsSsG6hxmq8uj6XdIIns7M7Tn5oVNXItksgIJ9Kd9nVHZ8tzQByb+C9MuIWZbe0U9OLVTTtI8JWOlTzTmK3Z9yvH/o6qQQSeD+VdDvFsPL9eeakEJnCk5x7UAJAwlQ/wHPSpEUSbxIoyv3GYfqP0pjQmCQbASMZ5qSRwqoR97GSPegCMu6fISzY7k1KmeajGX+dup9KlUjmgCCWRgSOfzpYmycnr70SrliabgjkUAWwQyjpSbtgpkJJH4VFPKFPbpQBn61pcurGHy717by92doJ3Zx7j0/WsHT/AIe2tnqEU0lxDOy54a1GeQR6muwtyJgeemOlKT/pafT/ABoAgUJbpHDFApEYCDaMdOKeryGUExMo9TRlklYqASW4zTxJcmTDxqIu5HX+dAD1CEOG25b1ppG1Aijp6UjKfMTA4JqXAEhBoAewjk+9t49aim2LEFG3g9qgWQk4GKUq0jlce9AE8WOvFNYlZmIz07UwsYhzT42Eg3evpQAyGJo2AyfXpSzxF3jOTwfSkS5DTKAR+VPMu4kccUARiLdcrk9vSuek8A6QdVkvp7KxneaczNvs0JyWyck9evWuiMpWUNxwKf5s7MC6KEzwR6fnQBQXRdJtxtg06ygI7pAi8enAq4f9GgURRbxt4VRjoOlNmWSSQ+Uu40okni2CVFVfX2/OgB8Uu+FXaLy2PVD1FPYK3PFQu4kkJU5FSMNoP0oAlRlCAcVWR1hhIVQ75yFHU1JGNyioV8iOUSyOVZe2OKAOb8T+ELDVbJZLextobuSYSyyR2ql2yDnJGCeTznvXI6r8JbhIWltfEMpKgfu4rU8nPs9erpP85Y42H7p9aSNFaMtk9aAPNfDnw/aGVHvMyNE0ZV5rTkkdSCTXollaw6dGVQRj5t3Che2KuBisZ3cADiqso8w5HpQAqzndJjPJ9aLfc1wxbONvf8KYsWzHXmrEQwfwoAciJsk4Xp6UQlFbHyjioY5shhxzQisZTx2oAYIo2iKrt3E8YHNTQW+wDJ7elVk3RXSKQOmf51PJdFGI4/KgBYQIB+OfSq2yOSaViF5bPIq48ZaM1VMRjOTn5qAJnyYm60ruVSHr0/wqRkHkt9aiuOFh+n+FADmJaM9aiEQaSM4GQQelTxjMQqJJB5zDPRsUAL5gS9k47ev0p8brhjxxTGi3zs/PIpkcZ2vx2oAlk8uVABIqtnJ55qrIp8hrdHLO/IkXqPb9KeqwLId7sHxyP8inW4jSZSzESc4HbGKAOP8AFngC18TWCJHLDbal5wkluVtQ8zqFI2scg45Xqewrj1+BS28omPiIIy9M2OD/AOjK9iZkju3liO6VhhlPQDj/AOtS3EXnxnzMh+gA9KAPH2+BqzMJT4iD7TuwbLP/ALUrV0j4SW1jcpI97FPgk/NZAdRj+8a9FiWRAUVQe3NWIUlQ5dQB9aAKtpYxWltDBCqL5KKhKIBnAx0HTpUsrSEbRv6+9WljC7mGfm5NRuVU8mgCvCXVju3dR1qzweQcH2pnDA7eaiMjRNkgY6UASYYEfMafxjlh+NMDFhmo3LZ6CgDTooooAKKKKACiiigAooooAKKKKACiiigAooooAKKKKACiiigBqxov3UUfQUpAPUClooAY0MbHLRoT7qKcFUDAUAewpaKAEKqeqg/hSGND1Rfyp1FADdif3V/Kl2L/AHR+VLRQA3Yh/hX8qPLT+4v5U6igBAijooH4U0xRt1jU/UU+igBqxon3UUfQYo2JnO1c+uKdRQA3y0znYufpS7R6D8qWigBNq/3Rx7UbVJzgZ+lLRQAwRRjpGo/Cl2KDkKM/SnUUANMaN1RT9RQERRgIo+gp1FADBDEDkRoD67RS+Wn9xfyp1FADfLjPVF/Kl2rgDaMD2paKAECKDkKAfYUMit95QfqKWigBoijHRFH4UpRT1UflS0UAIFUdFA/CmmGJusaH6qKfRQAzyo8Y2Lj6UoRQMBQB7CnUUAIVU9QPypPLT+4v5U6igBuxD/Av5UoRR0UflS0UAMEUY6Rr+VOCKDkKB+FLRQA0xxltxRSR3xSGGI9Y0P1UU+igBMDGMCkKIeqqfqKdRQAm1cYwMfSkMaNjKKcdMinUUAIFUDAUD8Kb5Uec+WuT3xT6KAE2r/dH5UgRR0UflTqKAGGGInJjQn12ijyo927y1z64p9FADPKj3bvLXPrinbVP8I/KlooAaEQHIVfypcD0FLRQAmB6CkKIeqKfwp1FADRGg6Iv5Uhijbqin6in0UANEaDoi/lR5af3F/KnUUAFFFFABRRRQAUUUUAFFFFABRRRQAUUUUAFFFFABRRRQAUUUUAFFFFABRRRQAUUUUAFFFFABRRRQAUUUUAFFFFABRRRQAUUUUAFFFFABRRRQAUUUUAFFFFABRRRQAUUUUAFFFFABRRRQAUUUUAFFFFABRRRQAUUUUAFFFFABRRRQAUUUUAFFFFABRRRQAUUUUAFFFFABRRRQAUUUUAFFFFABRRRQAUUUUAFFFFABRRRQAUUUUAFFFFABRRRQAUUUUAFFFFABRRRQAUUUUAFFFFABRRRQAUUUUAFFFFABRRRQAUUUUAFFFFABRRRQAUUUUAFFFFABRRRQAUUUUAFFFFABRRRQAUUUUAFFFFABRRRQAUUUUAFFFFABRRRQAUUUUAFFFFABRRRQAUUUUAFFFFABRRRQAUUUUAFFFFABRRRQAUUUUAFFFFABRRRQAUUUUAFFFFABRRRQAUUUUAFFFFABRRRQAUUUUAFFFFABRRRQAUUUUAFFFFABRRRQAUUUUAFFFFABRRRQAUUUUAFFFFABRRRQAUUUUAFFFFABRRRQAUUUUAFFFFABRRRQAUUUUAFFFFABRRRQAUUUUAFFFFABRRRQAUUUUAFFFFABRRRQAUUUUAFFFFABRRRQAUUUUAFFFFABRRRQAUUUUAFFFFABRRRQAUUUUAFFFFABRRRQAUUUUAFFFFABRRRQAUUUUAFFFFABRRRQAUUUUAFFFFABRRRQAUUUUAFFFFABRRRQAUUUUAFFFFABRRRQAUUUUAFFFFABRRRQAUUUUAFFFFABRRRQAUUUUAFFFFABRRRQAUUUUAFFFFABRRRQAUUUUAFFFFABRRRQAUUUUAFFFFABRRRQAUUUUAFFFFABRRRQAUUUUAFFFFABRRRQAUUUUAFFFFABRRRQAUUUUAFFFFABRRRQAUUUUAFFFFABRRRQAUUUUAFFFFABRRRQAUUUUAFFFFABRRRQAUUUUAFFFFABRRRQAUUUUAFFFFABRRRQAUUUUAFFFFABRRRQAUUUUAFFFFABRRRQAUUUUAFFFFABRRRQAUUUUAFFFFABRRRQAUUUUAFFFFABRRRQAUUUUAFFFFABRRRQAUUUUAFFFFABRRRQAUUUUAFFFFABRRRQAUUUUAFFFFABRRRQAUUUUAFFFFABRRRQAUUUUAFFFFABRRRQAUUUUAFFFFABRRRQAUUUUAFFFFABRRRQAUUUUAFFFFABRRRQAUUUUAFFFFABRRRQAUUUUAFFFFABRRRQAUUUUAFFFFABRRRQAUUUUAFFFFABRRRQAUUUUAFFFFABRRRQAUUUUAFFFFABRRRQAUUUUAFFFFABRRRQAUUUUAFFFFABRRRQAUUUUAFFFFABRRRQAUUUUAFFFFABRRRQAUUUUAFFFFABRRRQAUUUUAFFFFABRRRQAUUUUAFFFFABRRRQAUUUUAFFFFABRRRQAUUUUAFFFFABRRRQAUUUUAFFFFABRRRQAUUUUAFFFFABRRRQAUUUUAFFFFABRRRQAUUUUAFFFFABRRRQAUUUUAFFFFABRRRQAUUUUAFFFFABRRRQAUUUUAFFFFABRRRQAUUUUAFFFFABRRRQAUUUUAFFFFABRRRQAUUUUAFFFFABRRRQAUUUUAFFFFABRRRQAUUUUAFFFFABRRRQAUUUUAFFFFABRRRQAUUUUAFFFFABRRRQAUUUUAFFFFABRRRQAUUUUAFFFFABRRRQAUUUUAFFFFABRRRQAUUUUAFFFFABRRRQAUUUUAFFFFABRRRQAUUUUAFFFFABRRRQAUUUUAFFFFABRRRQAUUUUAFFFFABRRRQAUUUUAFFFFABRRRQAUUUUAFFFFABRRRQAUUUUAFFFFABRRRQAUUUUAFFFFABRRRQAUUUUAFFFFABRRRQAUUUUAFFFFABRRRQAUUUUAFFFFABRRRQAUUUUAFFFFABRRRQAUUUUAFFFFABRRRQAUUUUAFFFFABRRRQAUUUUAFFFFABRRRQAUUUUAFFFFABRRRQAUUUUAFFFFABRRRQAUUUUAFFFFABRRRQAUUUUAFFFFABRRRQAUUUUAFFFFABRRRQAUUUUAFFFFABRRRQAUUUUAFFFFABRRRQAUUUUAFFFFABRRRQAUUUUAFFFFABRRRQAUUUUAFFFFABRRRQAUUUUAFFFFABRRRQAUUUUAFFFFABRRRQAUUUUAFFFFABRRRQAUUUUAFFFFABRRRQAUUUUAFFFFABRRRQAUUUUAFFFFABRRRQAUUUUAFFFFABRRRQAUUUUAFFFFABRRRQAUUUUAFFFFABRRRQAUUUUAFFFFABRRRQAUUUUAFFFFABRRRQAUUUUAFFFFABRRRQAUUUUAFFFFABRRRQAUUUUAf/9k=;clipPath=inset(39.33% 11% 39.33% 12%);" vertex="1" parent="1">
          <mxGeometry x="420" y="110" width="299" height="60" as="geometry" />
        </mxCell>
        <mxCell id="8h9t13kz1k91gfvvCFST-4" value="" style="shape=image;imageAspect=0;verticalLabelPosition=bottom;verticalAlign=top;image=data:image/jpeg,/9j/4AAQSkZJRgABAQEAZABkAAD/2wBDAAgGBgcGBQgHBwcJCQgKDBQNDAsLDBkSEw8UHRofHh0aHBwgJC4nICIsIxwcKDcpLDAxNDQ0Hyc5PTgyPC4zNDL/2wBDAQkJCQwLDBgNDRgyIRwhMjIyMjIyMjIyMjIyMjIyMjIyMjIyMjIyMjIyMjIyMjIyMjIyMjIyMjIyMjIyMjIyMjL/wAARCAHgAoADASIAAhEBAxEB/8QAHwAAAQUBAQEBAQEAAAAAAAAAAAECAwQFBgcICQoL/8QAtRAAAgEDAwIEAwUFBAQAAAF9AQIDAAQRBRIhMUEGE1FhByJxFDKBkaEII0KxwRVS0fAkM2JyggkKFhcYGRolJicoKSo0NTY3ODk6Q0RFRkdISUpTVFVWV1hZWmNkZWZnaGlqc3R1dnd4eXqDhIWGh4iJipKTlJWWl5iZmqKjpKWmp6ipqrKztLW2t7i5usLDxMXGx8jJytLT1NXW19jZ2uHi4+Tl5ufo6erx8vP09fb3+Pn6/8QAHwEAAwEBAQEBAQEBAQAAAAAAAAECAwQFBgcICQoL/8QAtREAAgECBAQDBAcFBAQAAQJ3AAECAxEEBSExBhJBUQdhcRMiMoEIFEKRobHBCSMzUvAVYnLRChYkNOEl8RcYGRomJygpKjU2Nzg5OkNERUZHSElKU1RVVldYWVpjZGVmZ2hpanN0dXZ3eHl6goOEhYaHiImKkpOUlZaXmJmaoqOkpaanqKmqsrO0tba3uLm6wsPExcbHyMnK0tPU1dbX2Nna4uPk5ebn6Onq8vP09fb3+Pn6/9oADAMBAAIRAxEAPwD3+iiigAooooAKKKKACiiigAooooAKKKKACiiigAooooAKKKKACiiigAooooAKKKKACiiigAooooAKKKKACiiigAooooAKKKKACiiigAooooAKKKKACiiigAooooAKKKKACiiigAooooAKKKKACiiigAooooAKKKKACiiigAooooAKKKKACiiigAooooAKKKKACiiigAooooAKKKKACiiigAooooAKKKKACiiigAooooAKKKKACiiigAooooAKKKKACiiigAooooAKKKKACiiigAooooAKKKKACiiigAooooAKKKKACiiigAooooAKKKKACiiigAooooAKKKKACiiigAooooAKKKKACiiigAooooAKKKKACiiigAooooAKKKKACiiigAooooAKKKKACiiigAooooAKKKKACiiigAooooAKKKKACiiigAooooAKKKKACiiigAooooAKKKKACiiigAooooAKKKKACiiigAooooAKKKKACiiigAooooAKKKKACiiigAooooAKKKKACiiigAooooAKKKKACiiigAooooAKKKKACiiigAooooAKKKKACiiigAooooAKKKKACiiigAooooAKKKKACiiigAooooAKKKKACiiigAooooAKKKKACiiigAooooAKKKKACiiigAooooAKKKKACiiigAooooAKKKKACiiigAooooAKKKKACiiigAooooAKKKKACiiigAooooAKKKKACiiigAooooAKKKKACiiigAooooAKKKKACiiigAooooAKKKKACiiigAooooAKKKKACiiigAooooAKKKKACiiigAooooAKKKKACiiigAooooAKKKKACiiigAooooAKKKKACiiigAooooAKKKKACiiigAooooAKKKKACiiigAooooAKKKKACiiigAooooAKKKKACiiigAooooAKKKKACiiigAooooAKKKKACiiigAooooAKKKKACiiigAooooAKKKKACiiigAooooAKKKKACiiigAooooAKKKKACiiigAooooAKKKKACiiigAooooAKKKKACiiigAooooAKKKKACiiigAooooAKKKKACiiigAooooAKKKKACiiigAooooAKKKKACiiigAooooAKKKKACiiigAooooAKKKKACiiigAooooAKKKKACiiigAooooAKKKKACiiigAooooAKKKKACiiigAooooAKKKKACiiigAooooAKKKKACiiigAooooAKKKKACiiigAooooAKKKKACiiigAooooAKKKKACiiigAooooAKKKKACiiigAooooAKKKKACiiigAooooAKKKKACiiigAooooAKKKKACiiigAooooAKKKKACiiigAooooAKKKKACiiigAooooAKKKKACiiigAooooAKKKKACiiigAooooAKKKKACiiigAooooAKKKKACiiigAooooAKKKKACiiigAooooAKKKKACiiigAooooAKKKKACiiigAooooAKKKKACiiigAooooAKKKKACiiigAooooAKKKKACiiigAooooAKKKKACiiigAooooAKKKKACiiigAooooAKKKKACiiigAooooAKKKKACiiigAooooAKKKKACiiigAooooAKKKKACiiigAooooAKKKKACiiigAooooAKKKKACiiigAooooAKKKKACiiigAooooAKKKKACiiigAooooAKKKKACiiigAooooAKKKKACiiigAooooAKKKKACiiigAooooAKKKKACiiigAooooAKKKKACiiigAooooAKKKKACiiigAooooAKKKKACiiigAooooAKKKKACiiigAooooAKKKKACiiigAooooAKKKKACiiigAooooAKKKKACiiigAooooAKKKKACiiigAooooAKKKKACiiigAooooAKKKKACiiigAooooAKKKKACiiigAooooAKKKKACiiigAooooAKKKKACiiigAooooAKKKKACiiigAooooAKKKKACiiigAooooAKKKKACiiigAooooAKKKKACiiigAooooAKKKKACiiigAooooAKKKKACiiigAooooAKKKKACiiigAooooAKKKKACiiigAooooAKKKKACiiigAooooAKKKKACiiigAooooAKKKKACiiigAooooAKKKKACiiigAooooAKKKKACiiigAooooAKKKKACiiigAooooAKKKKACiiigAooooAKKKKACiiigAooooAKKKKACiiigAooooAKKKKACiiigAooooAKKKKACiiigAooooAKKKKACiiigAooooAKKKKACiiigAooooAKKKKACiiigAooooAKKKKACiiigAooooAKKKKACiiigAooooAKKKKACiiigAooooAKKKKACiiigAooooAKKKKACiiigAooooAKKKKACiiigAooooAKKKKACiiigAooooAKKKKACiiigAooooAKKKKACiiigAooooAKKKKACiiigAooooAKKKKACiiigAooooAKKKKACiiigAooooAKKKKACiiigAooooAKKKKACiiigAooooAKKKKACiiigAooooAKKKKACiiigAooooA+YP8Aho7xh/0DdD/78Tf/AB2j/ho7xh/0DdD/AO/E3/x2vH6KAPYP+GjvGH/QN0P/AL8Tf/HaP+GjvGH/AEDdD/78Tf8Ax2vH6KAPYP8Aho7xh/0DdD/78Tf/AB2j/ho7xh/0DdD/AO/E3/x2vH6KAPYP+GjvGH/QN0P/AL8Tf/HaP+GjvGH/AEDdD/78Tf8Ax2vH6KAPYP8Aho7xh/0DdD/78Tf/AB2j/ho7xh/0DdD/AO/E3/x2vH6KAPYP+GjvGH/QN0P/AL8Tf/HaP+GjvGH/AEDdD/78Tf8Ax2vH6KAPYP8Aho7xh/0DdD/78Tf/AB2j/ho7xh/0DdD/AO/E3/x2vH6KAPYP+GjvGH/QN0P/AL8Tf/HaP+GjvGH/AEDdD/78Tf8Ax2vH6KAPYP8Aho7xh/0DdD/78Tf/AB2j/ho7xh/0DdD/AO/E3/x2vH6KAPYP+GjvGH/QN0P/AL8Tf/HaP+GjvGH/AEDdD/78Tf8Ax2vH6KAPYP8Aho7xh/0DdD/78Tf/AB2j/ho7xh/0DdD/AO/E3/x2vH6KAPYP+GjvGH/QN0P/AL8Tf/HaP+GjvGH/AEDdD/78Tf8Ax2vH6KAPYP8Aho7xh/0DdD/78Tf/AB2j/ho7xh/0DdD/AO/E3/x2vH6KAPYP+GjvGH/QN0P/AL8Tf/HaP+GjvGH/AEDdD/78Tf8Ax2vH6KAPYP8Aho7xh/0DdD/78Tf/AB2j/ho7xh/0DdD/AO/E3/x2vH6KAPYP+GjvGH/QN0P/AL8Tf/HaP+GjvGH/AEDdD/78Tf8Ax2vH6KAPYP8Aho7xh/0DdD/78Tf/AB2j/ho7xh/0DdD/AO/E3/x2vH6KAPYP+GjvGH/QN0P/AL8Tf/HaP+GjvGH/AEDdD/78Tf8Ax2vH6KAPYP8Aho7xh/0DdD/78Tf/AB2j/ho7xh/0DdD/AO/E3/x2vH6KAPYP+GjvGH/QN0P/AL8Tf/HaP+GjvGH/AEDdD/78Tf8Ax2vH6KAPYP8Aho7xh/0DdD/78Tf/AB2j/ho7xh/0DdD/AO/E3/x2vH6KAPYP+GjvGH/QN0P/AL8Tf/HaP+GjvGH/AEDdD/78Tf8Ax2vH6KAPYP8Aho7xh/0DdD/78Tf/AB2j/ho7xh/0DdD/AO/E3/x2vH6KAPYP+GjvGH/QN0P/AL8Tf/HaP+GjvGH/AEDdD/78Tf8Ax2uX+Hfw+vPF3iPTYr/TtVj0K683ffwQEINqPjEhUr99Qv6dar678OvElj4h1Oz07w5rlxYwXcsVvN9hkfzI1chW3BcHIAORwaAOw/4aO8Yf9A3Q/wDvxN/8do/4aO8Yf9A3Q/8AvxN/8drye+sLzTLySzv7Se0uo8b4Z4zG65AIyp5GQQfxqvQB7B/w0d4w/wCgbof/AH4m/wDjtH/DR3jD/oG6H/34m/8AjteP0UAewf8ADR3jD/oG6H/34m/+O0f8NHeMP+gbof8A34m/+O14/RQB7B/w0d4w/wCgbof/AH4m/wDjtH/DR3jD/oG6H/34m/8AjteP0UAewf8ADR3jD/oG6H/34m/+O0f8NHeMP+gbof8A34m/+O14/RQB7B/w0d4w/wCgbof/AH4m/wDjtH/DR3jD/oG6H/34m/8AjteP0UAewf8ADR3jD/oG6H/34m/+O0f8NHeMP+gbof8A34m/+O14/RQB9/0UUUAFFFFABRRRQAUUUUAFFFFABRRRQAUUUUAFFFFABRRRQB8AUUUUAFFFFABRRRQAUUUUAFFFFABRRRQAUV7/APsy/wDM0/8Abp/7Wr0Txr8JtB8eazDqmqXepQzxW626rayIqlQzNk7kY5y57+lAHx5RX0nq37Ovh6HRr6XS7vWZ9QS3ka1ikuIQryhTsU/uxwWwOo+oryz/AIUl8Q/+he/8nbf/AOOUAef0V0HifwT4i8HfZf7f0/7H9q3+T++jk3bcbvuMcY3L19a5+gAooooAKKKKACiiigAoor1z4E+CtN8Uazd6pez3cc+i3FpcWywuoV23O2HypJGYx0I6mgDQ+EPwhg8QWsXiHxDDaXmi3dvIsFus8qSrKsu3c23aMYR/4j1HHp5X4ssbfTPGWuWFnH5dra6hcQwpuJ2osjBRk8nAA619z18QeO/+Sh+Jf+wrdf8Ao1qAOfooooAKKKKACiiigAooooAKKKKACiiigAooooAKKKKACtjwnY2+p+MtDsLyPzLW61C3hmTcRuRpFDDI5GQT0rHr0T4QWXhS58VW8viDU7u01CG9tW0qKFSVnl3n5XwjYG4RjqvU8+gB9V6JomneHNHg0nSbf7PYwbvLi3s+3cxY8sSTySeTXnerfH3wro2s32l3Gn6y09lcSW8jRwxFSyMVJGZAcZHoK1Pjb/ySHXf+3f8A9KI6+QKAPpPRZ/hf8XvGN6zeG9SbVGt/tE091K0SsqbIwAI5iM4K9h0NeOeOvhxrHw/+wf2tc2M327zPL+yO7Y2bc53Kv98dM964+vt/x3/yTzxL/wBgq6/9FNQB8QUUUUAFFFdR8O/Ddn4u8d6bod/JPHa3Xm73gYBxtidxgkEdVHagDl6K+k9W/Z18PQ6NfS6Xd6zPqCW8jWsUlxCFeUKdin92OC2B1H1FeWf8KS+If/Qvf+Ttv/8AHKAPP6KsX9jcaZqNzYXkfl3VrK8MybgdrqSGGRwcEHpVegAooooAKKKKAPv+iiigAooooAKKKKACiiigAooooAKKKKACiiigAooooAKKKKAPgCiivSPgp4p0bwj4yvL/AFy8+yWsmnvCr+U8mXMkZAwgJ6KfyoA9T8FfAbR7HRpovGFjaahqBuGaOW1u51URbVwpxs53Bj07jn05DVv2dfEM2s30ul3ejQae9xI1rFJcTFkiLHYp/dnkLgdT9TXo/wAUfGHjfwcTqOiaRptxoMNujXN1dZLJK0hTaFEikjlOinqefTzjSf2ivEM2s2MWqWmjQae9xGt1LHbzFkiLDew/eHkLk9D9DQB5v418Fal4D1mHS9UntJp5bdbhWtXZlClmXB3KpzlD29K5uvs+WXw18W/Bd/ZWWozzaZNKsM00CNE6uhSTA8xP93setfLnj3wJqfgjWZIru1ki0+e4mXT5ZJo3aaJGGGO08HayHkDr0oA5OiiigAooooAKKKKAPsf4WeFtG0Hwbpt/pln5F1qmn2s14/mu3mv5ec4YkDl26Y61h/F74ojwday6JpzXcGvT28dxbXKwxvEimXDBtxPO1HH3T1H4fKlFAHpmk/HHxrDrNjLqmtST6elxG11FHZ24Z4gw3qPkHJXI6j6ivU/+GjvB/wD0Ddc/78Q//Ha+YK9I+Hfwl1bxdeabf39nPH4auvN33kFxEHG0OBhSSfvqB93/ABoA+i9Q8NeF/iVo2j6pq2mSXMDW4uLVZJniaNZVViD5bAZwF7npxXgHxesPAfh+6l8PeHtEu7PWrS4jae4aV3iaJot21d0jHOXT+EdDz6/Rd/8A8Ud8PLn+zv3v9jaU/wBn+0fNu8mI7d+MZztGcY/CvjjxT4kvPF3iO71y/jgjurrZvSBSEG1FQYBJPRR3oAx6KKKACiiigAooooA2PC3hu88XeI7TQ7CSCO6ut+x52IQbUZzkgE9FPavqPT/CVp8NfhprF3pMMdtrS6OZLq5jkeVZLiKFiHAkyMbixxgDnkdq8c+BXhbWbvxtpviWCz36RaSzwz3HmoNjmBgBtJ3H769B3+tel/Hay8KXOjWkviDU7u01CG3u20qKFSVnl2p8r4RsDcIx1XqefQA6z4W63qPiP4caTq2rXH2i+n87zJdipu2zOo4UADgAcCvlDx3/AMlD8S/9hW6/9GtX0P8AArxTo134J03w1Beb9XtIp5p7fynGxDOxB3EbT99eh7/WvKPHfwt8Zf8ACQ+Jdf8A7G/4ln2u6vfP+1Q/6nez7tu/d93nGM+1AHl9FFFABRRRQAUVseG/C2s+LtRksNDs/td1HEZmTzUjwgIBOXIHVh+dfT/hb4KeG/CPiO01ywvdVkurXfsSeWModyMhyBGD0Y96APkiivtvxJ4K03xRrOhapez3cc+i3H2i2WF1Cu25Gw+VJIzGOhHU1c8U+G7Pxd4cu9Dv5J47W62b3gYBxtdXGCQR1UdqAPhiivUPjB8ONH+H/wDY39k3N9N9u8/zPtbo2Nnl4xtVf75657V5fQAUUUUAFFFFABRRRQAVqeGtSh0bxVpGqXCyNBZXsNxIsYBYqjhiBkgZwPUVl0UAekfET4tat4uvNSsLC8nj8NXXlbLOe3iDjaEJywBP31J+9/hXm9FFAHSeCvBWpePNZm0vS57SGeK3a4Zrp2VSoZVwNqsc5cdvWvrvx3/yTzxL/wBgq6/9FNXjH7PPhbWbTWpPEs9ns0i70+WGC481DvcTICNoO4fcbqO30rf/AGgvC2s69p2lX+mWfn2ulxXc14/movlJiM5wxBPCN0z0oA+aKK7DRPhb4y8R6PBq2k6N9osZ93ly/aoU3bWKnhnBHII5FY/iTwtrPhHUY7DXLP7JdSRCZU81JMoSQDlCR1U/lQBj19D/ALPPhbRrvRZPEs9nv1e01CWGC481xsQwoCNoO0/fbqO/0r54r7b8FeCtN8B6NNpelz3c0Etw1wzXTqzBiqrgbVUYwg7etAHhGrfGPxbo3xLvrS41aRtFstYkjkto7WAsbdJiCgJUHO0YzkH3716n4W+Nfhvxd4jtNDsLLVY7q637HnijCDajOckSE9FPavGPHfwt8Zf8JD4l1/8Asb/iWfa7q98/7VD/AKnez7tu/d93nGM+1eX0AfY9/wDCDwJqeo3N/eaF5l1dSvNM/wBrnG52JLHAfAySeleGfF74XHwddS63py2kGgz3EdvbWyzSPKjGLLFtwPG5HP3j1H4eb6TqU2jazY6pbrG09lcR3EayAlSyMGAOCDjI9RVzxT4kvPF3iO71y/jgjurrZvSBSEG1FQYBJPRR3oAx6KKKACiiigD7/ooooAKKKKACiiigAooooAKKKKACiiigAooooAKKKKACiiigD4AorqPh34bs/F3jvTdDv5J47W683e8DAONsTuMEgjqo7V9JwfE74feE7eLw4+vyK+koLFlktZmYGIbMErHgn5eo49KANz4ieG7zxd4E1LQ7CSCO6uvK2POxCDbKjnJAJ6Ke1fGmrabNo2s32l3DRtPZXElvI0ZJUsjFSRkA4yPQV738O/jX4k8XeO9N0O/stKjtbrzd7wRSBxtidxgmQjqo7V7xQB84fAHQPElxfQa5bav5Xh62u5orqw+0yL5shhGG8sDY3LpyTn5fYVf/AGmv+ZW/7e//AGjUn7QXjXUrGY+D4oLQ6ff2UVxLIyN5oYTMcKd2Mfu16g9T+Hz5QAUUUUAFFFFABRRRQAUUUUAFe/8AwS8K+MP+JF4h/t7/AIpn/SP+Jb9sm/6aJ/qsbP8AWfN19+tbH7PvhbWdB07Vb/U7PyLXVIrSazfzUbzUxIc4Ukjh16461Y+Nvjbw7/wiGu+FP7Q/4nf+j/6L5Mn/AD0jk+/t2/c56+3WgDc+L/jXTfC/hW40u9gu5J9asrq3tmhRSqNsC5fLAgZkHQHoa+RKKKACiiigAooooAKuaTps2s6zY6XbtGs97cR28bSEhQzsFBOATjJ9DVOvf/2Zf+Zp/wC3T/2tQB6J8JvBWpeA/Ct1peqT2k08t69wrWrsyhSiLg7lU5yh7eleMfHbxrpvijWbTS7KC7jn0W4u7e5aZFCu25FymGJIzGeoHUV9R15Xq3wC8K6zrN9qlxqGsrPe3ElxIsc0QUM7FiBmMnGT6mgDwT4caB4k8R+Ibiz8L6v/AGXfJaNK832mSDdGHQFd0YJPJU46ce1fVc+h6ldfDSXw/cXUc2qS6ObKS4kkZleYw7C5YjcQW5zjPtVzwt4bs/CPhy00OwknktbXfsedgXO52c5IAHVj2rh/jB8R9Y+H/wDY39k21jN9u8/zPtaO2Nnl4xtZf75657UAeGeNfhNr3gPRodU1S702aCW4W3VbWR2YMVZsncijGEPf0rg62PFPiS88XeI7vXL+OCO6utm9IFIQbUVBgEk9FHesegAoor0D4Jf8le0L/t4/9J5KAOg/Zx/5KHqH/YKk/wDRsVeh/Gz4iQ+HtJufDdpJqVtrV3bxXFvd2rBFjXzuQXDBgSI3HA7j1NeuV5vfeLvAPxQs5PBsOuzySajjCwW8kbnyyJeGePaPud/50AfNH/Cd+MP+hr1z/wAGM3/xVdB4J+KGsaJ4vsdR1/XNcv8ATIfM862+1vLvzGyr8ruFOGKnn0rqPiT8Dz4d06G/8LpfXtrDFPNqD3dxD+5RApBAwpPG/pnoPx8XoA6Dxj4ovPFPiG+vJb6+nsWu5pbKG7lLeRG75ChckLwFGBxwPSufoooAKKKKACiiigAooooAKKKKACiivXPgT4K03xRrN3ql7Pdxz6LcWlxbLC6hXbc7YfKkkZjHQjqaAOz+AOgeJLexg1y51fzfD1zaTRWth9pkbypBMMt5ZGxeUfkHPze5qP8AaO1bUtPt9At7LULu2gu0u0uY4ZmRZlxEMOAcMMMRg+p9a9Q8a3viux0aGXwfplpqGoG4VZIrpgqiLa2WGXTncFHXuePTj9J+AXhXRtZsdUt9Q1lp7K4juI1kmiKlkYMAcRg4yPUUAanwS/5JDoX/AG8f+lEleQftHf8AJQ9P/wCwVH/6Nlr2/W/il4N8OaxPpOraz9nvoNvmRfZZn27lDDlUIPBB4NfKnjXxrqXjzWYdU1SC0hnit1t1W1RlUqGZsnczHOXPf0oA5uvqv4BatqWs+Bb641TULu+nXU5EWS6maVgvlRHALEnGSTj3NfKlFAH33PBDdW8tvcRRzQSoUkjkUMrqRggg8EEcYrg/G3wv0fW/CF9p2gaHodhqc3l+Tc/ZEi2YkVm+ZELDKhhx618maTqU2jazY6pbrG09lcR3EayAlSyMGAOCDjI9RX1v8JvGupePPCt1qmqQWkM8V69uq2qMqlQiNk7mY5y57+lAHzZ46+HGsfD/AOwf2tc2M327zPL+yO7Y2bc53Kv98dM964+vf/2mv+ZW/wC3v/2jXgFABRRRQAUUUUAff9FFFABRRRQAUUUUAFFFFABRRRQAUUUUAFFFFABRRRQAUUUUAeJ/s66Tps3hC61SXT7R9Qh1OVIrtoVMqL5MfCvjIHzNwD3PrXhnjv8A5KH4l/7Ct1/6NavRPgN411Kx8RWfg+KC0On39xNcSyMjeaGEBOFO7GP3a9Qep/D3fxr4K03x5o0Ol6pPdwwRXC3CtauqsWCsuDuVhjDnt6UAfFljf3mmXkd5YXc9pdR52TQSGN1yCDhhyMgkfjX1X8HPiDN410aayuLOSOfSLe2ikuZLkytdMVYFzlQQSY89T97r65f/AAzj4P8A+glrn/f+H/41XpkEdj4T8KxRPNIun6TZBWlkG5hFEn3jtHJ2rngfQUAfOn7R3/JQ9P8A+wVH/wCjZa8fr0j41+KdG8XeMrO/0O8+12senpCz+U8eHEkhIw4B6MPzrzegAooooAKKKKACiiigAruPhBYWep/FLRrO/tILu1k8/fDPGJEbEEhGVPBwQD+FcPX3/QBz/iz/AIlfw81z+zv9D+y6VcfZ/s/7vydsTbdmMbcYGMdMV8UX1/eaneSXl/dz3d1JjfNPIZHbAAGWPJwAB+Fd58X/ABrqXijxVcaXewWkcGi3t1b2zQowZ13hcvliCcRjoB1Ned0AFFFFABRRRQAUUUUAFegfDL4m/wDCuf7U/wCJR/aH2/yv+Xnytmzf/sNnO/26V5/RQB7/AP8ADTX/AFKP/lS/+1V5Zq3xH8VajrN9e2/iDWbOC4uJJY7aPUZdsKsxIQYIGADjoOnQVydfRfhr4BeFdZ8K6RqlxqGsrPe2UNxIsc0QUM6BiBmMnGT6mgDY+Cela9daTbeLNU8WalqMF9byxLp91I7rEyzbd4ZnIJxGf4R948+u58Tfhl/wsb+y/wDib/2f9g83/l283fv2f7a4xs9+tSeCvhNoPgPWZtU0u71KaeW3a3ZbqRGUKWVsjainOUHf1rzDxL8ffFWjeKtX0u30/Rmgsr2a3jaSGUsVRyoJxIBnA9BQBzfxH+D/APwr/wAPW+rf279v867W28r7J5WMo7bs72/uYxjvXl9d541+LOvePNGh0vVLTTYYIrhbhWtY3ViwVlwdzsMYc9vSuDoAK+k/2ddJ02bwhdapLp9o+oQ6nKkV20KmVF8mPhXxkD5m4B7n1r5srsPhbreneHPiPpOratcfZ7GDzvMl2M+3dC6jhQSeSBwKALnjTxp4qtfHXiG3t/EuswwRancpHHHfyqqKJWAAAbAAHGKw/BPif/hDvF9jr/2P7Z9l8z9x5vl7t0bJ97Bxjdnp2r6P+Lmiaj8QPh5pX/CL2/2/zruG9T51izCYpMN+8K/314689K8Q/wCFJfEP/oXv/J23/wDjlAH0/wD8jr8PP+fL+29K/wCunk+dF+G7G72zjtXyh8R/Av8Awr/xDb6T/aP2/wA60W583yPKxl3Xbjc39zOc96+k/hf8PLbwJoxlV7sahqNvbtfRTSI6xSqp3Km0Djc7Dqeg59fHP2jv+Sh6f/2Co/8A0bLQB4/RRRQAUUUUAFFFFABRRRQAUUUUAFe//sy/8zT/ANun/tavAKKAPp/xt8dP+EO8X32gf8I59s+y+X+/+3eXu3Rq/wB3yzjG7HXtXgH/AAnfjD/oa9c/8GM3/wAVXP0UAWL6/vNTvJLy/u57u6kxvmnkMjtgADLHk4AA/CvSPhx8H/8AhYHh641b+3fsHk3bW3lfZPNzhEbdnev9/GMdq8vr1T4Q3/gPw/dReIfEOt3dnrVpcSLBbrE7xNE0W3c22NjnLv8AxDoOPUA4vxt4Y/4Q7xffaB9s+2fZfL/f+V5e7dGr/dycY3Y69q5+vsvWtF8OfF7wdZMt/dtpbXH2iGe1HlMzJvjIIkQnGS3YdBXzp/wpL4h/9C9/5O2//wAcoA4/QtM/tvxDpmk+d5P267itvN27tm9wu7GRnGc4yK+v/hx4F/4V/wCHrjSf7R+3+ddtc+b5HlYyiLtxub+5nOe9fPmk/A7xrNrNjFqmiyQae9xGt1LHeW5ZIiw3sPnPIXJ6H6Gvo/wV4K03wHo02l6XPdzQS3DXDNdOrMGKquBtVRjCDt60AeR/tNf8yt/29/8AtGvAK9o/aC8U6Nr2o6VYaZeefdaXLdw3ieU6+U+YxjLAA8o3TPSvF6ACiiigAooooA+/6KKKACiiigAooooAKKKKACiiigAooooAKKKKACiiigAooooA+CLG/vNMvI7ywu57S6jzsmgkMbrkEHDDkZBI/Gtj/hO/GH/Q165/4MZv/iq5+igDuPC3xT8SaD4jtNTv9V1XVrWHfvsp9Rk2S5RlGc7hwSD0PStT4g/GPUvGtvaW9lBd6LBGkqXMcN+zLdK4UYcBVBAAIwc/eP4+Z0UAFFFFABRRRQAUUUUAFFFFAHYeBfGGj+FPt/8Aa3hKx1/7T5fl/ayn7jbuzjdG/wB7cOmPujrXceKf2grzXvDl3plho8+k3U2zZewakd8WHVjjCKeQCOo614vRQBJPPNdXEtxcSyTTyuXkkkYszsTkkk8kk85qOiigAooooAKKKKACiiigAooooAK9A1z4r6xqHh7w7pOkyX2jf2RaC2kltL91+1YRFDEKFxjYTgk/eP4+f0UAdB/wnfjD/oa9c/8ABjN/8VWHPPNdXEtxcSyTTyuXkkkYszsTkkk8kk85qOigAooooAKKKKAPQPAXxX1jwbqJlvJL7V7FbT7NDYzX7rHFyu1lBDAYClQABwa7/wD4aa/6lH/ypf8A2qvAKKAPpfx18a7O18G2H9krBPfa1p8nmfZNRHmaZI0a4ztUncC567TlD+HzpqWralrNwtxqmoXd9OqBFkupmlYLknALEnGSTj3NU6KACiiigAooooAKKKKACiiigAooooAKKKKACiiigAooooA7z4efFDUvAl6zSi71LTxbvFFp7XrRxRMzq29VwwB4boP4jz6+h/8ADTX/AFKP/lS/+1V4BRQB7/8A8NNf9Sj/AOVL/wC1Uf8ADTX/AFKP/lS/+1V4BRQBoa7qf9t+IdT1byfJ+3Xctz5W7ds3uW25wM4zjOBWfRRQAUUUUAFFFFAH3/RRRQAUUUUAFFFFABRRRQAUUUUAFFFFABRRRQAUUUUAFFFFAHP/APCCeD/+hU0P/wAF0P8A8TR/wgng/wD6FTQ//BdD/wDE10FFAHP/APCCeD/+hU0P/wAF0P8A8TR/wgng/wD6FTQ//BdD/wDE10FFAHP/APCCeD/+hU0P/wAF0P8A8TR/wgng/wD6FTQ//BdD/wDE10FFAHP/APCCeD/+hU0P/wAF0P8A8TR/wgng/wD6FTQ//BdD/wDE10FFAHP/APCCeD/+hU0P/wAF0P8A8TR/wgng/wD6FTQ//BdD/wDE10FFAHP/APCCeD/+hU0P/wAF0P8A8TR/wgng/wD6FTQ//BdD/wDE10FFAHP/APCCeD/+hU0P/wAF0P8A8TR/wgng/wD6FTQ//BdD/wDE10FFAHP/APCCeD/+hU0P/wAF0P8A8TR/wgng/wD6FTQ//BdD/wDE10FFAHP/APCCeD/+hU0P/wAF0P8A8TR/wgng/wD6FTQ//BdD/wDE10FFAHP/APCCeD/+hU0P/wAF0P8A8TR/wgng/wD6FTQ//BdD/wDE10FFAHP/APCCeD/+hU0P/wAF0P8A8TR/wgng/wD6FTQ//BdD/wDE10FFAHP/APCCeD/+hU0P/wAF0P8A8TR/wgng/wD6FTQ//BdD/wDE10FFAHP/APCCeD/+hU0P/wAF0P8A8TR/wgng/wD6FTQ//BdD/wDE10FFAHP/APCCeD/+hU0P/wAF0P8A8TR/wgng/wD6FTQ//BdD/wDE10FFAHP/APCCeD/+hU0P/wAF0P8A8TR/wgng/wD6FTQ//BdD/wDE10FFAHP/APCCeD/+hU0P/wAF0P8A8TR/wgng/wD6FTQ//BdD/wDE10FFAHP/APCCeD/+hU0P/wAF0P8A8TR/wgng/wD6FTQ//BdD/wDE10FFAHP/APCCeD/+hU0P/wAF0P8A8TR/wgng/wD6FTQ//BdD/wDE10FFAHP/APCCeD/+hU0P/wAF0P8A8TR/wgng/wD6FTQ//BdD/wDE10FFAHP/APCCeD/+hU0P/wAF0P8A8TR/wgng/wD6FTQ//BdD/wDE10FFAHP/APCCeD/+hU0P/wAF0P8A8TR/wgng/wD6FTQ//BdD/wDE10FFAHP/APCCeD/+hU0P/wAF0P8A8TR/wgng/wD6FTQ//BdD/wDE10FFAHP/APCCeD/+hU0P/wAF0P8A8TR/wgng/wD6FTQ//BdD/wDE10FFAHP/APCCeD/+hU0P/wAF0P8A8TR/wgng/wD6FTQ//BdD/wDE10FFAHP/APCCeD/+hU0P/wAF0P8A8TR/wgng/wD6FTQ//BdD/wDE10FFAHP/APCCeD/+hU0P/wAF0P8A8TR/wgng/wD6FTQ//BdD/wDE10FFAHP/APCCeD/+hU0P/wAF0P8A8TR/wgng/wD6FTQ//BdD/wDE10FFAHP/APCCeD/+hU0P/wAF0P8A8TR/wgng/wD6FTQ//BdD/wDE10FFAHP/APCCeD/+hU0P/wAF0P8A8TR/wgng/wD6FTQ//BdD/wDE10FFAHP/APCCeD/+hU0P/wAF0P8A8TR/wgng/wD6FTQ//BdD/wDE10FFAHP/APCCeD/+hU0P/wAF0P8A8TR/wgng/wD6FTQ//BdD/wDE10FFABRRRQAUUUUAFFFFABRRRQAUUUUAFFFFABRRRQAUUUUAFFFFABRRRQAUUUUAFFFFABRRRQAUUUUAFFFFABRRRQAUUUUAFFFFABRRRQAUUUUAFFFFABRRRQAUUUUAFFFFABRRRQAUUUUAFFFFABRRRQAUUUUAFFFFABRRRQAUUUUAFFFFABRRRQAUUUUAFFFFABRRRQAUUUUAFFFFABRRRQAUUUUAFFFFABRRRQAUUUUAFFFFABRRRQAUUUUAFFFFABRRRQAUUUUAFFFFABRRRQAUUUUAFFFFABRRRQAUUUUAFFFFABRRRQAUUUUAFFFFABRRRQAUUUUAFFFFABRRRQAUUUUAFFFFABRRRQAUUUUAFFFFABRRRQAUUUUAFFFFABRRRQAUUUUAFFFFABRRRQAUUUUAFFFFABRRRQAUUUUAFFFFABRRRQAUUUUAFFFFABRRRQAUUUUAFFFFABRRRQAUUUUAFFFFABRRRQAUUUUAFFFFABRRRQAUUUUAFFFFABRRRQAUUUUAFFFFABRRRQAUUUUAFFFFABRRRQAUUUUAFFFFABRRRQAUUUUAFFFFABRRRQAUUUUAFFFFABRRRQAUUUUAFFFFABRRRQAUUUUAFFFFABRRRQAUUUUAFFFFABRRRQAUUUUAFFFFABRRRQAUUUUAFFFFABRRRQAUUUUAFFFFABRRRQAUUUUAFFFFABRRRQAUUUUAFFFFABRRRQAUUUUAFFFFABRRRQAUUUUAFFFFABRRRQAUUUUAFFFFABRRRQAUUUUAFFFFABRRRQAUUUUAFFFFABRRRQAUUUUAFFFFABRRRQAUUUUAFFFFABRRRQAUUUUAFFFFABRRRQAUUUUAFFFFABRRRQAUUUUAFFFFABRRRQAUUUUAFFFFABRRRQAUUUUAFFFFABRRRQAUUUUAFFFFABRRRQAUUUUAFFFFABRRRQAUUUUAFFFFABRRRQAUUUUAFFFFABRRRQAUUUUAFFFFABRRRQAUUUUAFFFFABRRRQAUUUUAFFFFABRRRQAUUUUAFFFFABRRRQAUUUUAFFFFABRRRQAUUUUAFFFFABRRRQAUUUUAFFFFABRRRQAUUUUAFFFFABRRRQAUUUUAFFFFABRRRQAUUUUAFFFFABRRRQAUUUUAFFFFABRRRQAUUUUAFFFFABRRRQAUUUUAFFFFABRRRQAUUUUAFFFFABRRRQAUUUUAFFFFABRRRQAUUUUAFFFFABRRRQAUUUUAFFFFABRRRQAUUUUAFFFFABRRRQAUUUUAFFFFABRRRQAUUUUAFFFFABRRRQAUUUUAFFFFABRRRQAUUUUAFFFFABRRRQAUUUUAFFFFABRRRQAUUUUAFFFFABRRRQAUUUUAFFFFABRRRQAUUUUAFFFFABRRRQAUUUUAFFFFABRRRQAUUUUAFFFFABRRRQAUUUUAFFFFABRRRQAUUUUAFFFFABRRRQAUUUUAFFFFABRRRQAUUUUAFFFFABRRRQAUUUUAFFFFABRRRQAUUUUAFFFFABRRRQAUUUUAFFFFABRRRQAUUUUAFFFFABRRRQAUUUUAFFFFABRRRQAUUUUAFFFFABRRRQAUUUUAFFFFABRRRQAUUUUAFFFFABRRRQAUUUUAFFFFABRRRQAUUUUAFFFFABRRRQAUUUUAFFFFABRRRQAUUUUAFFFFABRRRQAUUUUAFFFFABRRRQAUUUUAFFFFABRRRQAUUUUAFFFFABRRRQAUUUUAFFFFABRRRQAUUUUAFFFFABRRRQAUUUUAFFFFABRRRQAUUUUAFFFFABRRRQAUUUUAFFFFABRRRQAUUUUAFFFFABRRRQAUUUUAFFFFABRRRQAUUUUAFFFFABRRRQAUUUUAFFFFABRRRQAUUUUAFFFFABRRRQAUUUUAFFFFABRRRQAUUUUAFFFFABRRRQAUUUUAFFFFABRRRQAUUUUAFFFFABRRRQAUUUUAFFFFABRRRQAUUUUAFFFFABRRRQAUUUUAFFFFABRRRQAUUUUAFFFFABRRRQAUUUUAFFFFABRRRQAUUUUAFFFFABRRRQAUUUUAFFFFABRRRQAUUUUAFFFFABRRRQAUUUUAFFFFABRRRQAUUUUAFFFFABRRRQAUUUUAFFFFABRRRQAUUUUAFFFFABRRRQAUUUUAFFFFABRRRQAUUUUAFFFFABRRRQAUUUUAFFFFABRRRQAUUUUAFFFFABRRRQAUUUUAFFFFABRRRQAUUUUAFFFFABRRRQAUUUUAFFFFABRRRQAUUUUAFFFFABRRRQAUUUUAFFFFABRRRQAUUUUAFFFFABRRRQAUUUUAFFFFABRRRQAUUUUAFFFFABRRRQAUUUUAFFFFABRRRQAUUUUAFFFFAH//2Q==;clipPath=inset(40.22% 10% 40.22% 12.33%);" vertex="1" parent="1">
          <mxGeometry x="780" y="110" width="300" height="60" as="geometry" />
        </mxCell>
        <mxCell id="8h9t13kz1k91gfvvCFST-5" value="" style="shape=image;imageAspect=0;verticalLabelPosition=bottom;verticalAlign=top;image=data:image/jpeg,/9j/4AAQSkZJRgABAQEAZABkAAD/2wBDAAgGBgcGBQgHBwcJCQgKDBQNDAsLDBkSEw8UHRofHh0aHBwgJC4nICIsIxwcKDcpLDAxNDQ0Hyc5PTgyPC4zNDL/2wBDAQkJCQwLDBgNDRgyIRwhMjIyMjIyMjIyMjIyMjIyMjIyMjIyMjIyMjIyMjIyMjIyMjIyMjIyMjIyMjIyMjIyMjL/wAARCAHgAoADASIAAhEBAxEB/8QAHwAAAQUBAQEBAQEAAAAAAAAAAAECAwQFBgcICQoL/8QAtRAAAgEDAwIEAwUFBAQAAAF9AQIDAAQRBRIhMUEGE1FhByJxFDKBkaEII0KxwRVS0fAkM2JyggkKFhcYGRolJicoKSo0NTY3ODk6Q0RFRkdISUpTVFVWV1hZWmNkZWZnaGlqc3R1dnd4eXqDhIWGh4iJipKTlJWWl5iZmqKjpKWmp6ipqrKztLW2t7i5usLDxMXGx8jJytLT1NXW19jZ2uHi4+Tl5ufo6erx8vP09fb3+Pn6/8QAHwEAAwEBAQEBAQEBAQAAAAAAAAECAwQFBgcICQoL/8QAtREAAgECBAQDBAcFBAQAAQJ3AAECAxEEBSExBhJBUQdhcRMiMoEIFEKRobHBCSMzUvAVYnLRChYkNOEl8RcYGRomJygpKjU2Nzg5OkNERUZHSElKU1RVVldYWVpjZGVmZ2hpanN0dXZ3eHl6goOEhYaHiImKkpOUlZaXmJmaoqOkpaanqKmqsrO0tba3uLm6wsPExcbHyMnK0tPU1dbX2Nna4uPk5ebn6Onq8vP09fb3+Pn6/9oADAMBAAIRAxEAPwD3+iiigAooooAKKKKACiiigAooooAKKKKACiiigAooooAKKKKACiiigAooooAKKKKACiiigAooooAKKKKACiiigAooooAKKKKACiiigAooooAKKKKACiiigAooooAKKKKACiiigAooooAKKKKACiiigAooooAKKKKACiiigAooooAKKKKACiiigAooooAKKKKACiiigAooooAKKKKACiiigAooooAKKKKACiiigAooooAKKKKACiiigAooooAKKKKACiiigAooooAKKKKACiiigAooooAKKKKACiiigAooooAKKKKACiiigAooooAKKKKACiiigAooooAKKKKACiiigAooooAKKKKACiiigAooooAKKKKACiiigAooooAKKKKACiiigAooooAKKKKACiiigAooooAKKKKACiiigAooooAKKKKACiiigAooooAKKKKACiiigAooooAKKKKACiiigAooooAKKKKACiiigAooooAKKKKACiiigAooooAKKKKACiiigAooooAKKKKACiiigAooooAKKKKACiiigAooooAKKKKACiiigAooooAKKKKACiiigAooooAKKKKACiiigAooooAKKKKACiiigAooooAKKKKACiiigAooooAKKKKACiiigAooooAKKKKACiiigAooooAKKKKACiiigAooooAKKKKACiiigAooooAKKKKACiiigAooooAKKKKACiiigAooooAKKKKACiiigAooooAKKKKACiiigAooooAKKKKACiiigAooooAKKKKACiiigAooooAKKKKACiiigAooooAKKKKACiiigAooooAKKKKACiiigAooooAKKKKACiiigAooooAKKKKACiiigAooooAKKKKACiiigAooooAKKKKACiiigAooooAKKKKACiiigAooooAKKKKACiiigAooooAKKKKACiiigAooooAKKKKACiiigAooooAKKKKACiiigAooooAKKKKACiiigAooooAKKKKACiiigAooooAKKKKACiiigAooooAKKKKACiiigAooooAKKKKACiiigAooooAKKKKACiiigAooooAKKKKACiiigAooooAKKKKACiiigAooooAKKKKACiiigAooooAKKKKACiiigAooooAKKKKACiiigAooooAKKKKACiiigAooooAKKKKACiiigAooooAKKKKACiiigAooooAKKKKACiiigAooooAKKKKACiiigAooooAKKKKACiiigAooooAKKKKACiiigAooooAKKKKACiiigAooooAKKKKACiiigAooooAKKKKACiiigAooooAKKKKACiiigAooooAKKKKACiiigAooooAKKKKACiiigAooooAKKKKACiiigAooooAKKKKACiiigAooooAKKKKACiiigAooooAKKKKACiiigAooooAKKKKACiiigAooooAKKKKACiiigAooooAKKKKACiiigAooooAKKKKACiiigAooooAKKKKACiiigAooooAKKKKACiiigAooooAKKKKACiiigAooooAKKKKACiiigAooooAKKKKACiiigAooooAKKKKACiiigAooooAKKKKACiiigAooooAKKKKACiiigAooooAKKKKACiiigAooooAKKKKACiiigAooooAKKKKACiiigAooooAKKKKACiiigAooooAKKKKACiiigAooooAKKKKACiiigAooooAKKKKACiiigAooooAKKKKACiiigAooooAKKKKACiiigAooooAKKKKACiiigAooooAKKKKACiiigAooooAKKKKACiiigAooooAKKKKACiiigAooooAKKKKACiiigAooooAKKKKACiiigAooooAKKKKACiiigAooooAKKKKACiiigAooooAKKKKACiiigAooooAKKKKACiiigAooooAKKKKACiiigAooooAKKKKACiiigAooooAKKKKACiiigAooooAKKKKACiiigAooooAKKKKACiiigAooooAKKKKACiiigAooooAKKKKACiiigAooooAKKKKACiiigAooooAKKKKACiiigAooooAKKKKACiiigAooooAKKKKACiiigAooooAKKKKACiiigAooooAKKKKACiiigAooooAKKKKACiiigAooooAKKKKACiiigAooooAKKKKACiiigAooooAKKKKACiiigAooooAKKKKACiiigAooooAKKKKACiiigAooooAKKKKACiiigAooooAKKKKACiiigAooooAKKKKACiiigAooooAKKKKACiiigAooooAKKKKACiiigAooooAKKKKACiiigAooooAKKKKACiiigAooooAKKKKACiiigAooooAKKKKACiiigAooooAKKKKACiiigAooooAKKKKACiiigAooooAKKKKACiiigAooooAKKKKACiiigAooooAKKKKACiiigAooooAKKKKACiiigAooooAKKKKACiiigAooooAKKKKACiiigAooooAKKKKACiiigAooooAKKKKACiiigAooooAKKKKACiiigAooooAKKKKACiiigAooooAKKKKACiiigAooooArCeQ9lpRLMT0T9aa0wzwyn8aTzSR2qXcRK8kijgLULXjKQNoz34oiJdhkUksAzn5u9XEZIt2CpJBz9KVbkseAKoSrtHerNtjYST2FNoGTmWTdwFxTPtD9wtRmb98y5XpVdpDvTp1qQLTXMoY4CY/GpnldVJAX8aiUr5YORTPN3MOVpgS+dJsBwlLJOySBcDGM0wyDYBkU5iH5yPwoAVbgsTgDin738wL8uCKoMh3nAJ5qVjg7vSpclcd0WElkLPkLhTxiopLt0cjC7R7c1IoXyWO7quetRLFG0Ybcc/WnuJiC+ZjgKM/SplnbGWA/Cq/lBX3c9c095Ny4yKWpDuSNdADgfpTHu3CBlC5z3FNVFCsST0pyFdo5H507MWo83DiMsQuRToZnk6hcY7VDcrlsDJ47VFIGjt1IU5zjkfWkUmXd8jfd2/jUQnlDkOExnHGaQzeWcZX15pFbzS2cfhVItBLeMrhVA5HcUsNxLJvDBM/w4z+tV54ts64yeKlRFkTcxIMYyP8AP4U9AkuxZV5AcPt/4DUBu2kaTyQMRff3j+WPoabIN0CleTnoKXzXxGigEHh+OlBOqJY7hpIw+BzRJO6A4C9M0w/L8q8gUOMg/SgVwiunfqF6dqDdP5yqAu0jn1pIYx79KSQbTgUmLUma5CjJBp0cvmDIHesqZGbPynr2FW7QlByMc9/pSKSZaEhy24Djpik872qOQ56c0xRzQMlM7g8BaGml2AgJn3zUZOCKlQgqBkUmS0xXlZcYAyaZHNM0zKwTaBkYzmmSxnehAPBoTPmkY7Uri1J2lKjcRwKEnDDoaqJvU52n8RViOXscCqHcVZ2aQLgc06RpRjZs992ahkQGQHnpUwC7Rlu3rTHcjka73hY/I5H8WakaR0RS+3OPmx/SqigpbNIAdwPAP4UsjlEjY4AYZYntUSZRP9oZhlQMe9OM5XaGHLdMVyuseJn06SZYXtWEe3G85649D71NbeJUnS1Mk9ookC+Zh8bc4z34rleKgp8jf9f5nK8VSVR03LVfd6X7+R0rSMozgVVFzdiRA4h2k84znFCyWt5EqwXEcvf924b+VDK0I2IpKScOSOg/ya6YyurnSmmrotGbnGKa8zK4CgYx3qtGqodqnKjoaTzj5RPy9a0AsCaUuRhMfjTlnOMMBu9ulRJL+4U8VLCQ3zE85pMAWYktuAwOmKPtIMgQA8jvTWILMMjrikSFfMDZORSQEryMpXAHNRvLOD8ojx75prgO/J+6e1DADvVWAm3yBAx25xnikWYsORzVc4f5SfakkjEUQZckk45qWS7kxuiDyKa95gfKv5ik8oFSSTUBUBjzQgVzToooplBRRRQAUUUUAFFFFABRRRQAUUUUAFFFFABRRRQAUUUUAUltecnH51LsRRjFMlfbGR/y07Cq0bAyHzDge3rSkS2Tl/KORxUrSgomc5IqMtLvClRtPU1FNErkbCS/p70oyBSHyoHUkCkjQ4I4qMF7dD5wCr1J61Ou7908I3I2C5PYf5zV3KK2wi8cHHT/AApXhwVPHFTSKBcvJ6jFTDy3/iNAFNmYKADRFEwXJIzmrRjAY4zinysdpZQCBQBS2sZSuRxToy4iJz3qxDjzC56kUrE7DtGV7mobArPcJbgGQMd3TFJbTpd2zMoP3sc/hXKeNbqG4azjjfc0RkVxgjB+X/CuX0jxFJbL5KiIuzFgCren19q8arj3CvOLjpG136q+x4tXNHTr1IOD5YWu1rur7W+93PW2jbyCAQPl/pVdTJHFyw49K42HxhehkjkithFkKxCNkDv3rXg8RaU20zXW098Rt/hW9DNMPUV+a3roaYfOMHWTamlbu0vzOljxLF77aiMOxjnFVtN1KxvRK1pOZFiwXJUjA5x1A9DU9zMZIg8OGUngmu+nWjNc0XdHpU6kKsVODTT6rUR2PQGjaVjDU8xLGrbyRkUwBWQKpJAroNGidTkbj2pJ8PCqj1zzQoZUK44zQHKelSySBl3yAH0qRF8oMRTXOZRt54qQFguGAAIpFIiWTzLpA2Tx/jRMXSRQhwhPzj1FBgDSiVckAYrm/G2t3GlaPIlmkUjy28wYSA8EKMY5Hqayr1lRpub/AKvoTWrxw9J1ZdLfi7L8WHiDxE9lM1pYtJFPGy7mKKVKlc45z6itay1INb2G/cZbhE8xsDDMQMn269q8C8Nz3N54qu7u6jRJJLfBCdOCg9T2FfQOilY9Gh3nG+3TH/fNefhZ1njJxqPonbovL/g9TysLLEfX6kK0vsp26K/TzttfS/Y02UA4xQ2MH6VXiaLYFDHj2qQtzivWPVsPjOBUDMWbdVmNRtGSaYY1MZVCSTQWhI1RjgjtTpIwg4qG2Qm4dW4wD0+tTOZjcqmweSR8zdwef/rUmwbGJ/FmnADNNUFmlz/CeKajMZlTA5pcxNxZBzxUcjtHGGB5zipiygt5p246Yo3IyA5/d9jTKEa4yQOfypiSFblsnt/hU/lRqynceDmiYj7y8nNSTYN6shJBxVSSZVmYAGn+dPGdiIpJ55//AF05IpJnLyrtJHY1SESSElSRUB889HH5VYmHBBqJAozzTESRKxHluQQT0qjrE3labc7chkhfYfQgVdaSOVT5Tbn6AYrnvGH2+LS82ECSsYZTIHI4O0YxyPeubEy5acmRiZ8lGUlfbp/X/DbnlV7qF1e+IXtJJdyvjIKgDhAew9q7K38JX5s7OQS222eNSo3NwCB1496p+EJJ21Sze8RY5vn3KvIHytjue2K9PBQxjLHBFeHhqEMZStUWkXbTq+sr9b/0zwcDhKWZULVlpB2dvtSSV583W/z73ZwUqax4aQNHdxKM+X8gDdfm/iX2rp9P8QRaqXEIlVI8eYHUDIOemD7GtR/N8oCBQy54Jry/SudYsv8Ar4j/APQhTq1J5fVgotuMtLPpbs/n+BOJqTymvTjTk5Qnpyt7W00ett9rdLHqUflsoZFIU9AaY9uB8mBz71DKSpwoy/cGn3P2hUMmxd4HAzx1+tfRR2Pp2iaOJQgQjp71MqqoyBxWahkKCV1AZuCB0qprF8tlpM8sBDSLtIDg45YCnNqnB1JbJX+4wq1Y0oSqS2Sb+41d673wDkGmNO6yABu3pXBW3iS6juQzJAFZwWO08DP1rpLbxVp5hLT3CrIG4AjfGPy+tcdHM8HWTamlbvZfmcGHzjB102ppW7tL8zajLt5hz71IkbuM5FV1uDNDFMmDBIobdj+E85/KpHm8qFZIcMhOAWrv0auj1YtNXQeTIHJDL1pwDvIY2YEAZxUsbF1R15JALe1NE8f2t0DfOByMfSsmFgJbBAPWmrAW5OKkaQjpiozPKxxtXFJMaRdoooqxBRRRQAUUUUAFFFFABRRRQAUUUUAFFFFABRRRQAUUUUAUnUvOp7YpHSKP5mUnPHBqQHcwc9uK5vxXaTXFgoiTcfPB6gcYasMVUdOm5xV2uhx4mtKlSlOMeZrp3OQ1n4j3FlqMduk043RhuIYyOp9fpW3Y+MhJDbTSmdtyq7/u156E96xPB9lDcWbaffs8VzLMzKiHqoUHOcEdjW5qXgDTZrOZo57w3PlsY03pgvjgfd9fevOhTqP36dXV9d18lfQ4KdGtJe0pVtXu90/RXsjprG+i16yeeFXCK/lkSAA5GD2z61oQOBC6DP7tcV43bR6v4G1KK6ltY0s4wZJJJWDkFgUHCtnrjtXpuja3HrtpHcwsj7I0kk2qVC7hnv8AQ110a8lL2dXfo+//AAfLXuduHxE1L2Nb4uj6S9PPutbLU09+8471IEaME5FMx5jGVeQ1OMjNwQOa67ncIJdzY5p0z7FMfc80wxYG4Z5pI5QfvYB9qdwJYx+7BPWq0tw0djIQTuyMHHuKJCzSHAG31qe4KKhANKwHkniCTUbrUJPs9wihZZM7lHr9DVzwl4Te8dbq58l0SRkI3sD932HvXpiAooMA3Fh827t/nmpJY4AdjuwJGf8APFeRHLp87c5XT301fk3fVdPQ8ellc1J+0qcyb10s32Td3ddLPpoc/N4TsVs7krAglEbeW3mPgNg4PWueXwpfNHvEttj/AHm/wr0NcRp8nKgck+lc74h8U2unW1yizJ58e35WjYjkj09jWeMwGFS5pK3ppf8AzZnjsqy+ynUjy9Elpd9klu+y3OJttR1LQrq7tkuVUSP5Z2IGHykjuPeut8NXeo3j5urhZLfy2KptAIbcBngfXvXAKIvEGrpPIxDLPvHl8DLNnv8ASvVNEs1tdLhRywQbsEkE53E1hgYS9ta7Sj0vZX6aem/mYZbh5+3tdpQWqTaV3Zx02+HV+ZqbHeN/MIJx8vtUUUTKPmI/CpZPJjZCzkNn5R60/wA8H0/KvpLn0pC823jmmhi/ekcbjmnxnbRczZGDiUE1NuDxvgcqKZbgOOfXtShPL870Of60IuKKOoaj9g0qab5tykEFQD1IHevJ7rxWPEniBNMkMzILo27B0VQQz7TyvPau18Zapa2VnIk8oQGNG+6T/H7VyHw1F/JrWszpAht5LiJ43yOULOQcZ9K4Z/vsTyPWMV8r3ej9NHbpozlS9vjHCWsIpPy5rvR9G0rOz20Zk/2aNJ+Imp2cQVYI7ddqAk4ysZ6nnua9m0uN5tHtNhA226Zz/uivPdd0W9Xx1qOpvCRDNGiK29cEhE7Zz/Ca7LR/EVu1rBYTSIsyokMahG+ZsYwT064rCMlTx05VHZNJJvS78jmclSzOpUqvljKMUm9E32Te7N23hIchsE4qxIiq3TtUMUThtzLgketEsTk529vWvVPUkicHEYxVaGcqwZiSo64FOiYoMHipGjEtu0YJyTQ2RcSQGNfOj4Ln+fNOklMaktkn2qtc6rbaXbobmURoCIwSpPOPb6V5ZqHjaTWLV7e1+zyTPgKojdc4OTyT6VwYnGRpaLV/l6vovNnJicZCj7qV35bLtzP7Kfd9m+h60u6Ta0R2g8vnv/nmpREFkDDqK8Ys77UobG7VreESSR4VfU4Pv71W0rXNW0e+j1C7treOKLO5jlgMggcBs9TXDHNLtKy8/e/LTX/PQ4I5xGUlFKLfW00//AdPedui66Hszt5ryL3BIpwISBUYZwe1cxoHiWXVZQ0ohCOyFCisMhvqa6uTZj5iQvrXrYevGtTU47P/AIY9TD4iGIpqrDZ338nYfI6Y4Bz2qE72PUYphKeYmD3qWcnyxs5571tY3uNaKQXKNuXGP8alLOvQ0RtLnlRRIXPYUBYjPmSHlhT1gf1FR5f+6KXbMeiD86LhyibFijLRjDDoao6lFNc2jQFl3TIyIT0BIxz+daPyxRmQHketOVn2hyByMilOKlFp9RTipRcXszB0Xw7a2XkG4iV7xN26RHbBzn6dj6VvCNDlQvC8dajmCPGzMSJD2HSkidQNmeTgVz08PCjBQpqyMsNQpYamqdJWX9avu/MoazrCaRAABIMOF+VQeoJ715xoF3Hc6zZlAw23Eecj/aFdR421S2SEWTSgSRzKxXaePlPfp3rK8H65bJePFHKp82SNTlG9T/jXiYv99iVGXwraXRPqn62S30Z8/mC+t42NOa9yO0+kX1T6NtpR3Vn32PQJ4Wl+aEhXJ5LelSySqh8q4BcsM/L0x/kVk6nrumwzNbyXO2RCCRsY9s+nvWhYahBqFs01m4lRW2k7SOcA98ete3TxNKUuRSTfa+p9D9aoSm6cZpyXS6v9wssTSRjySFTPANcJ4g1GWSUQI5ELRgspUcnJ/wABXoTFlG/A3HgivCvEnjOYeLbO2vFt47Z7fLuqMWHL4xye4Hasc0lUqUPY0r80rvTqluvx26njZ3Kc6PsKV+aV3p1S3X47dTv4/DsU+mwSRoglkhDbi7feIHNYmu+GdXtdEuJ7W5tY5k27WJJxlgD1X0NdBouvadNYWqG4+/FGEwjc5H0+ldDb3Lou+EK1uD8zHqD/AJxR/Z2CxFOMoJc0UtrWv/eS380yIZZgcVCMoJc0V0ta/wDeS380zzuLxLrFho0aXF5u+z24D7I052rzjgeldT4P8TW+v6bDHIk7SBHcl1VRw5HY+9a1zo8N1FM8jSBplYqFI5J/D3o061aws47MA7I84LEE8knt9aWGwWIo1Luo5Lz29Er/AI9Nram2EwOJw9W7quS8729FG7t69Nramgsc8QZ1dRF1C99vp0p0UcUn79FxI3BJPb/IoKEeUwHTmpVmbeQwAFehI9tMjwSaUqqjkU881G4LcVCHcuUUUVoIKKKKACiiigAooooAKKKKACiiigAooooAKKKKACiiigCjI4FyijIGOg/Gs/XJAtkh5/1g/kai13UDZaTOp2if5SqkEgjcB2/GvNZbfxBd3MssFhC6uxdTvUZBPu1cOIxElP2dON3a+9tPuZ5OJxU41PZUo80rXettNuzJtK1eDT/FtlHKspJRm+QDH3WHr7V6dDewy23nhG2hA/IGcYzXmmrfD6Gzs5HiN0SAD80ieuPSueF67Z0qUKqL/o2QDux93r0zXPSp/V6She9kZYeP1WioN35Udl441az1FG0iOF/tNxEjI7qNoAfPJzn+E9q0vh+Ps1vPA3ZYUIXocBhWf4L8LQLbmRGnKCZsksvXaPau9ht2tgsag7Dhck84FKhGWJqQr3tFXsu91a/l6eQYdTxdWnib2jG9lbe6avfpvtZ7eZfUIBwoA9MUyRQCoAAJ9qr+UVnY4+XHWrbsrDg8ivVSPbGAYO084qDyjJIHTAUDBFMLul05wMY/wqysocZzTsDEKgRgYG7uahijZT+9Ice/NWMg04Oq9TSQrldlbPyHaPbimTZU+WxzIRkN6CrEs8Axvcj04NRyXDQWzvIArA8DrRJ2QXFklW3tgXBPyc4+lcH4jvNPunuYfsgMrbfmaNfY9fpVfxfrEN08SQurToZAF2kDdxgc+4pfC2iajevaXd1b7IH37nR14xuA4yT1Ar57GYmpXn7GmtG7X306u3l3voz53H4ytiZ/VqEdG0ubfRqzaX91uzd9GrFLw1o8k2piSPyVRJo2K9MjcfavUoYRGgVgpQdFHQUltbJZxYQsflA+b2oadycYGK9LCYX2Su3dvc9fCYT6um5S5pO13teystNehC7qWXcM88Zp4Kt0GKUSbmUHHJolG1yR0rudztHeUVGTimFlU4IqTzA6EA81EUO4kirSIuOjhdDuyMD0NNvbqO2s5pXViEjZjgc8CnGFHcOCeOK4P4kXAbTCIyC0UM4xjvtH+FY4qs6FJzS7fi0v1M8VX+r0HUSvsvvaX4Xucf8AELxDa6lcDToEnWeaBCrOAFGHJ5IOex7V2nw30abStKaW5aJ/tUEDRlCSR8pPOQP7wrxfQNQitvEFrf3biMRBgSFJGCrDoMnqa9Ok8ceIRawf2bZWM0Gz5GdWBK4G0/fHUVjD2eGi/azV5O7b0uzWEKOBpv21RJyd221G7stk35bHc+I4447BJXRSxlAJxz0NeOaN4ljsvGt2l0bmRRqIEagghAJDwMnjt+VVfGHiHxNe2yyXun2caGZSDH6hSP75966f4ceDba4t57zfceZdJDLOA64UsGJ28dOT61ji6lOtBQp2k5PTXqtd/l+hz5hUw9fDxhTtUlJ+7Zq11rvra1vnt1PTNJ8QW2r3TW9uk6uqFyZAAMZA7E+tahvYt4QqxLcDgVm2ejx6Ooa3MjDBX94Qepz2xVyYmVty84GK7MPGqqa9s7yKoe3VJKu05dbK3y+XcWaVFkIwfyp8L+ZICuQKbEQIxv4NZPie4T/hH7qJSDu2Hof74oxVT2VKU+yb+4uvN0aM61r8qb+5XMjxZOHgaP5srcd+nRqxPCXhMzgXgis9kcjKQV5+6Pb3rh9YuHvy9owULHKSCvB4yO/1rpLbTdZ8Ij7VfWaQ28Z3u7Or43fKOFbPXFeK6VSo/byWjteK8vPr6W1PJeHr1H9bnHSXK3Bau0dU79d/htrtc9Gt9EtrZy09raupIIAjB6deopmseHLXVrGVLS0s4wQFw8YAyGB7A1n+GPF9vqTm3nliUsY0i2RuN2cjvn2rrJQIunT3rupUqFaDSVvlZr9V5HfCOGxVNqMbdGrWkv1T6r7zI0PQRp0QR47bcqoFKL0I/CtpwAoUgEg0xvmjBXnAzTAgmUI2RjnivQp04wioxOmMIwiox2RLsWXlVA2+opJFKoGJ4zS+VHGy4Y8nvUUu5pmCjK9jV2BE5bDBucDtSNKrdAaSHeqEyAKueSKVmhJ++fypWKGbW65qeM8c0wxxEfeaq7QR7jhm60rC5h7qZZ1dTiIDBU9z9PyoRiGZSSRnCj0qK2UqORjmrA27hz3q0DY0QuZt5IKemaVgsCvI6ggDdwOeKmKZHFcl431y50rSpEgSJvMgmDbwTjCj0I9a4sXW9lByf9dDGvWjQpupLpb8XZfizB8cazpisxa0cy+amX8tcn5D3zVzwZZ2Y+2sbWHePLKN5Yyp+bkelcP4Y1HTrq+e5124a1geI4aFScuGAAxhj0BrsLzxfqc1hcwLBakyxMgG1u4I/vV4NWSpVo1azte+nR/5W79fI8DEuOExUK+Kdr3dls3bZ9Fytr3rPm3srGH4/aaPUJvJlaN/MTJViONntXd+DdzaBOiHDm4OD0/hWuEsPCWp6vAt81s3mSg5CSoBwcdz7V6JYeH4NOH7ppjcbiyo7AggjHYfWunB0ZSrKolp7zbt/N2fVeZvgaLniFWius23bT37Ncr+0lZ6ryfU0lka3ciZi/GODn+deReLNFgv1ZYba2W6MahJWQAqN2TyBkcZ/OvYbYSo2HUBscimTpFHGYEYmVuVU9/84r2a9L2sUoS5ZJpp2vt9x6WNwrrxXJLlkmmna+3zR88Jo+vadNb3bamRa2jCR447h+UXBIAxjoOldV4c+IVsfENraStqDxPvLRkgqflPUbvavVJLdLmznhYsAYysmO2QQa8Y+JvhfT7UnUI5rgyRW6ABmG3mQjnj3rlqYaSqRlVlu0k0rWk3pePXXzR5FbCzp1Iyqy6pJpWs29Lx+1r5o9fstct9WJW2SZBFgHeAOvTGCfStiNVMKkgFvUivOfhzAJdGiPOFt7fp/umvSLcIkSjJ4z/OuvB1Z1KClN3d3+DaPUy6rOth1Oo7u7/BtfoV5N7OArEYOOtSHiIKfvg8mn7UdzyetMuYAFymSc962Z3EmMKc0iMM9Krx7jwR3qb7nWlZDLlFFFMYUUUUAFFFFABRRRQAUUUUAFFFFABRRRQAUUUUAFFFFAHlvim7ma4GZJCvlLlS5wfmNdbpfkLotjJ9mjLNbx5O0ZPyj2rG8V6FALWS4VpSERR94f3vp71ymm6xq2lXLG3trdkCGNTJzlcjHRhzxXkU60KNWcaskm3dXfTb809D5+Fanh69SFeSTburvpt1809D0y6gEg2SEOCOQwzXk/i3T47HX7B4tq+ddOWCJt/iXr69a35PG+qxQMbq3s44R95grEj0/iPeuMknv/E/iGB4oI3WK6ypQ7eGcYzuPtWtSpTnSlKMk1tv1NqlWlOjKcJJrbfr2PVfCDFdIlIJ/wBef/QVrpBcbwF28jjOax/Cthc6faMt1H5beaWxuB42gdq2pZ2SVFYAB2wvvWmW03HDwUlZ2OjKKcoYSnGas7Dky3BPPrRGCAxLE4pVEi3DMVG0jANIDIysCo5GK7up6YrBWGdozUTfI2BUgQCFQchs8imxAYw/DZ4FNiYqkkVHLnHUipmXHI6U1UZu1SiSCLBLb1D+m7nFc/4o1CYxMI2eMbF+65H8VdM88VpjzW27unBPT6V4rPduNVhssLskTcTjnv8A4V5eZV3BezS+JPXskt/PfyPKzTEypx9kl8Sld32SWrt132ui/o0YvNejS4/e7rpB+8G7q3PWvW4oUsrYQxKqonQKNo5Oen41h+G9PisLFZImdmuYoywcjg47ce9bQiO7vu9KWAoOKc5dbf189zTLsO4J1Zbytp2SVvx3fm+u5Msu4cj9aXaMZwPypsbqgbJxt604z5QOmCp6GvSUdT0ysVIZTuPBqZuYwT6055mQYkAANRMfl3Lyp6GtJIZDbOTKAcnr39quSY8sHHeqhib+AZPvUkIkLbWUAgU0ZMalzsH3M/jWVregRa+iZdIFUNvHlB9+7HXken61tRTNPCQQM5xxSNsgK4J3P2PrWdajCtB05q6ZNWjTr03Sqq8X8ttehw6/DLTmYDdaj/tyX/GugsvDdlpyRQtDbzKAqjMCgADjpzWozlrpA2AuOSPxrk7/AMXX8F7cWyQ2xjikaNSVbJAOOea8+ssHgUpTW/q/zbOGvLAZalOonaWmt5fm3Y5f4lahY6RK8f8AZFvMizooXCqBmMnONpo8FeLhbwTNHYbUZYiEWXAAwePu1b1DVZ9R/wBcka8hvkBHQY7mt/TvCcF3ZJPK06741cbXXHIz6V5UKjxFWTwivJaqW1k+nLs9NL/M8inXeMqT+oxvUjqpt8vKnpbk1i9NL7vfc0tC8QNrGqSxPblEERcKZNwGCo6Y966BgscirsBz7VgaX4ei067eaIynchX52B7g9h7VuTCMyAlj0r3sGsQqVsQ7y/rsfQ4KOJjRSxbTnrtb5bBKoLnHyj0Fec+J5riWUQLcSojRqSAxx949vwr0VkcxgxjPPesPWNOnvtPlis4zIzBQAWA5DA98dqjHwc6V101t3t0+exOPjOdG8deV81u9teX57dfRjtJ8NaVJpFlLLp9lJK9vGzyNbKWYlRkk45JrS1jTYdR06WKdI3DbQd6BujA968x0XUZPDniC8k1YJbwgPCGwX+beOPlz2U13L+NfDsjCSPUckcf6mT/4mppTjOKlE68PWjWgpQf3dPL5Hmjt/wAI74jKxjzFku8IF+QRhX4x19f0r1Lw9fPqti7ybgRKV+Zt3QA/1rzTxjr8Wta1piwOjpDcOAVRl4LLjOfpXfeDCw0uQIAW89sA/wC6tc6k4Y1RjtJXfqtEedUk6WZRhDRTi3Lza0Xpp2OjnXyUUA5yPpTrZOA2eop4zKBvGCvXFRSncxjH3RyK9dHovcVVLAkseKV/kgV+pJxUIwOU5A65pQ80jFUVSnUGncaQv2r94E2cH3qQOp/5Zio1uIzEWLfNn0NOjm3crgikNjpZgoOE/WmRyg5+QU/zjMv7vB7VX+3eW7KdoIODwaZmyYLx1xTdhDZ3HrUwO1cnpUhJIHv0qEyhiMQByTXB+OrVpFRGlJE3mgAjO3OP8a77hRluBULTRLIoDcscdK5MZQdem4J2219Hc5cZhniaDpKXK3bW19mnt8jzjw74Dt7zSYC1xEDhjzbA/wARHrXc22macyyA6fan0zCvH6VoAmS4aM/dAyD3pHkZHjWEBkY4kJ7D2/WooYOENZK7e7ff06fIVHBUqavJc0nu31fVpO6V+y0GQwR2kYEKIiDgIihQPyrD17xIdOvEhW13M0YYOJNpHJGOntW5OFBJBPWuS1yx1XUJgY7VGTYFJDgc5J7mtsaqkMO3QupLayv8rfr0M8ynVp4ZvDtqS2tHm+Vv16HQ6RetfadFeEFTJuG0tnGGI6/hVyUCI7mAdwOGPUV4+2saj4V165/tCCCG0CCNJGBcliFbHyk+h7dq71vEtgYivnrz/wBM2/wrPCYmEqa+syUZabtK769tV1XTZnPhMxjKkvrUlGVtbtK769tV1X2dmbd5KE0q8lRdrLA7ZHBJ2mvAfiN4mfyHsHgZzLCjeaZen7zpjHt6969P1TxRCbOV5JI1igjchgjdAOp/KvLte8RP4kuV0zTfKnjmjGSFZG3KS2AWIHQCtZzhUqwcJKUI6u2ys73cltbe3UivWp1qsHCSlCOrtsrO93JbW3t1PSfhfmTw9G+cZtbc/wDjhr0GA8YPPFcX8PbOay0ryrhNjGCBQMg8hSD0rtRbxhQWZhRgU1h0musvxk2dOVxccLFNW1l/6Ux/GeBijBDkk7h6GoBCnmZQk4NWFKn5M8jmuo9AgBAYcU5/n9qdKgP3cnimxgp94YpAXaKKKCgooooAKKKKACiiigAooooAKKKKACiiigAooooAKKKKAM6SKK4QwzRI6t1DqCPXoartpOmSDYLS0UjqRCtXIisjg5pTbqjs+W5NY+xhJ3krnPOhCbvKKZzFz4Vtr6zdAYVBwP8AUA9wfWk0XwraaQ80u2FmyrL+4CnK56VvbxbjZ6881KIjOFJzj2qZYOjzqfLqvu+7Y5/qVD2iqcuq+77tvwCBhKh/hOelSoofeHAyv3GYdPcfpUbQmFxsyRjPNSyMFVCPvYya2Wh3xIyzp8hLEjvmpFzz1pnL/O3U+lSKQQapMogldgcc/nTomywJ/WiRcsaZjHSmxMtghlFN3bBTYT/KoriQKfwqUSUdY0qXVvJ8q+e28vdnaCd2ce49P1rJtfAtvBqUVxNcxTMoPD24zjBHUn3rqLUiUN7Y6UrH/Sk+n+NcNTBUalb2klr6v8r2OSpl2Hq1fbTjeXq/yvb8NepCNkCJDFApEY2jaMdOKcryGUExMo9TSZZJmKjJLd6eHuWkw8aiPuR1/nXW1ynW9B6hNrg7csO9RkbUCKOnpSup8xMDgmn7QHOauGoIeQknUrx60ybYsQUbeD2qukhJ4xSlWdyMVTLRPHjrxTGyszEZ/CkLGIc06Mh/m9aRLRHDE0TAZPr0pZ4y7RnJ4PpQtxumUDH5U4y7iRxxTRIwRZuFye3pWSvhWKPUZrqWVJ1ml8zY8IIXknHX3rWMpWUNxwKeJpiw3ooTsR6fnWVWjTqNSmr22InRpVJRlUV+Xb5qxVk0rTMbfsNoCD/zxX/CrB/0WBVii3KFwFQYAAHApJQ8kh8pQxpQ88ewSIqiqjCEfhVjWFOEfgSXoLHNviDNF5bHqh6innaeSBUbkSSEqcinsu0H6VbBxaJo3UIBxVdJFhiIVQz5yFHU0sYyKiQwpKJZHKsvbHFQ1cXN0MjxF4dttUsEKWkImaUSORAGbkHOe/U1i3XgSK1t2eG4SVhjCJbjnnHY128c/wC8JONh6HHWljRWjLZPWuKpgaM3zNfi1+TOSpl2Gqy5pRd/JtfgmjznRPBLTajLNdQlFilVk8214YZJ4z9BXf2dpBpsRSNY1y275VC+1XAxVDu4AHFVZv3hyPSroYeNPXd9zahho0rt6yfV/h6WWmm+71EE5LSYzyfWktwzXDFs429/wpoj2YPrU8IwfwrtS0NmSRqmyThelJCUVsfL0qGOXhhxzSorGQ8dqQ0NEcbxFRt3E8YHNSQwbByf0qBN0V0gI7Z/nUz3JViOPyoKsJEBCPxz6VXCJJLISF+9npVx4y0Zqt5Xlkk55pkNEzEmFutPdyqQ/T/CnFR5LfWo5/uw/T/Cs3oUhzEtGetQ+WGljPHDelWEGYxUCyDziM9GoSuKSF80JeycdvX6U6N1IY8cUxot87OM8ikijO1qu1iUSSCOVABIqtnJ55qrIh8hrdHLO/IkXqPb9KlVIFkJd2DY5FOgWNZlLMRJzgdsUublGc/rHhe21eySKZYpLgSB2LwB24BHOee4qi3gzYpL6ht9jDj/ANmrr2KJdPLGcykYKnpjj/61JcQ+fGfMyH6AD0rlq4LC4iXNVjd+rX5M8/EZXhMRPnqwu/Vr8mce3glJoXVr5XRlwymDIIPY/NVa3+HVlDMskH2eKQZw6Wigjj1Brs40kjBRVz25qeGOVDl1wPrQsqwUU1GOj/vS/wAzJZLgYpqMLJ/3pf5lazs1traGFAN0SKrMq4LEDGTU0pkIwN3WrKRhdzDPzcmmOQDya7LJJJbI9SEVGKitkV4t6tyW6jrVnAPKnn2pnDDjmozI0TEkDHSkyrEmGyPmNP4I5YfjTAxYZpjbvSpCxo0UUVQBRRRQAUUUUAFFFFABRRRQAUUUUAFFFFABRRRQAUUUUANEaL91FH0FKQD1ANLRQAwwxMctGhPuopwVVGAoH0FLRQAhVT1AP4UhRD1Vfyp1FADdi/3R+VLsX+6PypaKAG7EP8K/lR5af3F/KnUUAIEUdFA/CmmKNusan6in0UANVET7qqv0GKNi5ztGfXFOooAb5aZzsXP0pdo9BS0UAJtX+6Pyo2qTnA/KlooAYIox0RR+FLsUHO0Z+lOooAaY0bqin6igIg6Ko+gp1FADBDEDkRoD/uil8tP7i/lTqKAG+VGf4F/Kl2LjG0Y+lLRQAgRVOQoB9hQVVvvKD9RS0UANEaDoij8KUqp6qPypaKAGhFHRQPwpDDEesaH6qKfRQA3y4wMbFx9KUKoGAoA9hS0UAIVB6gUnlp/cX8qdRQA3y0P8C/lQEUdFH5U6igBgijHSNR+FOCKOigfhS0UANMaFtxRSfXFIYoz1jQ/8BFPooATAxjApCiHqqn8KdRQAm0YxgY+lIUU4yoOOmRTqKAECqBgAflTfKjyT5a5PfFPooATYo/hH5UgRR0UD8KdRQAwxRk5MaE+u0UvlR7t2xc+uKdRQA3y0znYufXFKVU9QPypaKLAN8tAc7Fz9KXAPYUtFACYHoKQoh6qp/CnUUANCIOir+VBjjbqin6inUUAN8tB0Rfyo2J/cX8qdRQAUUUUAFFFFABRRRQAUUUUAFFFFABRRRQAUUUUAFFFFABRRRQAUUUUAFFFFABRRRQAUUUUAFFFFABRRRQAUUUUAFFFFABRRRQAUUUUAFFFFABRRRQAUUUUAFFFFABRRRQAUUUUAFFFFABRRRQAUUUUAFFFFABRRRQAUUUUAFFFFABRRRQAUUUUAFFFFABRRRQAUUUUAFFFFABRRRQAUUUUAFFFFABRRRQAUUUUAFFFFABRRRQAUUUUAFFFFABRRRQAUUUUAFFFFABRRRQAUUUUAFFFFABRRRQAUUUUAFFFFABRRRQAUUUUAFFFFABRRRQAUUUUAFFFFABRRRQAUUUUAFFFFABRRRQAUUUUAFFFFABRRRQAUUUUAFFFFABRRRQAUUUUAFFFFABRRRQAUUUUAFFFFABRRRQAUUUUAFFFFABRRRQAUUUUAFFFFABRRRQAUUUUAFFFFABRRRQAUUUUAFFFFABRRRQAUUUUAFFFFABRRRQAUUUUAFFFFABRRRQAUUUUAFFFFABRRRQAUUUUAFFFFABRRRQAUUUUAFFFFABRRRQAUUUUAFFFFABRRRQAUUUUAFFFFABRRRQAUUUUAFFFFABRRRQAUUUUAFFFFABRRRQAUUUUAFFFFABRRRQAUUUUAFFFFABRRRQAUUUUAFFFFABRRRQAUUUUAFFFFABRRRQAUUUUAFFFFABRRRQAUUUUAFFFFABRRRQAUUUUAFFFFABRRRQAUUUUAFFFFABRRRQAUUUUAFFFFABRRRQAUUUUAFFFFABRRRQAUUUUAFFFFABRRRQAUUUUAFFFFABRRRQAUUUUAFFFFABRRRQAUUUUAFFFFABRRRQAUUUUAFFFFABRRRQAUUUUAFFFFABRRRQAUUUUAFFFFABRRRQAUUUUAFFFFABRRRQAUUUUAFFFFABRRRQAUUUUAFFFFABRRRQAUUUUAFFFFABRRRQAUUUUAFFFFABRRRQAUUUUAFFFFABRRRQAUUUUAFFFFABRRRQAUUUUAFFFFABRRRQAUUUUAFFFFABRRRQAUUUUAFFFFABRRRQAUUUUAFFFFABRRRQAUUUUAFFFFABRRRQAUUUUAFFFFABRRRQAUUUUAFFFFABRRRQAUUUUAFFFFABRRRQAUUUUAFFFFABRRRQAUUUUAFFFFABRRRQAUUUUAFFFFABRRRQAUUUUAFFFFABRRRQAUUUUAFFFFABRRRQAUUUUAFFFFABRRRQAUUUUAFFFFABRRRQAUUUUAFFFFABRRRQAUUUUAFFFFABRRRQAUUUUAFFFFABRRRQAUUUUAFFFFABRRRQAUUUUAFFFFABRRRQAUUUUAFFFFABRRRQAUUUUAFFFFABRRRQAUUUUAFFFFABRRRQAUUUUAFFFFABRRRQAUUUUAFFFFABRRRQAUUUUAFFFFABRRRQAUUUUAFFFFABRRRQAUUUUAFFFFABRRRQAUUUUAFFFFABRRRQAUUUUAFFFFABRRRQAUUUUAFFFFABRRRQAUUUUAFFFFABRRRQAUUUUAFFFFABRRRQAUUUUAFFFFABRRRQAUUUUAFFFFABRRRQAUUUUAFFFFABRRRQAUUUUAFFFFABRRRQAUUUUAFFFFABRRRQAUUUUAFFFFABRRRQAUUUUAFFFFABRRRQAUUUUAFFFFABRRRQAUUUUAFFFFABRRRQAUUUUAFFFFABRRRQAUUUUAFFFFABRRRQAUUUUAFFFFABRRRQAUUUUAFFFFABRRRQAUUUUAFFFFABRRRQAUUUUAFFFFABRRRQAUUUUAFFFFABRRRQAUUUUAFFFFABRRRQAUUUUAFFFFABRRRQAUUUUAFFFFABRRRQAUUUUAFFFFABRRRQAUUUUAFFFFABRRRQAUUUUAFFFFABRRRQAUUUUAFFFFABRRRQAUUUUAFFFFABRRRQAUUUUAFFFFABRRRQAUUUUAFFFFABRRRQAUUUUAFFFFABRRRQAUUUUAFFFFABRRRQAUUUUAFFFFABRRRQAUUUUAFFFFABRRRQAUUUUAFFFFABRRRQAUUUUAFFFFABRRRQAUUUUAFFFFABRRRQAUUUUAFFFFABRRRQAUUUUAFFFFABRRRQAUUUUAFFFFABRRRQAUUUUAFFFFABRRRQAUUUUAFFFFABRRRQAUUUUAFFFFABRRRQAUUUUAFFFFABRRRQAUUUUAFFFFABRRRQAUUUUAFFFFABRRRQAUUUUAFFFFABRRRQAUUUUAFFFFABRRRQAUUUUAFFFFABRRRQAUUUUAFFFFABRRRQAUUUUAFFFFABRRRQAUUUUAFFFFABRRRQAUUUUAFFFFABRRRQAUUUUAFFFFABRRRQAUUUUAFFFFABRRRQAUUUUAFFFFABRRRQB//9k=;clipPath=inset(39.78% 10.67% 39.78% 12%);" vertex="1" parent="1">
          <mxGeometry x="780" y="300" width="300" height="60" as="geometry" />
        </mxCell>
        <mxCell id="8h9t13kz1k91gfvvCFST-6" value="" style="shape=image;imageAspect=0;verticalLabelPosition=bottom;verticalAlign=top;image=data:image/jpeg,/9j/4AAQSkZJRgABAQEAZABkAAD/2wBDAAgGBgcGBQgHBwcJCQgKDBQNDAsLDBkSEw8UHRofHh0aHBwgJC4nICIsIxwcKDcpLDAxNDQ0Hyc5PTgyPC4zNDL/2wBDAQkJCQwLDBgNDRgyIRwhMjIyMjIyMjIyMjIyMjIyMjIyMjIyMjIyMjIyMjIyMjIyMjIyMjIyMjIyMjIyMjIyMjL/wAARCAHgAoADASIAAhEBAxEB/8QAHwAAAQUBAQEBAQEAAAAAAAAAAAECAwQFBgcICQoL/8QAtRAAAgEDAwIEAwUFBAQAAAF9AQIDAAQRBRIhMUEGE1FhByJxFDKBkaEII0KxwRVS0fAkM2JyggkKFhcYGRolJicoKSo0NTY3ODk6Q0RFRkdISUpTVFVWV1hZWmNkZWZnaGlqc3R1dnd4eXqDhIWGh4iJipKTlJWWl5iZmqKjpKWmp6ipqrKztLW2t7i5usLDxMXGx8jJytLT1NXW19jZ2uHi4+Tl5ufo6erx8vP09fb3+Pn6/8QAHwEAAwEBAQEBAQEBAQAAAAAAAAECAwQFBgcICQoL/8QAtREAAgECBAQDBAcFBAQAAQJ3AAECAxEEBSExBhJBUQdhcRMiMoEIFEKRobHBCSMzUvAVYnLRChYkNOEl8RcYGRomJygpKjU2Nzg5OkNERUZHSElKU1RVVldYWVpjZGVmZ2hpanN0dXZ3eHl6goOEhYaHiImKkpOUlZaXmJmaoqOkpaanqKmqsrO0tba3uLm6wsPExcbHyMnK0tPU1dbX2Nna4uPk5ebn6Onq8vP09fb3+Pn6/9oADAMBAAIRAxEAPwD3+iiigAooooAKKKKACiiigAooooAKKKKACiiigAooooAKKKKACiiigAooooAKKKKACiiigAooooAKKKKACiiigAooooAKKKKACiiigAooooAKKKKACiiigAooooAKKKKACiiigAooooAKKKKACiiigAooooAKKKKACiiigAooooAKKKKACiiigAooooAKKKKACiiigAooooAKKKKACiiigAooooAKKKKACiiigAooooAKKKKACiiigAooooAKKKKACiiigAooooAKKKKACiiigAooooAKKKKACiiigAooooAKKKKACiiigAooooAKKKKACiiigAooooAKKKKACiiigAooooAKKKKACiiigAooooAKKKKACiiigAooooAKKKKACiiigAooooAKKKKACiiigAooooAKKKKACiiigAooooAKKKKACiiigAooooAKKKKACiiigAooooAKKKKACiiigAooooAKKKKACiiigAooooAKKKKACiiigAooooAKKKKACiiigAooooAKKKKACiiigAooooAKKKKACiiigAooooAKKKKACiiigAooooAKKKKACiiigAooooAKKKKACiiigAooooAKKKKACiiigAooooAKKKKACiiigAooooAKKKKACiiigAooooAKKKKACiiigAooooAKKKKACiiigAooooAKKKKACiiigAooooAKKKKACiiigAooooAKKKKACiiigAooooAKKKKACiiigAooooAKKKKACiiigAooooAKKKKACiiigAooooAKKKKACiiigAooooAKKKKACiiigAooooAKKKKACiiigAooooAKKKKACiiigAooooAKKKKACiiigAooooAKKKKACiiigAooooAKKKKACiiigAooooAKKKKACiiigAooooAKKKKACiiigAooooAKKKKACiiigAooooAKKKKACiiigAooooAKKKKACiiigAooooAKKKKACiiigAooooAKKKKACiiigAooooAKKKKACiiigAooooAKKKKACiiigAooooAKKKKACiiigAooooAKKKKACiiigAooooAKKKKACiiigAooooAKKKKACiiigAooooAKKKKACiiigAooooAKKKKACiiigAooooAKKKKACiiigAooooAKKKKACiiigAooooAKKKKACiiigAooooAKKKKACiiigAooooAKKKKACiiigAooooAKKKKACiiigAooooAKKKKACiiigAooooAKKKKACiiigAooooAKKKKACiiigAooooAKKKKACiiigAooooAKKKKACiiigAooooAKKKKACiiigAooooAKKKKACiiigAooooAKKKKACiiigAooooAKKKKACiiigAooooAKKKKACiiigAooooAKKKKACiiigAooooAKKKKACiiigAooooAKKKKACiiigAooooAKKKKACiiigAooooAKKKKACiiigAooooAKKKKACiiigAooooAKKKKACiiigAooooAKKKKACiiigAooooAKKKKACiiigAooooAKKKKACiiigAooooAKKKKACiiigAooooAKKKKACiiigAooooAKKKKACiiigAooooAKKKKACiiigAooooAKKKKACiiigAooooAKKKKACiiigAooooAKKKKACiiigAooooAKKKKACiiigAooooAKKKKACiiigAooooAKKKKACiiigAooooAKKKKACiiigAooooAKKKKACiiigAooooAKKKKACiiigAooooAKKKKACiiigAooooAKKKKACiiigAooooAKKKKACiiigAooooAKKKKACiiigAooooAKKKKACiiigAooooAKKKKACiiigAooooAKKKKACiiigAooooAKKKKACiiigAooooAKKKKACiiigAooooAKKKKACiiigAooooAKKKKACiiigAooooAKKKKACiiigAooooAKKKKACiiigAooooAKKKKACiiigAooooAKKKKACiiigAooooAKKKKACiiigAooooAKKKKACiiigAooooAKKKKACiiigAooooAKKKKACiiigAooooAKKKKACiiigAooooAKKKKACiiigAooooAKKKKACiiigAooooAKKKKACiiigAooooAKKKKACiiigAooooAKKKKACiiigAooooAKKKKACiiigAooooAKKKKACiiigAooooAKKKKACiiigAooooAKKKKACiiigAooooAKKKKACiiigAooooAKKKKACiiigAooooAKKKKACiiigAooooAKKKKACiiigAooooAKKKKACiiigAooooAKKKKACiiigAooooAKKKKACiiigAooooAKKKKACiiigAooooAKKKKACiiigAooooAKKKKACiiigAooooAKKKKACiiigAooooAKKKKACiiigAooooAKKKKACiiigAooooAKKKKACiiigAooooAKKKKACiiigAooooAKKKKACiiigAooooAKKKKACiiigAooooAKKKKACiiigAooooAKKKKACiiigAooooAKKKKACiiigAooooAKKKKACiiigAooooAKKKKACiiigAooooAKKKKACiiigAooooArCeQ9lpRLMT0T9aa0wzwyn8aTzSR2qXcRK8kijgLULXjKQNoz34oiJdhkUksAzn5u9XEZIt2CpJBz9KVbkseAKoSrtHerNtjYST2FNoGTmWTdwFxTPtD9wtRmb98y5XpVdpDvTp1qQLTXMoY4CY/GpnldVJAX8aiUr5YORTPN3MOVpgS+dJsBwlLJOySBcDGM0wyDYBkU5iH5yPwoAVbgsTgDin738wL8uCKoMh3nAJ5qVjg7vSpclcd0WElkLPkLhTxiopLt0cjC7R7c1IoXyWO7quetRLFG0Ybcc/WnuJiC+ZjgKM/SplnbGWA/Cq/lBX3c9c095Ny4yKWpDuSNdADgfpTHu3CBlC5z3FNVFCsST0pyFdo5H507MWo83DiMsQuRToZnk6hcY7VDcrlsDJ47VFIGjt1IU5zjkfWkUmXd8jfd2/jUQnlDkOExnHGaQzeWcZX15pFbzS2cfhVItBLeMrhVA5HcUsNxLJvDBM/w4z+tV54ts64yeKlRFkTcxIMYyP8AP4U9AkuxZV5AcPt/4DUBu2kaTyQMRff3j+WPoabIN0CleTnoKXzXxGigEHh+OlBOqJY7hpIw+BzRJO6A4C9M0w/L8q8gUOMg/SgVwiunfqF6dqDdP5yqAu0jn1pIYx79KSQbTgUmLUma5CjJBp0cvmDIHesqZGbPynr2FW7QlByMc9/pSKSZaEhy24Djpik872qOQ56c0xRzQMlM7g8BaGml2AgJn3zUZOCKlQgqBkUmS0xXlZcYAyaZHNM0zKwTaBkYzmmSxnehAPBoTPmkY7Uri1J2lKjcRwKEnDDoaqJvU52n8RViOXscCqHcVZ2aQLgc06RpRjZs992ahkQGQHnpUwC7Rlu3rTHcjka73hY/I5H8WakaR0RS+3OPmx/SqigpbNIAdwPAP4VyXjvxXqfho6SunW0E0l75gKyxsxyNmAoUj+8fXtWNWooR5mdWFwtTFVVRp7u/4K52v2hmGVAx704zldoYct0xXjUnxP8AFkDlJdIs43HVXtpQR/4/UcnxY8TKBv07T1z0zBIM/wDj9c/1uPn9x6f+r2K/mj/4Ej2ppGUZwKqi5uxIgcQ7SecZzivJofiD401GFfsugRTp94NDZzNnHHZqsL4z8fxxyL/wix2sMEnT5+P/AB6qWLh2f3B/q/iv5of+BI9bM3OMU15mVwFAxjvXkcfjTx4igL4ZyP8Arwn/APiqvaB478RXniiz0jVtNt7RZw7ENBJG+ArEEbm6ZXHT1q44qm2lZ6+RM8hxUISneLUU27ST0Wp6YJpS5GEx+NOWc4wwG726VEkv7hTxUsJDfMTzmuhnigsxJbcBgdMUfaQZAgB5HemsQWYZHXFIkK+YGycikgJXkZSuAOajeWcH5RHj3zTXAd+T909qGAHeqsBNvkCBjtzjPFIsxYcjmq5w/wApPtSSRiKIMuSScc1LJdyY3RB5FNe8wPlX8xSeUCpJJqAqAx5oQK5p0UUUygooooAKKKKACiiigAooooAKKKKACiiigAooooAKKKKAKS2vOTj86l2IoximSvtjI/5adhVaNgZD5hwPb1pSJbJy/lHI4qVpQUTOckVGWl3hSo2nqaimiVyNhJf096UZApD5UDqSBSRocEcVGC9uh84BV6k9anXd+6eEbkbBcnsP85q7lFbYReODjp/hSvDgqeOKmkUC5eT1GKmHlv8AxGgCmzMFABoiiYLkkZzVoxgMcZxT5WO0soBAoApbWMpXI4p0ZcRE571Yhx5hc9SKVidh2jK9zUNgVnuEtwDIGO7piktp0u7ZmUH72OfwrwPU7O3u/Feu+e7rtvpcbfd29qoy6Um7bCXZiOASK8115uV0vxPXxGX4LD1PZ1cQ1KyfwX3Se/N5n0k0beQQCB8v9KrqZI4uWHHpXzwmlWq3Fqs8kqxs4E5BGUGRnHH19a6q28NeBZVUyazqIznOF/8AtdbqtUt8P4/8Az+rZd/0EP8A8A/+2PZ48Sxe+2ojDsY5xXnFh8NvCOpJJJa6nqciRgFjuUYBzjrH7GsLxz4H0nw3ocF/p1xeStJcrF+/ZSMFWJ6KDnK03iakVzOP4/8AAOjDZbgcTVjRp4h3e3uf/bHsLsegNG0rGGp5iWNW3kjIpgCsgVSSBXeeI0Tqcjce1JPh4VUeueaFDKhXHGaA5T0qWSQMu+QA+lcZ461bWtK1DQ7PRbxLWS/leJi0asCcoFzuU4A3HpXaucyjbzxXCePs/wDCVeDNwwPtv/s8Vc+IbVN2fb8z1cljGWMippNWlo1daRb2Gf2d8SZJlU+INN3EcHy1/wDjVK2l/EqPK/8ACQ6b83B/dr/8arvDAGlEq5IAxXEfEzxJfaNpsNlYRW8q30M8U/mqcrwo+XBH94+vaj2C/mf3s3hmk3/y6p/+AR/yOV8SeI/HHhKESXutQSL5gi/cQRtyVLd4xxxWpp8vxCvrSxuoNdslS/jSRA8SZAYAjP7rj73avGZopJrp3uV2EgZ2n2H1r6d8IbIfB2lqxIDafAB/37FCoL+Z/ewnmc1/y6p/+AROG8S3fxB8LafHe32u2ckbyiECCJCckE94xx8pr1hsYP0rzn4sNGfCNoqNnF8v/oElehFucUqKcako3b23+ZOYzjVwlCtyRi2535Ule3LbYfGcCoGYs26rMajaMk0wxqYyqEkmuk8hCRqjHBHanSRhBxUNshNw6txgHp9amczG5VNg8kj5m7g8/wD1qTYNjE/izTgBmmqCzS5/hPFNRmMypgc0uYm4sg54qOR2jjDA85xUxZQW807cdMUbkZAc/u+xplCNcZIHP5UxJCty2T2/wqfyo1ZTuPBzRMR95eTmpJsG9WQkg4qpJMqzMADT/OnjOxEUk88//rpyRSTOXlXaSOxqkIkkJKkioD556OPyqxMOCDUSBRnmmIkiViPLcggnpXmXxZuTbah4cmUkeRLKwwM4wYz/AEr0xpI5VPlNufoBivLfjImP7Bx98+fke/7uuXFfw38vzR7OSf75H0l/6RI5JdQm1zXgu8nzv76gdF9vpXW3Pw+u7m0s3V7QGWPKkyPxkDrxWT4A0y6TXNOv3ixAPMy+4f3WHTOetezgoYxljgihnnWPLE/tr4fwq91eRNaf6lI7dQ7Bm+fPzKOOD3rtdF8W23iEzC1S4RIdvmCVFGQ2emCfQ1uP5vlAQKGXPBNeGeH3/tDxFprx/N5N3ETjjGXHr9KalYhnusflsoZFIU9Aa8/1iAD4z6HHgc2LHr7TV28pKnCjL9wa858Zz6rbfFHSpdMtoptQWx/dRSH5W5lBz8w7Z79qVd2jF+aPXyaHPVqRva8J76Lbqz0+OJQgQjp71MqqoyBxXmv9q/EfPm/2BpuDx/rB/wDHaz9V8XeN9G0ua81HSNOhtY9peTO7GWAHAkJ6kdq1VZP7MvuZj/ZM/wDn7T/8Dj/mepb13vgHINMad1kADdvSvFIviVrsSfaltNPKOBICUfp1/v1Knxi1wt8trphP/XKT/wCLpuqv5Zfcx/2TP/n7T/8AA4/5ns8ZdvMOfepEjdxnIrzqDxD8Rbuyiu4dB0xreaMSo+8DKkZBwZc9DVXUvGfjrQbCO9v9G0yG2d/KVyS2WIJxhZSf4TUSxMYq7T+5mlPJatSShCpBt9FNM9L8mQOSGXrTgHeQxswIAzioNGvJNR0XT751US3FvHNKFGFUsoJxntyfWrQnj+1ugb5wORj6Vd7q55M4OEnF7oCWwQD1pqwFuTipGkI6YqMzyscbVxQmJIu0UUVYgooooAKKKKACiiigAooooAKKKKACiiigAooooAKKKKAPNfF2p+In8d2Gh6HqEVqbm08webGpXcDISSSrHotRyaN8SIxuPiDTeT2Qf/Gql1V93xs0E/8ATi3/AKDNW34ss5rjT1ESbj54PUDjDVxcvPKTbe/c9vFYxYSlQjCnB3gm24pu92t/keV3fj/xhaXSQSaupdl3ArbxYxz/ALHtTY/Hni57u3hXVl3zuFUm3iwCSBz8nvW/4D+w6tp0lpLM4mkuG2qgxkBVPUjHY10mpeANNms5mjnvDc+WxjTemC+OB93196hU1f4n95wrOp/8+qf/AIBH/Iy7O0+I2s2rypr+n7A2wh41ByMHtF71BNqnjbw/r+iWOp6zbTQXl0sJSCJDlQyhgSYwRw3asyzg1TwPq8F3c2yR2MYLySyMHKlgUHCnPXHbvWj4k1+21vxF4LnglV9t2rttRlA3PEe/0p1I8seZSfTr5np5bjvrVdUalKFmpbQitot9vI9P37zjvUgRowTkUzHmMZV5DU4yM3BA5rtufPiCXc2OadM+xTH3PNMMWBuGeaSOUH72AfancCWMfuwT1qtLcNHYyEE7sjBx7iiQs0hwBt9anuCioQDSsB4DLaXN94l1xoJEUi8kLb++Xb2rsfDPguS6kWe8NvLGrspAdgfu8dAO5q78P2lHinxj5Shv9NGc/wC/LXoMscAOx3YEjP8AniuCjS5o39fzPTzuN8bJ+UP/AEiJyl14C0hrK6K2aCfy2MbGaTAbBwevriuVXwFqYAeOezEfYF2z/wCg16uuI0+TlQOSfSsPXvEFvp9lcMZEBTb95GPUj0+tazXKjyuU89sNbvdBOpWnnnK/uzsRSPl3DuKo+LdTv9S8G2U084e3a6yqlQCCA47D696qParrOviaEsyy3W+QqcYDPnjP410Pj2wGn/DzToV3bFvQAWIJ5Ep7VzTk3CSPWyL/AJGNL1PVNjvG/mEE4+X2qKKJlHzEfhUsnkxshZyGz8o9af54Pp+Verc80hebbxzTQxfvSONxzT4ztouZsjBxKCa4X4gOG8U+DcZ4vT/6HFXe24Djn17VwHj6Py/FvhEnob4/+jIqwxP8N/L80exka/2yPpL/ANIkddq+rrpOiXF0+/8AdlT8ignlgO/1rx2bxF/wlviSKzvDJLEt55USuqptDvjGV57Cu0+J1wn/AAjF7b5+Z0iIGP8ApqP8K5f4Sw6klzft9nTyi8BVtw5XL89a3kckFY5nxJpUWm+M7+y2L9mjVNiKxOCUQ9Tz3Ne7eHIjL4W0tYsKqWUIwfTYK8p+I/hjWb3xNeX1pZ+YJXjGfNQDAjA6E57V3nhHxZZHSLHRridEvraCG1MQjf8A1gUKVJ6dRjOcUkKepnfFeMp4VtQcZ+2r0/3Hr0iRFVunavOfizG6+FLVnGCb1P8A0B69AlicnO3t61jT/jT+X6nbi1/wn4f1n/7aTg4jGKrQzlWDMSVHXAp0TFBg8V5p4w0eDX/ilpOmXDyrFPY/MYiAw2+a3BII7VdWo4Rulc5cBhY4qo4TlypJybtfRK+10enSAxr50fBc/wA+adJKY1JbJPtXm138MfC1jGHudQ1NBu2/fQ8/hH7V5pJZ6c8Z+yzyyP2B4/oO1c061T+X8f8AgHUsJl7/AOYh/wDgH/2x9JLuk2tEdoPL57/55qURBZAw6ivm+Lw9NPAXijdmC5xvUc4quNJa1mUakHgjxklWBIHbpnvUKtU/l/Ef1LL/APn+/wDwD/7Y+jnbzXkXuCRTgQkCowzg9q8A0q3sIPFegGynkk3X0O/eOnzrjHA96+g5NmPmJC+tdNGq53TVrHPjsHTw8adSlPmjNN7W2du7HyOmOAc9qhO9j1GKYSnmJg96lnJ8sbOee9bWPPuNaKQXKNuXGP8AGpSzr0NEbS55UUSFz2FAWIz5kh5YU9YH9RUeX/uil2zHog/Oi4comxYoy0Yww6GvOfiXbSX2teFbaQqwnuHjGeB8zRDnH1r0n5YozIDyPWuB8fMx8V+CnIHN9kf99w1jiV+7fy/NHrZL/vkfSX/pEjpNC8PWml21vbNCvmx7uVdiOST3+tbgjQ5ULwvHWo5gjxszEiQ9h0pInUDZnk4FVKJ5XMZfiLxBD4ftVZllx5gT92oPUE9z7V5J4OtZIddtWVlC/aYSw9RurufiO0F1pkdlI5BjuUfCjn7jd+nesH4eastpezwuyjz5IVGVJ7sO31rFvUtanqM8LS/NCQrk8lvSuG1oFfjToXn/ADD7C3T6TV02s+INLscpc3WzDAf6tjyRnsK5CfULfUPjJoc1nJ5qrZuudpHO2Y98etKrLSPqvzPTyv4qv/Xuf/pJ6FLE0kY8khUzwDXifxI1m/uPENvown/4lFxaK89uUXLuHcg7sbhyq9COle5sWUb8DceCK+dvGGpjUvHNh/bJW3h+ybWaEHIAMhH97vXq0Hc8JvU7u28Cade+FbTyLaNZ5rJdjPNJgMUGCefWuP1D4UeILUG6hvNNWBAAy+Y5YknHdPcd67rw1408NSWttpkGpFpIUit0UwyAk42jJ247V2lvcui74QrW4PzMeoP+cVdR2RSZ4TH8Rtd0YJo8l+5Fti1UJBEVGz5epGccfWtDxD4zj1/wXY6dL57X0Vz5skjIqoR84GMHrhh29a9c1LQLfVLC8ineZReROvyMB94EHGQcde9ef+N9HTw98O9N0iAyNBb3vytKwLHcJW5IwP4j2rgxetCR6+Rv/hRo+p6D4XS5j8J6S/mL5f2GE4742D2rWijik/fouJG4JJ7f5FZfhxD/AMIroTAdLKA/+OLWyszbyGAApR+FHHiX+/n6v8yPBJpSqqORTzzUbgtxQjG5cooorQQUUUUAFFFFABRRRQAUUUUAFFFFABRRRQAUUUUAFFFFAHm+sFR8a9CIGB9hb+U1dVrkgWyQ8/6wfyNecePbu6074iabcwxo06WI2q/IOTKOx9zWc1hr+pMZ0sYj5p83h1A557t71yU95+v6I7M4fuYb/r2v/SpFLwDqkOmazbxSrISXdvkAx/qyPX2r2qG9hltvPCNtCB+QM4xmvNNW+H0NnZyPEbokAH5pE9celc1cajKlrNpzKgESNAvBycDbyc4zxWbumeCptM7H4g67YT2kmneRKZ5YkZWZF2gB88nOexrkbFNviDwtuwVN1Dge29K6P4b+G1vLQ303mq0dw6fKy4xsHt71peNrb7P4p8GR87ftu0EnsHioqXdP7vzR9Bw+28bH0n/6RI9MUIBwoA9MUyRQCoAAJ9qr+UVnY4+XHWrbsrDg8iu1I4RgGDtPOKg8oySB0wFAwRTC7pdOcDGP8KsrKHGc07AxCoEYGBu7moYo2U/vSHHvzVjINODqvU0kK55z4EDf8JZ4z2HaPt3Y4/5aS13c2VPlscyEZDegrhvAcsKeLfGhkcjN9xx/00lrvZLhoLZ3kAVgeB1rnoO1L7/zZ6udu2Nl6Q/9IiLJKtvbAuCfk5x9K8x8a+ItPkF9py28wuD5fzlF2/wt1znp7U/xrra3jxQWrJJIplRxtIwTgd/xqv4Q8JXtxqFnqlxA6wNv3OsiYHDL069aynJzZ5V7jPCOky3NxBPGYgivE7A5yRnPpWv8W4jF4PtBwFF8uAP9ySvQLa2SziwhY/KB83tXA/F+Vn8KWqkDH25D/wCQ5KmpTSpSZ62Rr/hRo+p3DupZdwzzxmngq3QYpRJuZQccmiUbXJHSu53PLHeUVGTimFlU4IqTzA6EA81EUO4kirSIuOjhdDuyMD0Nef8AxJlWPxF4RkIOEu2Y468PFXoBhR3DgnjivJ/jHcBv7JEZBaLzxjHf5P8ACscV/Cfy/NHt5Gv9sj6S/wDSWZnxH1yK9vl0yHz1kmt0YFsBeHY84P8As+ldn8N9Gm0rSmluWif7VBA0ZQkkfKTzkD+8K8X0DUIrbxBa3924jEQYEhSRgqw6DJ6mu5uvi3eW6xwWKWMqINil4ZMkDAH8QrW5zShdaHp3iOOOOwSV0UsZQCcc9DXhllrkOm+OLmeQTGOLUt7KmMkLISQOaj8TeM9c1q2V5bSzCNKGBjVhyFI7tV34e/D618Vvfz373UZBic+RIgHz7ieoPpSHyKMfeOp+IHiqy8Q+FbUWkVyn+lh/3yqOArjsT6162b2LeEKsS3A4FeT+PfC1r4Y8DWFpaSTvFHeBVaZlJOVkY9AO9epTEytuXnAxWVP+NP5fqbY1/wCwYe3ef/tos0qLIRg/lXC37iT41aEVyP8AQn/9Bmru4iBGN/BryX4ku3/CeWDQgMwsRgH/AHpKWKdor1QZPF89V/8ATuf/AKSbvxDupf7NCQyyRut5gkMRxh/SqfhTwiLpftTQ2TRJIysrrkn5R/s+9edXUH2iVw2Q+8lgD0NdlDY654Pgae7so4oEO9md1fG75RwreuKy+I8/Y9GtNDtbJiZLS1KkjAWMdB+FJqnhyx1WFmhsLJeAvzwqOhz2Bqj4V8VQ6shilkjDYjUBI2GSc+tdRKBF06e9aRpolyZ5V4h0OPR/FXhFY4baIy3yg+Su3OHj68D1r1hwAoUgEg1598QGB8T+CyP+f0/+hxV3YQTKEbIxzxToxXtJ/L8j0cc/9iw3pL/0tkuxZeVUDb6ikkUqgYnjNL5UcbLhjye9RS7mmYKMr2NdNjx0TlsMG5wO1I0qt0BpId6oTIAq55IpWaEn75/KlYoZtbrmp4zxzTDHER95qrtBHuOGbrSsLmHuplnV1OIgMFT3P0/KuA8ebv8AhLvBwJ4F/wAD0/eRV3VspUcjHNcR49x/wl3gvB/5f/8A2pFWWJ/hP5fmj1slf+2x9J/+kSO9ELmbeSCnpmlYLAryOoIA3cDnipimRxXEfELxFqGj2EcNlBbyRzxTLMZQSVAAHGCPU+tKtJrY8qKuc18SdetbtmsraOaO5jnR3kIABXyzxkHPcflWt4F02CI37TW8DuPLMbbASh+bkEjjtXJeEdV09tQe61u4NtC8LANEjHLbhgYAJ6A1fk+Jesz201rPbWC+ehjXbG+TkY/v+9c8W2bbDfiDbXa6jNKJ8RNIgVQ54/d+n4Go9Djk/wCFnaSqthzDJg5/2JKis/DGuazCt/BYh/Nz92VFHBx0LZ7VpQ+Hk8P/ABW0eytTK/mWzy/vWUnJWUdgP7tKaatfuvzPRyrWdX/r3P8A9JPUFka3ciZi/GODn+dfPvj6xNx41soohGpazGMjA+9JX0NbCVGw6gNjkUydIo4zAjEytyqnv/nFepSqRieLKKPl/UvD+qaRHBcwXccLSgyK0EjKwIwQcgDnmtjwX44vfD+qQf27qGp31vvd3iExlDAoQOHYA4PNe/TWsd3Y3Fu7MA0ZSTb1GQQcfrXz58UdGj0vxVax2xke2NkrM8jAkMXcY4A9B2rqjaoSe66R4ms/EMCy2UdxGiqjYlUDhhx0J9K574tAf8IbZnHzfblyf+ASVy/wXVrgasHGFj+z7SO4/edfyrqPi0FXwZZqCci+X/0CSuDHx5aUkevkX/Ixo+p0vhwu/hbRQrEYsoe/+wtbJ4iCn74PJrM8LqreFdGyT/x4wf8AoC1p3MAC5TJOe9KC91HFiv48/V/mSYwpzSIwz0qvHuPBHepvudadkYlyiiimMKKKKACiiigAooooAKKKKACiiigAooooAKKKKACiiigDw7xrM0vjmweTL4tAPmOe8lemaWLdNEsHFrFuNvHk7Rn7o9q82+IVlJF45sYLFTLK1kCquRz80mfTsKdp+s61oW2WS0tlGwRfP83oeze1cVLeXr/kdmbr3MN/17X/AKVI9PuoBINkhDgjkMM15L4y02O01qz8raonuJNwVNv8S9fXrWuPiRdsPLmSzVD1IjfP865G7ub3xNrkIjhjbbcnZs+XO5hjO4+1W46nhqOp6n4Ei+zaHOFPH2ljwMfwrWZ48mMnirwYMYK3vXP+3FW74I0u70nTpI72HynM7OBuDcFVHYn0rH8flz4u8GZAx9vO33/eRUqsbUn8vzR9DkCtjI+k/wD0iR3qZbgnn1ojBAYlicUqiRbhmKjaRgGkBkZWBUcjFdfU88VgrDO0ZqJvkbAqQIBCoOQ2eRTYgMYfhs8CmxMVSSKjlzjqRUzLjkdKaqM3apRJ594ACnxT4x3oG/00dR/ty1e8eatcQaRcPA8kRCJ9yQj+MelUvAlzFbeLPGQlfbm+44J6PL6VwEV3dX2swNdxpHKFKhU6YwT6n3rhg/3dvX8z1M8/32XpD/0iJueGoxqGpWrXGJDJNET5g3ZyeetexQwx2NssMSKqJ0CLtHJz0/GsPw1p8djp6SRs5e5ijZwxGAcdvzraER3d93pWlKPc8tEyy7hyP1rgfi+APCVoQB/x/J/6LkrvY3VA2Tjb1rgvi/IJPCFoy8qb5MH/AIBJTxC/dSPXyP8A5GNL1O2KkMp3Hg1M3MYJ9ac8zIMSAAGomPy7l5U9DXVJHlkNs5MoByevf2q5Jjywcd6qGJv4Bk+9SQiQttZQCBTRkxqXOwfcz+Nee/Ee2ivdf8KwGNFW4umR8qCCGaIcjv1r0eKZp4SCBnOOK4Lx9GsXivwWVJyb7nP+/FWGK/hv5fmj2cjl/tsfSX/pEi0vw30tpANlmP8AtzX/ABrRtvBOhWbIJdL06ckgZazTt+BrdZy10gbAXHJH415VrvxY1Kw1PU9PtobB5LaaWCBXikyxViq5O4DsPStziVRsp/FuysNOslSysLa2Auox+5jVODGxxwPWszwb4zbwpauRZG5+0pESBNsxtB/2Tn71R3mp+JvG+nRR3un2qPv84i3O3lcqPvOeMGuv0r4Vafd6daT3kt9HMsSOVSWPG4gEj7p4zU9TpUo8tmYXjLxi/ifQYAbRrdftAkCmbeBhWX0HrXtzBY5FXYDn2rxvx54VttA8PW8tu87A3Sp+9ZT1Vz2A9K9hmEZkBLHpWFP+NP5fqdGOt9QoW7z/APbQlUFzj5R6CvGvGatceOLBS5BNp97rjmSvZGRzGDGM8968j8dadcan8QNPsrCMzTyWQ2oWC5wZCeTgdAanFfCvVEZRJ89Vf9O5/wDpJ6FpPhrSX0eykk06yeRreMu7WyEsSoySccmtLWNNh1HTpYp0jcNtB3oG6MD3ryTwvrqeH9fuoNUZIPJjeBvlZsOGUEfLn0PPSvRn8a+HZGEkeo5I4/1Mn/xNSkecm2eYz+b4e8SgQTOY2vDhIyYwAr8DjtzXqnh2/fV7B5JAwIlKfM27oAf615h461xdev7GK0ZJTHLIseFK53FcZ3fSuz+G1ve2mgzx3EKpMbtmVdwORsT0Psa0ixyRW+Icfl+J/BnOf9NPb/birvrZOA2eorg/H7l/FngoOACL7nH+/DXdSncxjH3RyKdH+JP5fkd2O/3PC+kv/S2KqlgSWPFK/wAkCv1JOKhGBynIHXNKHmkYqiqU6g10XPLSF+1fvAmzg+9SB1P/ACzFRrcRmIsW+bPoadHNu5XBFIbHSzBQcJ+tMjlBz8gp/nGZf3eD2qv9u8t2U7QQcHg0zNkwXjriuA8eKV8WeDec/wCnH/0ZFXoYO1cnpWF4o8IWHiwWZv5rmP7Pv8vyGUZ3bc5yp/uiuesnKDS30/M9LK69Ohio1KrtG0l33i1+pvIxAHJNec/ESwkuJLXNywVzN8uMgA7eOtWD8H/DyjLXmpgf9dY//iKif4T+G1dFF9qfzHH+sT/4isZyqv7P4/8AANlhsuX/ADEP/wAA/wDtjP8ADPw+ivbKO4e+Ta6tiNrYEDDY/ve1d3b6Bor7i2j6eSMbSbZDj6cVyyfCLQGuGj+2antAyD5see3+xTJfhHoIkiEN3qTKT85MsfA/74+tKKqr7P4/8Af1fLv+gh/+Af8A2x30FtDZRKsEaRxjgJGoUDv0FeZeNtWOl/FDStQWIuYrHGwPtzkyjrj3rRl+Efh9Pu3mpn6yJ/8AEV594m8Fvb+ILfQ9MSaaW5gEqrJIgJILZ54HRK0qe0fKpRsrrr5ndgaOEh7V0ark/Zz05bfZfW7PbdA1NtV0eDUShjM24bC+7GGI6/hWhKBEdzAO4HDHqK+ddK1XUvAetT2M0EKXEUWxkl+fG7a/VDjuK9MX4p+FJj9nTVVMjcgfZpv/AIn2r0VhrnzTVzt7mQf2bdui7GELHI6k4NfOPxTu5TrkLs7ti0Tgsf7716FrnxQ0j7DMkV5C1wkcgtkMEuHbHAPHrj0ryfUtXu/FGpRXN3HEk6x+UqwggEDJ7k88mumnT5NybHqnwXttmn6hMH5litmIx04c/wBa2PiyT/wiNoP+n5f/AECSqXwhsNUsbfUjqVssME6QfZWVwxkXD8nBOOCvXHWtD4uQiPwjaMCcm+Qf+OSV5+YO9OR62Rf8jGj6nW+F8f8ACJ6Nxj/QYP8A0Ba1cEOSTuHoaw/C8Snwvo7Akn7FAT/3wK3VKn5M8jmph8COHFfx5+r/ADIAQGHFOf5/anSoD93J4psYKfeGKowLtFFFBQUUUUAFFFFABRRRQAUUUUAFFFFABRRRQAUUUUAFFFFAHlPjFNRtfiDp2q22h3WpwwWe1kjiZlJJkGCQpAI3A9KZP4pvbiMRv8OLhsHPMRP/ALSr0yIrI4OaU26o7PluTXKqErtxla/oen/aFCdOEK1BScVZPmktLt9Gu54zJdXk6HZ4AnHbItyf/adP0rUNQ0q4eb/hBLp2ZlZD5DKVIJPB8v3r1neLcbPXnmpREZwpOce1U6NRfb/BGf1zA/8AQKv/AAKf+Zwa+PteIwvgfUj9C/8A8brJ1HUNd8T+JfDkk3hnUbCOyvFZneN2GC6ZJJQYA216m0JhcbMkYzzUsjBVQj72MmpdGUlaU9PRHTQzPDUZc9LDqMrNX5pPdW6vsyMs6fISxI75qRc89aZy/wA7dT6VIpBBrqTPIIJXYHHP506JssCf1okXLGmYx0psTLYIZRTd2wU2E/yqK4kCn8KlEnjcyeINM8T67Na6Hqc0dzeSMrxRSAEb2IIIU5BzUdg+rWd7HPJ4KvZmXOFa3fJBBH9w17ZakShvbHSlY/6Un0/xrj9hJOylp8j26mZYetLnq4dOVkr80lsrdHbZHn0XjvW44o4k8A6gPLAX5d46f9sqd/wnviEPu/4QTVPzk/8AjVd1lkmYqMkt3p4e5aTDxqI+5HX+dW6VSP2/wRk8bgv+gVf+BT/zOCHj/XQHB8B6iS3u/wD8arn/ABbrGv8AijRodOHg/UrXypxNv8uR84VhjGwf3v0r111PmJgcE0/aA5zR7GdSPK56eiNcPmuGoVFVp4ZKS296X6seQknUrx60ybYsQUbeD2qukhJ4xSlWdyMV1s8dE8eOvFMbKzMRn8KQsYhzToyH+b1pEtEcMTRMBk+vSuG+I9vqP9q+G76x066vvsc7zOkEbN0aMgEgHGcGu6W43TKBj8qcZdxI44qKkPaR5bnTgcU8JXVZK9r6eqa/U8+/4TnX/NDf8INqZIHT95/8brnzPdPqct7P8N5pXlmMx32hJJJyeTFz16168ZSsobjgU8TTFhvRQnYj0/OodOp/P+CO1Zhgl/zDL/wKf+Z5onii7gULD8NJ4SP7kJXj8IqvRePNejQKvgLUtoAAA8zGP+/Vd1KHkkPlKGNKHnj2CRFUUvZ1P5/wRax2Df8AzDL/AMCn/meS+Mda17xVpMVh/wAIfqVn5c4m37HfOFYYxsH979K9eO08kCo3IkkJU5FPZdoP0qqdJwbk3ds58di416cKUKahGN9m3vbv6E0bqEA4rzLXby30z4vaLdXEkUUKWTbnkcIoyJhyT9a9GjGRXLeIPBOjeJL+O91G6vIpUiEQEDKBtBJzyp5yxqa8JSj7u9wyrE0KVaSrtqMoyjprurGf4kj8I6nZLJBqGhw3UkwkkkjaIu2Qc5IIJ5NctqfhHSEiaW28d2OQB+7jZOefaSuiT4S+H2ck3mpbP4T5ic/+OVJH8IfD7oW+2anwcf62P/4isH7f+Vfedyo5Qv8Al9P/AMBMPw/pmgQyq95r2mSNEyENM0eSR1PLe1egWeu+G7GIrHrWk/e3fLcxr7etc7/wp/w+FJa81MccfvY//iKhb4SaD/Dd6kf+2kf/AMRQnX/lX3jdHKH/AMvpf+AlPxjqtjqfi3wobG9t7ny775vImV9uZIsZweOh/KvR7cM1wxbONvf8K4qy+F+jadf2t7Hc6gZIJVlQPIhBKkEZwnTiu6hGD+Fb0ITTlKatc5MzrYaVOlSw0m1BPVq27b/UkjVNknC9KSEorY+XpUMcvDDjmlRWMh47VueWhojjeIqNu4njA5qSGDYOT+lQJuiukBHbP86me5KsRx+VBVhIgIR+OfSq4RJJZCQv3s9KuPGWjNVvK8sknPNMhomYkwt1p7uVSH6f4U4qPJb61HP92H6f4Vm9CkOYloz1qHyw0sZ44b0qwgzGKgWQecRno1CVxSQvmhL2Tjt6/SnRupDHjimNFvnZxnkUkUZ2tV2sSiSQRyoAJFVs5PPNeY+L4dUsfH2n6np+m3moLDZ4/wBHjYjJMgxuAODg5r0lUgWQl3YNjkU6BY1mUsxEnOB2xWVWPMrXt1O3BYr6rUc3HmTTTW2j0ex4j4oTVPEtssSeDLy1vxKJJLsWzPK6hSNpOwHHK9T/AAiuQHgnXIJllOj6ghUd7Jx/Svp5iiXTyxnMpGCp6Y4/+tSXEPnxnzMh+gA9KqE63/Pz8F/kdP17Bf8AQMv/AAKf+Z8yHwZrksiyHR9QcKd3Nm5/pWtpeg6rYTrI3hW8uNpJwbNh1GP7pr3+NJIwUVc9uanhjlQ5dcD61b9s/wDl4/uX+QfXsF/0Cr/wKf8AmecWfi/WrS2hgh8B6gvkoqEorjOBjtFWX4u1jxD4q0mKxPhLU7by5xNvKSPnCsMY2D+9XsKRhdzDPzcmmOQDyawqUZzTUp6eiNsPmeGoVFVpYZKS296X+Zj+Goprfw7pcUySRulpCrI4IKkIMgg9K2cA8qefamcMOOajMjRMSQMdK2SsrHkVJc83N9Xckw2R8xp/BHLD8aYGLDNMbd6UiLGjRRRVAFFFFABRRRQAUUUUAFFFFABRRRQAUUUUAFFFFABRRRQA0Rov3UUfQUpAPUA0tFADDDExy0aE+6inBVUYCgfQUtFACFVPUA/hSFEPVV/KnUUAN2L/AHR+VLsX+6PypaKAG7EP8K/lR5af3F/KnUUAIEUdFA/CmmKNusan6in0UANVET7qqv0GKNi5ztGfXFOooAb5aZzsXP0pdo9BS0UAJtX+6Pyo2qTnA/KlooAYIox0RR+FLsUHO0Z+lOooAaY0bqin6igIg6Ko+gp1FADBDEDkRoD/ALopfLT+4v5U6igBvlRn+Bfypdi4xtGPpS0UAIEVTkKAfYUFVb7yg/UUtFADRGg6Io/ClKqeqj8qWigBoRR0UD8KQwxHrGh+qin0UAN8uMDGxcfSlCqBgKAPYUtFACFQeoFJ5af3F/KnUUAN8tD/AAL+VARR0UflTqKAGCKMdI1H4U4Io6KB+FLRQA0xoW3FFJ9cUhijPWND/wABFPooATAxjApCiHqqn8KdRQAm0YxgY+lIUU4yoOOmRTqKAECqBgAflTfKjyT5a5PfFPooATYo/hH5UgRR0UD8KdRQAwxRk5MaE+u0UvlR7t2xc+uKdRQA3y0znYufXFKVU9QPypaKLAN8tAc7Fz9KXAPYUtFACYHoKQoh6qp/CnUUANCIOir+VBjjbqin6inUUAN8tB0Rfyo2J/cX8qdRQAUUUUAFFFFABRRRQAUUUUAFFFFABRRRQAUUUUAFFFFABRRRQAUUUUAFFFFABRRRQAUUUUAFFFFABRRRQAUUUUAFFFFABRRRQAUUUUAFFFFABRRRQAUUUUAFFFFABRRRQAUUUUAFFFFABRRRQAUUUUAFFFFABRRRQAUUUUAFFFFABRRRQAUUUUAFFFFABRRRQAUUUUAFFFFABRRRQAUUUUAFFFFABRRRQAUUUUAFFFFABRRRQAUUUUAFFFFABRRRQAUUUUAFFFFABRRRQAUUUUAFFFFABRRRQAUUUUAFFFFABRRRQAUUUUAFFFFABRRRQAUUUUAFFFFABRRRQAUUUUAFFFFABRRRQAUUUUAFFFFABRRRQAUUUUAFFFFABRRRQAUUUUAFFFFABRRRQAUUUUAFFFFABRRRQAUUUUAFFFFABRRRQAUUUUAFFFFABRRRQAUUUUAFFFFABRRRQAUUUUAFFFFABRRRQAUUUUAFFFFABRRRQAUUUUAFFFFABRRRQAUUUUAFFFFABRRRQAUUUUAFFFFABRRRQAUUUUAFFFFABRRRQAUUUUAFFFFABRRRQAUUUUAFFFFABRRRQAUUUUAFFFFABRRRQAUUUUAFFFFABRRRQAUUUUAFFFFABRRRQAUUUUAFFFFABRRRQAUUUUAFFFFABRRRQAUUUUAFFFFABRRRQAUUUUAFFFFABRRRQAUUUUAFFFFABRRRQAUUUUAFFFFABRRRQAUUUUAFFFFABRRRQAUUUUAFFFFABRRRQAUUUUAFFFFABRRRQAUUUUAFFFFABRRRQAUUUUAFFFFABRRRQAUUUUAFFFFABRRRQAUUUUAFFFFABRRRQAUUUUAFFFFABRRRQAUUUUAFFFFABRRRQAUUUUAFFFFABRRRQAUUUUAFFFFABRRRQAUUUUAFFFFABRRRQAUUUUAFFFFABRRRQAUUUUAFFFFABRRRQAUUUUAFFFFABRRRQAUUUUAFFFFABRRRQAUUUUAFFFFABRRRQAUUUUAFFFFABRRRQAUUUUAFFFFABRRRQAUUUUAFFFFABRRRQAUUUUAFFFFABRRRQAUUUUAFFFFABRRRQAUUUUAFFFFABRRRQAUUUUAFFFFABRRRQAUUUUAFFFFABRRRQAUUUUAFFFFABRRRQAUUUUAFFFFABRRRQAUUUUAFFFFABRRRQAUUUUAFFFFABRRRQAUUUUAFFFFABRRRQAUUUUAFFFFABRRRQAUUUUAFFFFABRRRQAUUUUAFFFFABRRRQAUUUUAFFFFABRRRQAUUUUAFFFFABRRRQAUUUUAFFFFABRRRQAUUUUAFFFFABRRRQAUUUUAFFFFABRRRQAUUUUAFFFFABRRRQAUUUUAFFFFABRRRQAUUUUAFFFFABRRRQAUUUUAFFFFABRRRQAUUUUAFFFFABRRRQAUUUUAFFFFABRRRQAUUUUAFFFFABRRRQAUUUUAFFFFABRRRQAUUUUAFFFFABRRRQAUUUUAFFFFABRRRQAUUUUAFFFFABRRRQAUUUUAFFFFABRRRQAUUUUAFFFFABRRRQAUUUUAFFFFABRRRQAUUUUAFFFFABRRRQAUUUUAFFFFABRRRQAUUUUAFFFFABRRRQAUUUUAFFFFABRRRQAUUUUAFFFFABRRRQAUUUUAFFFFABRRRQAUUUUAFFFFABRRRQAUUUUAFFFFABRRRQAUUUUAFFFFABRRRQAUUUUAFFFFABRRRQAUUUUAFFFFABRRRQAUUUUAFFFFABRRRQAUUUUAFFFFABRRRQAUUUUAFFFFABRRRQAUUUUAFFFFABRRRQAUUUUAFFFFABRRRQAUUUUAFFFFABRRRQAUUUUAFFFFABRRRQAUUUUAFFFFABRRRQAUUUUAFFFFABRRRQAUUUUAFFFFABRRRQAUUUUAFFFFABRRRQAUUUUAFFFFABRRRQAUUUUAFFFFABRRRQAUUUUAFFFFABRRRQAUUUUAFFFFABRRRQAUUUUAFFFFABRRRQAUUUUAFFFFABRRRQAUUUUAFFFFABRRRQAUUUUAFFFFABRRRQAUUUUAFFFFABRRRQAUUUUAFFFFABRRRQAUUUUAFFFFABRRRQAUUUUAFFFFABRRRQAUUUUAFFFFABRRRQAUUUUAFFFFABRRRQAUUUUAFFFFABRRRQAUUUUAFFFFABRRRQAUUUUAFFFFABRRRQAUUUUAFFFFABRRRQAUUUUAFFFFABRRRQAUUUUAFFFFABRRRQAUUUUAFFFFABRRRQAUUUUAFFFFABRRRQAUUUUAFFFFABRRRQAUUUUAFFFFABRRRQAUUUUAFFFFABRRRQAUUUUAFFFFABRRRQAUUUUAFFFFABRRRQAUUUUAFFFFABRRRQB//2Q==;clipPath=inset(40.22% 10% 39.78% 12%);" vertex="1" parent="1">
          <mxGeometry x="410" y="300" width="300" height="60" as="geometry" />
        </mxCell>
        <mxCell id="8h9t13kz1k91gfvvCFST-7" value="`" style="shape=image;imageAspect=0;verticalLabelPosition=bottom;verticalAlign=top;image=data:image/jpeg,/9j/4AAQSkZJRgABAQEAZABkAAD/2wBDAAgGBgcGBQgHBwcJCQgKDBQNDAsLDBkSEw8UHRofHh0aHBwgJC4nICIsIxwcKDcpLDAxNDQ0Hyc5PTgyPC4zNDL/2wBDAQkJCQwLDBgNDRgyIRwhMjIyMjIyMjIyMjIyMjIyMjIyMjIyMjIyMjIyMjIyMjIyMjIyMjIyMjIyMjIyMjIyMjL/wAARCAHgAoADASIAAhEBAxEB/8QAHwAAAQUBAQEBAQEAAAAAAAAAAAECAwQFBgcICQoL/8QAtRAAAgEDAwIEAwUFBAQAAAF9AQIDAAQRBRIhMUEGE1FhByJxFDKBkaEII0KxwRVS0fAkM2JyggkKFhcYGRolJicoKSo0NTY3ODk6Q0RFRkdISUpTVFVWV1hZWmNkZWZnaGlqc3R1dnd4eXqDhIWGh4iJipKTlJWWl5iZmqKjpKWmp6ipqrKztLW2t7i5usLDxMXGx8jJytLT1NXW19jZ2uHi4+Tl5ufo6erx8vP09fb3+Pn6/8QAHwEAAwEBAQEBAQEBAQAAAAAAAAECAwQFBgcICQoL/8QAtREAAgECBAQDBAcFBAQAAQJ3AAECAxEEBSExBhJBUQdhcRMiMoEIFEKRobHBCSMzUvAVYnLRChYkNOEl8RcYGRomJygpKjU2Nzg5OkNERUZHSElKU1RVVldYWVpjZGVmZ2hpanN0dXZ3eHl6goOEhYaHiImKkpOUlZaXmJmaoqOkpaanqKmqsrO0tba3uLm6wsPExcbHyMnK0tPU1dbX2Nna4uPk5ebn6Onq8vP09fb3+Pn6/9oADAMBAAIRAxEAPwD3+iiigAooooAKKKKACiiigAooooAKKKKACiiigAooooAKKKKACiiigAooooAKKKKACiiigAooooAKKKKACiiigAooooAKKKKACiiigAooooAKKKKACiiigAooooAKKKKACiiigAooooAKKKKACiiigAooooAKKKKACiiigAooooAKKKKACiiigAooooAKKKKACiiigAooooAKKKKACiiigAooooAKKKKACiiigAooooAKKKKACiiigAooooAKKKKACiiigAooooAKKKKACiiigAooooAKKKKACiiigAooooAKKKKACiiigAooooAKKKKACiiigAooooAKKKKACiiigAooooAKKKKACiiigAooooAKKKKACiiigAooooAKKKKACiiigAooooAKKKKACiiigAooooAKKKKACiiigAooooAKKKKACiiigAooooAKKKKACiiigAooooAKKKKACiiigAooooAKKKKACiiigAooooAKKKKACiiigAooooAKKKKACiiigAooooAKKKKACiiigAooooAKKKKACiiigAooooAKKKKACiiigAooooAKKKKACiiigAooooAKKKKACiiigAooooAKKKKACiiigAooooAKKKKACiiigAooooAKKKKACiiigAooooAKKKKACiiigAooooAKKKKACiiigAooooAKKKKACiiigAooooAKKKKACiiigAooooAKKKKACiiigAooooAKKKKACiiigAooooAKKKKACiiigAooooAKKKKACiiigAooooAKKKKACiiigAooooAKKKKACiiigAooooAKKKKACiiigAooooAKKKKACiiigAooooAKKKKACiiigAooooAKKKKACiiigAooooAKKKKACiiigAooooAKKKKACiiigAooooAKKKKACiiigAooooAKKKKACiiigAooooAKKKKACiiigAooooAKKKKACiiigAooooAKKKKACiiigAooooAKKKKACiiigAooooAKKKKACiiigAooooAKKKKACiiigAooooAKKKKACiiigAooooAKKKKACiiigAooooAKKKKACiiigAooooAKKKKACiiigAooooAKKKKACiiigAooooAKKKKACiiigAooooAKKKKACiiigAooooAKKKKACiiigAooooAKKKKACiiigAooooAKKKKACiiigAooooAKKKKACiiigAooooAKKKKACiiigAooooAKKKKACiiigAooooAKKKKACiiigAooooAKKKKACiiigAooooAKKKKACiiigAooooAKKKKACiiigAooooAKKKKACiiigAooooAKKKKACiiigAooooAKKKKACiiigAooooAKKKKACiiigAooooAKKKKACiiigAooooAKKKKACiiigAooooAKKKKACiiigAooooAKKKKACiiigAooooAKKKKACiiigAooooAKKKKACiiigAooooAKKKKACiiigAooooAKKKKACiiigAooooAKKKKACiiigAooooAKKKKACiiigAooooAKKKKACiiigAooooAKKKKACiiigAooooAKKKKACiiigAooooAKKKKACiiigAooooAKKKKACiiigAooooAKKKKACiiigAooooAKKKKACiiigAooooAKKKKACiiigAooooAKKKKACiiigAooooAKKKKACiiigAooooAKKKKACiiigAooooAKKKKACiiigAooooAKKKKACiiigAooooAKKKKACiiigAooooAKKKKACiiigAooooAKKKKACiiigAooooAKKKKACiiigAooooAKKKKACiiigAooooAKKKKACiiigAooooAKKKKACiiigAooooAKKKKACiiigAooooAKKKKACiiigAooooAKKKKACiiigAooooAKKKKACiiigAooooAKKKKACiiigAooooAKKKKACiiigAooooAKKKKACiiigAooooAKKKKACiiigAooooAKKKKACiiigAooooAKKKKACiiigAooooAKKKKACiiigAooooAKKKKACiiigAooooAKKKKACiiigAooooAKKKKACiiigAooooAKKKKACiiigAooooAKKKKACiiigAooooAKKKKACiiigAooooAKKKKACiiigAooooAKKKKACiiigAooooAKKKKACivn/wD4aa/6lH/ypf8A2qj/AIaa/wCpR/8AKl/9qoA+gKK+f/8Ahpr/AKlH/wAqX/2qj/hpr/qUf/Kl/wDaqAPoCivn/wD4aa/6lH/ypf8A2qj/AIaa/wCpR/8AKl/9qoA+gKK+f/8Ahpr/AKlH/wAqX/2qj/hpr/qUf/Kl/wDaqAPoCivD9C/aH/tvxDpmk/8ACLeT9uu4rbzf7Q3bN7hd2PLGcZzjIr3CgAorj/iP46/4V/4et9W/s77f512tt5Xn+VjKO27O1v7mMY715f8A8NNf9Sj/AOVL/wC1UAfQFFfP/wDw01/1KP8A5Uv/ALVR/wANNf8AUo/+VL/7VQB9AUV8/wD/AA01/wBSj/5Uv/tVH/DTX/Uo/wDlS/8AtVAH0BRXz/8A8NNf9Sj/AOVL/wC1Uf8ADTX/AFKP/lS/+1UAfQFFfP8A/wANNf8AUo/+VL/7VXoHwy+Jv/Cxv7U/4lH9n/YPK/5efN379/8AsLjGz360AegUUV4/42+On/CHeL77QP8AhHPtn2Xy/wB/9u8vdujV/u+WcY3Y69qAPYKK+f8A/hpr/qUf/Kl/9qo/4aa/6lH/AMqX/wBqoA+gKK+f/wDhpr/qUf8Aypf/AGqj/hpr/qUf/Kl/9qoA+gKK+f8A/hpr/qUf/Kl/9qo/4aa/6lH/AMqX/wBqoA+gKK+f/wDhpr/qUf8Aypf/AGqj/hpr/qUf/Kl/9qoA+gKKz9C1P+2/D2mat5Pk/brSK58rdu2b0Dbc4GcZxnAo13U/7E8Panq3k+d9htJbnyt23fsQttzg4zjGcGgDQor5/wD+Gmv+pR/8qX/2qj/hpr/qUf8Aypf/AGqgD6Aor5//AOGmv+pR/wDKl/8AaqP+Gmv+pR/8qX/2qgD6Aor5/wD+Gmv+pR/8qX/2qj/hpr/qUf8Aypf/AGqgD6Aor5//AOGmv+pR/wDKl/8AaqP+Gmv+pR/8qX/2qgD6Aorx/wAE/HT/AITHxfY6B/wjn2P7V5n7/wC3eZt2xs/3fLGc7cde9ewUAFFef/E34m/8K5/sv/iUf2h9v83/AJefK2bNn+w2c7/bpXn/APw01/1KP/lS/wDtVAH0BRXz/wD8NNf9Sj/5Uv8A7VR/w01/1KP/AJUv/tVAH0BRXz//AMNNf9Sj/wCVL/7VR/w01/1KP/lS/wDtVAH0BRXz/wD8NNf9Sj/5Uv8A7VR/w01/1KP/AJUv/tVAH0BRXz//AMNNf9Sj/wCVL/7VXqHw48df8LA8PXGrf2d9g8m7a28rz/NzhEbdnav9/GMdqAOwoorw/Xf2h/7E8Q6npP8Awi3nfYbuW283+0Nu/Y5XdjyzjOM4yaAPcKK+f/8Ahpr/AKlH/wAqX/2qj/hpr/qUf/Kl/wDaqAPoCivn/wD4aa/6lH/ypf8A2qj/AIaa/wCpR/8AKl/9qoA+gKK+f/8Ahpr/AKlH/wAqX/2qj/hpr/qUf/Kl/wDaqAPoCivn/wD4aa/6lH/ypf8A2qj/AIaa/wCpR/8AKl/9qoA+gKKKKACiiigAooooAKKKKACiiigAooooAKKKKACiiigAooooA+AKKKKACiiigAooooAKKKKAOg8Cf8lD8Nf9hW1/9GrX2/XxB4E/5KH4a/7Ctr/6NWvt+gDx/wDaO/5J5p//AGFY/wD0VLXzBX0/+0d/yTzT/wDsKx/+ipa+YKACiiigAooooAKKKKACvf8A9mX/AJmn/t0/9rV4BXv/AOzL/wAzT/26f+1qAPoCvkD42/8AJXtd/wC3f/0njr6/r5A+Nv8AyV7Xf+3f/wBJ46APP6KKKACiiigAooooAKKKKAPt/wACf8k88Nf9gq1/9FLR47/5J54l/wCwVdf+imo8Cf8AJPPDX/YKtf8A0UtHjv8A5J54l/7BV1/6KagD4gooooAKKKKACiiigAooooA9A+CX/JXtC/7eP/SeSvr+vkD4Jf8AJXtC/wC3j/0nkr6/oA+f/wBpr/mVv+3v/wBo14BX0B+01/zK3/b3/wC0a8X0HQbjXLtYYFJOfagDMFtMU3iJivrioiMHBr6QsPhdEPCzpLAv2nY2CVGc9q85uvhHq5upCkbbd3HK0Aea0V1mu+BNR0KHzbhGA9yK5PB9KACiiigAr6f/AGcf+Seah/2FZP8A0VFXzBX0/wDs4/8AJPNQ/wCwrJ/6KioA9gr4g8d/8lD8S/8AYVuv/RrV9v18QeO/+Sh+Jf8AsK3X/o1qAOfooooAKKKKACiiigAooooA+/6KKKACiiigAooooAKKKKACiiigAooooAKKKKACiiigAooooA+AKKKKACiiigAooooAKKKKAOg8Cf8AJQ/DX/YVtf8A0atfb9fEHgT/AJKH4a/7Ctr/AOjVr7foA8f/AGjv+Seaf/2FY/8A0VLXzBX1D+0Wu/wBpq+urRD/AMhS15x4R+FDeIdNFyO6g/cz3PvQB5LRXovjf4b3HhqINHGz5x0XHf61w39lX3/Ps9AFOirZ0u9UZNs4FVWRkbDDBoASiiigAr3/APZl/wCZp/7dP/a1eAV7/wDsy/8AM0/9un/tagD6Ar5A+Nv/ACV7Xf8At3/9J46+v6+QPjb/AMle13/t3/8ASeOgDz+iiigAp8cbSuEUZJpYoJZ2xGhY+1eteAvhlLqpjupUKgdivsD60AZHgTwBc6tfp9qhYREjnBHf6VH8SfCtv4dvWjhHAJ757ivqbRtEttMso4liAZe9fPvxw/5C0n+838xQB4xRRRQB9v8AgT/knnhr/sFWv/opaPHf/JPPEv8A2Crr/wBFNR4E/wCSeeGv+wVa/wDopaPHf/JPPEv/AGCrr/0U1AHxBRRRQAUUUUAFFFFABRRRQB6B8Ev+SvaF/wBvH/pPJX1/XyB8Ev8Akr2hf9vH/pPJX1/QB4R+0XEJ77wjEejG7H/omuk+HHgWzsrGG+C5dlB5OeoHtWL8fbaa41TwiYY2cK11ux2/1Vek+DFaLw1BuGCEXj/gIoA3biaG0gLybVQD2FYb+LdDRyrSw5HX5l/xrzX4m/EU2Ky6chwxBGd3qPpXgFxrl9LcSSC4bDHPagD6r8RXXh3xDAIZJo+SOjqK4bXvhdpzaHJc6cN7bCRh938hXhSazfrIrfaG4IPavbfht8QhcGHS5/n3ELy3qT7UAeKatpFzpd1Ik8ZUBjjII71m19P/ABA+HsWtWYvokC/KD90nqc+tfNepWn2K9eD+7QBUr6f/AGcf+Seah/2FZP8A0VFXzBX0/wDs4/8AJPNQ/wCwrJ/6KioA9gr4g8d/8lD8S/8AYVuv/RrV9v18QeO/+Sh+Jf8AsK3X/o1qAOfooooAKKmhtLi4/wBVEz/SpTpd8Bk2z4oAqUU50aNirggjtTaACiiigD7/AKKKKACiiigAooooAKKKKACiiigAooooAKKKKACiiigAooooA+AKKKKAClCk9ATVuw0241GYRwIWY+gzXtvw/wDhWt5abtRiZWx33L3oA8HKsOqn8qSvpLxZ8JbS305msoyZMDoSe9eMSfD/AFsSMBayYyf+WbUAcpRXQ3ng3VrGEyzW8iqBnJjIrn2UoxU9QcGgDf8AAn/JQ/DX/YVtf/Rq19v18QeBP+Sh+Gv+wra/+jVr7foA8k/aGBPgXS8An/ibxf8AoqWtb4RAjw0mRj5B/M11Xijw5beJ9Ohs7kZSKdZhyRyAw/8AZqn0PRIdEtBbwDCgY65oAXVNCstXXF1Erj3UH+dZP/CC6EOtvD/37X/CtPWNfstGhZrqVU44ywH86+e/EvxcvoNWkS1kzGMYwoNAHtF94D0V7ORY4Id56fIteI638INQm1KR7dAIyTjDgd6qWPxg1R7yNZH+Qnn5BXt+ifELSJtNje4niEhAzl1HagDwr/hTer/3f/HxWD4l8A3/AIcgEk6nBGfvA98V9UweNtEuJlijniLMcAb1qXX/AA3Z+KLRBKAUKjGDjjOe1AHxHsf+6fyr379mZSP+EoyCP+PTr/22rrLv4UaHZwmaUKFHcyEVtfDvS9G0x9UXSXRi3lebtk3Yxvx9OpoA7mvkD42/8le13/t3/wDSeOvr+vkD42/8le13/t3/APSeOgDz+iius8MeD77VryMiFzESMnafUUAb3wk0i31PWxHcxBl3r1XPr619S6bplppsKpbqqDHYAVyXgzwDZ6HBBcquJSATyfeuW8YeN73SvECWkR+TOPuj+9igD2avmf44f8haT/eb+Yr6F0G6a90iKd/vNmvnr44f8haT/eb+YoA8YooooA+3/An/ACTzw1/2CrX/ANFLR47/AOSeeJf+wVdf+imo8Cf8k88Nf9gq1/8ARS0eO/8AknniX/sFXX/opqAPiCiiigAooooAKKKKACiiigD0D4Jf8le0L/t4/wDSeSvr+vkD4Jf8le0L/t4/9J5K+v6AOK8e6lpFhc6SuporNIZfJzHuxjZn6dRXRaVPbzaSHt8LGU44x2rx79oeQRaj4QcnADXeef8ArjSXXxBg0zwfElrMplCICAwPagDz34vkHxE+D3H/AKDXm9a2u65Prd2Z5jkk+mKyaACu0+GX/I1W3/XRf61xgGSAO9elfDDw7ftrtvdiJvK3qc7T70AfS+qf8iuP9xa+NPEv/Icnr7N1dSnhnaeoRRXxl4l/5Dk9AGRX0/8As4/8k81D/sKyf+ioq+YK+n/2cf8Aknmof9hWT/0VFQB7BXxB47/5KH4l/wCwrdf+jWr7fr4g8d/8lD8S/wDYVuv/AEa1AHP0UVr+GbJNQ1+1tpPuu2D+VAHr3wW8O2OqwubuFWwW+8gPYetet3XgPRGtZVSCHcVOPkX/AAqvovh238LeHxPajDGPd1J6rXjF/wDFjU7fXvI3fuwwz8goAd4h+EN/cavNJaoBEXJGGA4rmda+GGp6PYNdSr8o/wBsHtmvoLw78Q9Kn0mB7qeISlBnLqOa6W7tbLxRpJjG1omPUH29vrQB8O7G/un8qQgjqCK+sv8AhTuj/wB0f99mvM/iF8MJbKVRpsLMMdgzd6APpiiiigAooooAKKKKACiiigAooooAKKKKACiiigAooooAKKKKAPgCrOn232u+ig/vGq1XNLuBa6jDM3RTQB9E/D74ZQ2scV86hsjPKjuAfWvXTNY6f8uVi9gK848AeP7S9tIrFSd4AH3fYD1o+I2iaxeF7iylKomWOHI7e1AHocmqabKMPMrD3BquJdDY42xZP+ya+RtU8Q63pl49u9y+VJH327fjVa38Z6ulzEzXL4DAn529frQB9ba54bsdb05oYoUG5SMha+cvH/w6l0F3lgjLbmz0A6k+9ep+AviXb3cENnM+ZMAZI+vvXpN5pljrNqGlVJNyZHANAHxz4IieH4i+GldcH+1bX/0atfbleFN8Lp4fH2k6nCgENtfQTHnHCuCe3tXutAHG/Evxa3g3w5b6ivWS7WDrjqjt/wCy15X/AML4k9B/38P+FdN+0d/yTzT/APsKx/8AoqWvmCgD0Txv8R7nxNEESQpjHRie/wBK89d2kbc7En1NNooAUEqcg4NWV1G8QbVuHA9Aaq1t+HdBk1y8WGMgHPc4oA0vCMmq3GvWbCSRk8wZ5r7E0bcNFs9/3vKXP5Vwfw+8BW2kWQNzGjSAcEYPOT7V6OEEUOxRgKuBQBx/xB1KGLw9MqzbZMN0/wB01wP7Pl1Nc33izzZWcKbXbnt/ra4H4pa7fLrktuJW8vA43H3rsf2Z2Lt4pY9T9k/9rUAe/V8gfG3/AJK9rv8A27/+k8dfX9fIHxt/5K9rv/bv/wCk8dAHAL94fWvqr4Q2du+jqzRKW55/Kvnbwt4Xn8R3Plw9Q2OuO2a+qvh/4fm0LTVil64PfPpQBa8Y6/N4f0/zbePOFJxnHpXzdq/iGfXPE6STJtOf72f4q+kvGWp2Gm2BkvkDJg/wg+nrXzN4j1zT5teFxaIFQHsoHegD6m8J/wDIvQfU14F8cP8AkLSf7zfzFekeAfiDZahaw2Cthge4x1P1rJ+I/gO58TXrTW5UgknhvU/SgD5mor0HXvhhfaJZtcSgbR/tZ/pXnx4NAH2/4E/5J54a/wCwVa/+ilo8d/8AJPPEv/YKuv8A0U1HgT/knnhr/sFWv/opaPHf/JPPEv8A2Crr/wBFNQB8QUUVc02xfUbxbdOpoAhhtZrg4iQsa1dL8OXt5fpA0BAbPpXt3w6+GX2WSO4vY1ZCR157n1FetReE9JgkEiW6AjvtX/CgDxex+CC3FiszZBI/uD/GuE8RfD6fS9eiso4yVZyM4A7fWvrlGgiTYroAO2RWfc6Tpl3cCeURFwcg/LQB4fpnwSW7sEmbIJUH7g9PrXBeNvAVx4fuhHDEWBOOgHbPrX15EbeGMIkiBR23CqN7oenak2+eNHI5zgGgD5g+DGmXdv8AFnRJZYSqL5+Tn/phJX1pWLY+HtKsL2O4to41mTO3AXPIIP6GtqgDwD9pkkHwsR1/0v8A9o14K13O6bGlYr6V7z+01/zK3/b3/wC0a8AoAKKKKAJIP+PiL/fH86+tfhRaW58ORP5S7tvX8TXzP4W8Oy69fIkZAw2eWx0Ir608CaM+i6LHbyEEhccHPc0Ach8TfHbaFE1oo4Yf3iO+K+ZNRu/tt68/96von4s+DZ9YJuUZQFHdsfxZrxXRPBlzrN+1rFgsv+1749KAOVr6f/Zx/wCSeah/2FZP/RUVeb/8KV1P0H/ff/1q9p+EXhefwn4TurC4+/JfPMOc8FIx/wCy0Ad/XxB47/5KH4l/7Ct1/wCjWr7fr4g8d/8AJQ/Ev/YVuv8A0a1AHP11HgWyuJfE9jKkZKB+T+Brl6+lfgjpFhcaAtxMqGUIpBIGe9AHp2ogjwqoPUQD/wBBr4y8RkjXJyOvFfbep2v2jTHgTuuB+VfOGvfCLUZby4ugBtxn7/8A9agDydNRvIwFS4cAdga9X8N/GKbRtKW1ZtxBzkuR/SvL9V0mfTb6S2eNiUYjgE1nkEHBBB96APonQ/jUdQ1SC2kICuwBO8n+lbPjb4jWmlRwuFSUugbkkd/pXzBBPJbyrLGcMpyDVm91S6vwonkLBRgZJNAH3lRRRQAUUUUAFFFFABRRRQAUUUUAFFFFABRRRQAUUUUAFFFFAHwBRU1vazXT7Yl3GvW/BHwqOuWCy3KlWIB6KfX1oAxvhJ/yHk/H+Yr6r1OMy6VcRqMs0ZArzfw98M7Pwvdi6ZyMf7K/0+legrrmnOQgmznjGKAPlj4geE9Si1ee6aFxGWY52eprzsjBIPavtvXvD1n4hsSgjX5h1Cj1rzV/gXbM7NuPJz91aAPBfDsl5HqKGzDGTcMbRmvp74bXGtSog1JZAm3jcoHGBWXo3wlstBvFupDlVOeVWpPGfj+28K26JZBMqAOMjvjtQB6zRXgHh74z3GqeJtK09lGLq8hgPzN/E4X+te/0AeP/ALR3/JPNP/7Csf8A6Klr5gr6f/aO/wCSeaf/ANhWP/0VLXzBQAUUUUAFdJ4Rl1GLUFNgrF8/wrnuK674e/DyLxRbCRye3YdwfWvXfDXwqtdAuvPI3YB6qtAHReBJtSl07OpK4k2/xLjvWzrWuWeiwF7uRUBH8TYrzDx18Sm8KagLaCNVG7HBI7A9q8q8Y/E268S2yxBimBj5Wb1z3oAy/iJqUGpa9JLAwZSByDn1r039mX/maf8At0/9rV4E8jyNudix9699/Zl/5mn/ALdP/a1AH0BXyN8Y7WS8+MutxRAlmNuAAP8AphHX1zXnWtfDWDVvG9zr78tM0ZIwP4UVf/ZaAOB+DvhXUdMu/PuIXVHO4ErjjbXvs86Wtv5khAVRzmorGwgsrWKKOJVKKBkCqPiZXbRZxHndsbGPoaAPJPi94r06/wBLe1gmRpFVgQHz6V87Ocux966nxHperz63dZV2TdxlvaqOneGb+5vEjeHAPvQBN4Sl1GLUQdPDmTI+6ue9fUfgCbVprFDqSuGwPvLjtXN+AvhjBpixX0igsT0Kr2NesJFDbR/KioB6CgDj/iNpc+p6FJFboWY9gM9jXzO3w217cf8ARZf+/Zr66n1fTQTHNID7EV5l478f2Og3BS2hiYZPYjsPSgD0bwfbSWXgnQbWUESQ6dbxuCMYIjUH+VQ+O/8AknniX/sFXX/opqu+G73+0vC+kX2APtNlDNgdtyA/1ql47/5J54l/7BV1/wCimoA+IK6LwT/yMcP4fzFdB8O/BMfim5EbkjkDoPQnvXr2j/Bm30y/S5DHK/7K+tAHp+i4Gkwn2P8AOue8V+NbDR7SWMzIswPA3DPWuqtbcW9osI7CvMfH/wAP31VJbxJXBz0GO5oA8j1L4s6st84hlbZ2wF/wqp/wtrWv+er/AJL/AIVzWpeGtQt710EJIHfNY9xazWrbZV2mgDvR8WtayP3r/kv+FeneD/ijFLoty1/cKJhEdu5gOc183VKlzNGpVJWUHsDQB9AeC/iDea18WNP0zzC1tM0+emMCJ2H8q96r5B+CjM3xf0MsST/pHX/rhJX19QB8/wD7TX/Mrf8Ab3/7RrwCvf8A9pr/AJlb/t7/APaNeAUAFFFaWk6TcaldJHGmVNAG14Km1OLUEOnq5bPO1c9xX1j4PkvpNKQ3wYSbedwx3NcT8PfhxBpMEd5IgLEdCo9jXZeJNfg0bT5Db48xVOFGRQB5j8X/ABbe6VIbeFiFI7Af3sVgfBe4a61h5X+8R/7MKwfE9zqXi/WQkkGEyRndnvnvXsnw78AJoMKXPO4+w9QaAPTaKjmnjt03yNgUy1u4byNpIH3KrbSff/JoAnr4g8d/8lD8S/8AYVuv/RrV9v18QeO/+Sh+Jf8AsK3X/o1qAOfr0T4ceML7TtVtNOiZhE7bSMDsDXndXtIvzpmpw3a9YzmgD7qs3MllA56tGpP5VJLGssTRsOGGDXzbB8crmG3ji2j5FC/ebtVq1+OVxLdRxsBhmAPzNQB6lqPwz0nUbp7iSNC7Ek8n/GvCfF3wy1KLWnFjbSGHHG1CR1NfR/hjxFBrWmwyh8yMoJHPpWzJZ20mWeBGPqRQB8Mavo11o1x5N0jI+cYYYrOr1X44RRxeJyI0VR5h4A/2RXlVAH3/AEUUUAFFFFABRRRQAUUUUAFFFFABRRRQAUUUUAFFFFABRRRQB8n/AAl0tbnW0W5gfbkdV/2hXtXiDxvp3g25NqqbcEjoO3/663tI8D6Zo03m20KKw9Af8a8I+OH/ACHpP95v6UAbHi/4uR6nYNFasVY47D39DXluleJ9TbVrYNcfKZBnrXM0+GRoZlkX7ynIoA+1fBN6LjQIGeVS5Re/tXT18p+BPiNdWNykNzOwhHHLcdPpX0hoHiWy12FTbSK3y84NAGX8RLiS28PSvE2GCH+lfIes6ndXt7Os8m4CQ/zr63+Jf/Itzf8AXM/0r49v/wDkIXH/AF0b+dAGx4E/5KH4a/7Ctr/6NWvt+viDwJ/yUPw1/wBhW1/9GrX2/QB4/wDtHf8AJPNP/wCwrH/6Klr5gr6f/aO/5J5p/wD2FY//AEVLXzBQAVs+H9AuNbv1tkjbkjnB7nFZMQ3TID3YCvqv4beDtOj0qG/ESeaSecHPB+tAFv4aeEpfDdgolwOF7n0PrXSeJvE9toNm8ryKeOgI961dTc22lysnBUDFfJ3j3xfqF5qc1pJK5jBPBI9TQBS+IfiWLxJqfnx9N2e3oBXF0UUAFe//ALMv/M0/9un/ALWrwCvf/wBmX/maf+3T/wBrUAfQFFFcprPj3SdF1WbT7meNZodu4EnPKhh29DQB1dMlRJEKyY2n1rif+FpaF/z8xf8AfR/wqhrHxS0j+z5PIuY/M2nGGPp9KAOsk0PRHkLOI9x6/MKRNE0SNgy+UCP9oV8xan8U9Y/tGbybiTy93y4Yf4VDb/EzX7iYRpcSlj7j/CgD66he3VQkUiEDsGFV9YcppczL1AH868m+H9z4mu7xJr0zmAkfexjrXrWpxNNpkkajLECgD5F8Y+I9Sg1+VEnIUZ9fU1yV5qV1fNmeTca9J8VfDjWr3W5ZoreUqc9FHqfesT/hVuvf8+0v/fI/xoA+pvAn/JPPDX/YKtf/AEUtL46Bb4feJQASTpV0AB/1yapvCNrJY+C9CtJQRJBp9vE4PYrGoP8AKtK+tY76wubOUAxzxNEwPcMCD/OgD5++BcUkd+u+Nl+YdRj+E19CNcQocNKgPuwrC0Xwlp+hNvtYkUj0Brw34hePtW0rW5IYJpFUehHqfagD2jxT4ztfDtuZWkVsA9CD/WuQsvjBYancrakEh/Zf8a+fda8Y6jrkRjupXYHPUiqPh25S01mGaQgKM5zQB9lW+haXqFsJ/IGWHtXk/wARfhgbuWW8tVCohJ6n29q9D8G+LtO1Gxit4ZULjsD9BXS63A1zo9zEgyzLgfnQB8NahZtY3bwN1UkfrVWu98b+D9RstRmuZYnCFickepNcFQB6B8Ev+SvaF/28f+k8lfX9fIHwS/5K9oX/AG8f+k8lfX9AHz/+01/zK3/b3/7RrwCvf/2mv+ZW/wC3v/2jXgFABXv3wR0u1u4d80e4gr/I14DX0V8CP+PY/Vf/AEE0Ae4CFY4GjjGBtIFebX/hK9ufEguZpB9m3gkEnpiu61jXbTRYvMuXVR7mvPfFXxS07+yJfsVynm7Tja3OfyoA7a20PRoUQ/ut4HJ3CqXibxfZ+GLYHepHoCD2zXzZP8U9b+0SbbiXbuOPmH+FYeteMdR1yPZdSuw9yPT6UAet+LPi/DqWlPDbMVcrgHA9fY11vwD1GfU/BGoz3D7mGqyKD7eXEf618qV9P/s4/wDJPNQ/7Csn/oqKgD2CviDx3/yUPxL/ANhW6/8ARrV9v18peLvhxrV74z168it5DHPqFxKpCjkNIxHf3oA8toq7qemT6VdG3nUq47GqVABSqxVgw6ikp0aGWRUXqxwKAPYfgpqt3NriwPJlA2AP+AmvpofcH0r51+DXha/s9SS9kjcRMdwJHHKmvoscIB7UAfLPx0/5Gg/9dD/6CK8nr1j46f8AI0H/AK6H/wBBFeT0Aff9FFFABRRRQAUUUUAFFFFABRRRQAUUUUAFFFFABRRRQAUUUUAZ9rrVjePshl3GuI8efD6HXlmuzneMkdO5HtXk3wk1u4l1tBczjbkdeP4hX0s17ZupVriMg/7VAHxlrPg/ULTUHiihyoJx+dZ//CMap/zwr7OksdFlcs7REn/bpo03QycAxk/79AHyp4T8E31/qKxzRsi5PIPtX0z4Q8Ir4cgUB2bK9yD1xW7b6TYRHfDGPqDVi5u4bWB3kkVdqk8mgDkviX/yLc3/AFzP9K+Pb/8A5CFx/wBdG/nXv3xG+JVvNBNp6HJwVyCPavn24k825lk/vMTQBueBP+Sh+Gv+wra/+jVr7fr4g8Cf8lD8Nf8AYVtf/Rq19v0AeP8A7R3/ACTzT/8AsKx/+ipa+ePDemrqmsQWzdHcCvof9o7/AJJ7p/8A2FY//RUteGeAraZvElqwiYr5g5x9aAParH4KWclrbzZOWVW6r/hXqWmWcHh7S1hZsIueau6aMaXa54/dL/KuP+JuoLb+GZPKnQSYfjP+zQByHxH+JS6cZLa1cMDkd+xHoa+ddTvm1C9e4bqxP86dqV7PdXUhlfdzVGgAooooAK9//Zl/5mn/ALdP/a1eAV7/APsy/wDM0/8Abp/7WoA+gK+RPjVcTJ8XNcVJXVR5GAG/6YR19d18gfG3/kr2u/8Abv8A+k8dAHC/a7j/AJ7yf99GnJLdTNsWWQk9txqvWz4XjWTW4FYZBdf5igBqeHNTlUOISQe9WbPQNVtblZfs+cfWvrbQtG0saDaPLGoynJLe9Xf7N0P1i/77oA8x+HPiHUZZ47Oe1RFBHIU9zXrVzq9lafLcSBT6VDb2+kWz7oniU/79eC/GTWZodTcWtwuMt057igD3M69obHJaMn3UUn9u6F6xf98ivjL/AISDUv8Anv8ApR/wkGpf89/0oA+54JI5beOSLHlugZcehHFUPEl82l+FtX1BfvWtlNOPqqFv6VV8EyNN4B8OSucu+l2zMfcxLTPHf/JPPEv/AGCrr/0U1AHFfDfx7P4ouRHLjBIHf0PrVX4h/Dq3u4JtROd34e59K8i+HXjWPwvdB3B6juPQ+tfREWr2/i/w8VSVAz9iR6e31oA+PdQgFteyRDotVwSDkHBr3S++CVzdXjzKy4b/AGWqv/woq6/vD/vlqAOC8GeINQ0u8Rrcs/PQk+tfUXgnWLvWNO8y8QBio459/WuH8F/Cj+xbtZLgBgD6MO/vXr0FrBZx4jXav1oA81+L8MS6MxEag4XkD618pN94/Wvqv4vXMLaOyrKhOBwD9a+VG+8frQB3/wAEv+SvaF/28f8ApPJX1/XyB8Ev+SvaF/28f+k8lfX9AHz/APtNf8yt/wBvf/tGvAK9/wD2mv8AmVv+3v8A9o14BQAV23hDx7P4XTbFjt6+ntXE0UAeheKPiZeeIbbymYr06bh/WuCa5ncYaVyPdjUVFABRRRQAV9P/ALOP/JPNQ/7Csn/oqKvmCvp/9nH/AJJ5qH/YVk/9FRUAewV5jpGvXd7401SwmtI/Jiu541baeQGIBr06vFtU+Kmm6P4m1K1EREsF3LEx3LyQ5B/lQAz4l/DeO4tZNRgT94V6DHYH2r51vLGexlMc6bWr7U0HXLPxNpayMykMSNu4Zrzrx38J/wC3tW+0WoCruJ6MfT0oA+Z6ltnMdzG4GSGBFe0f8KKuv7w/75apbX4G3MV1G7EYVgT8rUAdB8JfEF7c+TayW6LGoADAH0r2z+H8K5/wv4cg0XTYYgmJFUAn8Ks+JdZXQtJe8boMj9CaAPnD46f8jQf+uh/9BFeT12XxD8UJ4o1c3SA43E9R6D0rjaAPv+iiigAooooAKKKKACiiigAooooAKKKKACiiigAooooAKKKKAPhHS9ZutJmEts7Kw7g4rof+Fl69/wA/U3/fyuNooA7L/hZevf8AP1N/38qxZfEzWxewmS5l2bhn94elcLRQB9UeHvixpq6XGLqZTJtGc7j2+lcP8RPie9ySumzkKcA7WI7H2rxISyAYEjj/AIEaRnZvvMT9TQBPe301/OZpmLMTnJOarUUUAdB4E/5KH4a/7Ctr/wCjVr7fr4g8Cf8AJQ/DX/YVtf8A0atfb9AHkP7ReP8AhAdNz0/teLP/AH6lri/AGreGtOs45bpYfPUA5KHOcmuy/aO/5J5p/wD2FY//AEVLXzGJZFGA7D6GgD63/wCFraJHb7ElQbVwOG9PpXgvjbx7e6teywxzubcjgbjjpXBedL/z1f8A76NNJJOSSfrQAMxZix6mkoooAKKKKACvf/2Zf+Zp/wC3T/2tXgFe/wD7Mv8AzNP/AG6f+1qAPoCvkD42/wDJXtd/7d//AEnjr6/r5A+Nv/JXtd/7d/8A0njoA8/rU8P3SWmrQzOcKrA/qKy6ASOhoA9/8Q/E6KLwtbwWE22ZYyPlJHf6V5m3xL17ccXU3X/noa44yORguxHoTTaAOy/4WXr3/P1N/wB/KwdW1681mQvdSM5P95s1l0UAFFFFAH2/4E/5J54a/wCwVa/+ilo8d/8AJPPEv/YKuv8A0U1HgT/knnhr/sFWv/opaPHf/JPPEv8A2Crr/wBFNQB8QV3HhDx1f6TeRxmdxAO2447Vw9AJByDigD61sfizpAs0Ekqb++d3+FWf+Fs6J/z1T8m/wr5E86X/AJ6P/wB9Gjzpf+er/wDfRoA+0dF8d6brUuy3dSfbNVPF/jqy0S2ngaQLNjA6+1fK/h7xTdaDN5kbsT75Pf60niXxRc+ILozSuQSSeMj+tAGl4r8a3+r3ciGZ2iJOBu9zXG0Ek9TRQB6B8Ev+SvaF/wBvH/pPJX1/XyB8Ev8Akr2hf9vH/pPJX1/QB8//ALTX/Mrf9vf/ALRrwCvf/wBpr/mVv+3v/wBo14BQAUUUUAFFFFABRRRQAV9P/s4/8k81D/sKyf8AoqKvmCvp/wDZx/5J5qH/AGFZP/RUVAHsFfEHjrj4h+JT/wBRW6/9GtX2/XxB47/5KH4l/wCwrdf+jWoA6b4f+PLrSNSjinnYWwI4LHHUZr3cfFnRcD96n5N/hXyGCVOQSD7U7zpf+er/APfRoA+u/wDhbOif89U/Jv8ACj/hbOif89U/Jv8ACvkTzpf+er/99Gjzpf8Anq//AH0aAPrv/hbOif8APVPyb/CuV+IHxG0rV/DUlrBIpck9Af7p9q+bvOl/56v/AN9GgyyMMGRiPc0AMooooA+/6KKKACiiigAooooAKKKKACiiigAooooAKKKKACiiigAooooA+AKK+3/+EE8H/wDQqaH/AOC6H/4mj/hBPB//AEKmh/8Aguh/+JoA+IKK+3/+EE8H/wDQqaH/AOC6H/4mj/hBPB//AEKmh/8Aguh/+JoA+IKK+3/+EE8H/wDQqaH/AOC6H/4mj/hBPB//AEKmh/8Aguh/+JoA+IKK+3/+EE8H/wDQqaH/AOC6H/4mj/hBPB//AEKmh/8Aguh/+JoA+QPAn/JQ/DX/AGFbX/0atfb9YcHgvwra3EVxb+GtGhnicPHJHYRKyMDkEELkEHnNblAHj/7R3/JPNP8A+wrH/wCipa+YK+89S0nTdZt1t9U0+0voFcOsd1CsqhsEZAYEZwSM+5rL/wCEE8H/APQqaH/4Lof/AImgD4gor7f/AOEE8H/9Cpof/guh/wDiaP8AhBPB/wD0Kmh/+C6H/wCJoA+IKK+3/wDhBPB//QqaH/4Lof8A4mj/AIQTwf8A9Cpof/guh/8AiaAPiCivt/8A4QTwf/0Kmh/+C6H/AOJo/wCEE8H/APQqaH/4Lof/AImgD4gr3/8AZl/5mn/t0/8Aa1ewf8IJ4P8A+hU0P/wXQ/8AxNaGmaFo+ieb/ZOlWNh52PM+yW6Rb8ZxnaBnGT19TQBoV8gfG3/kr2u/9u//AKTx19f1j33hPw3qd5JeX/h/Sru6kxvmnso5HbAAGWIycAAfhQB8MUV9v/8ACCeD/wDoVND/APBdD/8AE0f8IJ4P/wChU0P/AMF0P/xNAHxBRX2//wAIJ4P/AOhU0P8A8F0P/wATR/wgng//AKFTQ/8AwXQ//E0AfEFFfb//AAgng/8A6FTQ/wDwXQ//ABNH/CCeD/8AoVND/wDBdD/8TQB8QUV9v/8ACCeD/wDoVND/APBdD/8AE0f8IJ4P/wChU0P/AMF0P/xNAB4E/wCSeeGv+wVa/wDopaPHf/JPPEv/AGCrr/0U1bkEENrbxW9vFHDBEgSOONQqooGAABwABxiieCG6t5be4ijmglQpJHIoZXUjBBB4II4xQB8CUV9v/wDCCeD/APoVND/8F0P/AMTR/wAIJ4P/AOhU0P8A8F0P/wATQB8QUV9v/wDCCeD/APoVND/8F0P/AMTR/wAIJ4P/AOhU0P8A8F0P/wATQB8QUV9v/wDCCeD/APoVND/8F0P/AMTR/wAIJ4P/AOhU0P8A8F0P/wATQB8QUV9v/wDCCeD/APoVND/8F0P/AMTR/wAIJ4P/AOhU0P8A8F0P/wATQB8wfBL/AJK9oX/bx/6TyV9f1j2PhPw3pl5HeWHh/SrS6jzsmgso43XIIOGAyMgkfjWxQB8//tNf8yt/29/+0a8Ar7v1PQtH1vyv7W0qxv8Ayc+X9rt0l2ZxnG4HGcDp6Cs//hBPB/8A0Kmh/wDguh/+JoA+IKK+3/8AhBPB/wD0Kmh/+C6H/wCJo/4QTwf/ANCpof8A4Lof/iaAPiCivt//AIQTwf8A9Cpof/guh/8AiaP+EE8H/wDQqaH/AOC6H/4mgD4gor7f/wCEE8H/APQqaH/4Lof/AImj/hBPB/8A0Kmh/wDguh/+JoA+IK+n/wBnH/knmof9hWT/ANFRV6B/wgng/wD6FTQ//BdD/wDE1qabpOm6Nbtb6Xp9pYwM5do7WFYlLYAyQoAzgAZ9hQBcr4g8d/8AJQ/Ev/YVuv8A0a1fb9Yc/gvwrdXEtxceGtGmnlcvJJJYRMzsTkkkrkknnNAHw5RX2/8A8IJ4P/6FTQ//AAXQ/wDxNH/CCeD/APoVND/8F0P/AMTQB8QUV9v/APCCeD/+hU0P/wAF0P8A8TR/wgng/wD6FTQ//BdD/wDE0AfEFFfb/wDwgng//oVND/8ABdD/APE0f8IJ4P8A+hU0P/wXQ/8AxNAHxBRX2/8A8IJ4P/6FTQ//AAXQ/wDxNH/CCeD/APoVND/8F0P/AMTQB0FFFFABRRRQAUUUUAFFFFABRRRQAUUUUAFFFFABRRRQAUUUUAFFFFABRRRQAUUUUAFFFFABRRRQAUUUUAFFFFABRRRQAUUUUAFFFFABRRRQAUUUUAFFFFABRRRQAUUUUAFFFFABRRRQAUUUUAFFFFABRRRQAUUUUAFFFFABRRRQAUUUUAFFFFABRRRQAUUUUAFFFFABRRRQAUUUUAFFFFABRRRQAUUUUAFFFFABRRRQAUUUUAFFFFABRRRQAUUUUAFFFFABRRRQAUUUUAFFFFABRRRQAUUUUAFFFFABRRRQAUUUUAFFFFABRRRQAUUUUAFFFFABRRRQAUUUUAFFFFABRRRQAUUUUAFFFFABRRRQAUUUUAFFFFABRRRQAUUUUAFFFFABRRRQAUUUUAFFFFABRRRQAUUUUAFFFFABRRRQAUUUUAFFFFABRRRQAUUUUAFFFFABRRRQAUUUUAFFFFABRRRQAUUUUAFFFFABRRRQAUUUUAFFFFABRRRQAUUUUAFFFFABRRRQAUUUUAFFFFABRRRQAUUUUAFFFFABRRRQAUUUUAFFFFABRRRQAUUUUAFFFFABRRRQAUUUUAFFFFABRRRQAUUUUAFFFFABRRRQAUUUUAFFFFABRRRQAUUUUAFFFFABRRRQAUUUUAFFFFABRRRQAUUUUAFFFFABRRRQAUUUUAFFFFABRRRQAUUUUAFFFFABRRRQAUUUUAFFFFABRRRQAUUUUAFFFFABRRRQAUUUUAFFFFABRRRQAUUUUAFFFFABRRRQAUUUUAFFFFABRRRQAUUUUAFFFFABRRRQAUUUUAFFFFABRRRQAUUUUAFFFFABRRRQAUUUUAFFFFABRRRQAUUUUAFFFFABRRRQAUUUUAFFFFABRRRQAUUUUAFFFFABRRRQAUUUUAFFFFABRRRQAUUUUAFFFFABRRRQAUUUUAFFFFABRRRQAUUUUAFFFFABRRRQAUUUUAFFFFABRRRQAUUUUAFFFFABRRRQAUUUUAFFFFABRRRQAUUUUAFFFFABRRRQAUUUUAFFFFABRRRQAUUUUAFFFFABRRRQAUUUUAFFFFABRRRQAUUUUAFFFFABRRRQAUUUUAFFFFABRRRQAUUUUAFFFFABRRRQAUUUUAFFFFABRRRQAUUUUAFFFFABRRRQAUUUUAFFFFABRRRQAUUUUAFFFFABRRRQAUUUUAFFFFABRRRQAUUUUAFFFFABRRRQAUUUUAFFFFABRRRQAUUUUAFFFFABRRRQAUUUUAFFFFABRRRQAUUUUAFFFFABRRRQAUUUUAFFFFABRRRQAUUUUAFFFFABRRRQAUUUUAFFFFABRRRQAUUUUAFFFFABRRRQAUUUUAFFFFABRRRQAUUUUAFFFFABRRRQAUUUUAFFFFABRRRQAUUUUAFFFFABRRRQAUUUUAFFFFABRRRQAUUUUAFFFFABRRRQAUUUUAFFFFABRRRQAUUUUAFFFFABRRRQAUUUUAFFFFABRRRQAUUUUAFFFFABRRRQAUUUUAFFFFABRRRQAUUUUAFFFFABRRRQAUUUUAFFFFABRRRQAUUUUAFFFFABRRRQAUUUUAFFFFABRRRQAUUUUAFFFFABRRRQAUUUUAFFFFABRRRQAUUUUAFFFFABRRRQAUUUUAFFFFABRRRQAUUUUAFFFFABRRRQAUUUUAFFFFABRRRQAUUUUAFFFFABRRRQAUUUUAFFFFABRRRQAUUUUAFFFFABRRRQAUUUUAFFFFABRRRQAUUUUAFFFFABRRRQAUUUUAFFFFABRRRQAUUUUAFFFFABRRRQAUUUUAFFFFABRRRQAUUUUAFFFFABRRRQAUUUUAFFFFABRRRQAUUUUAFFFFABRRRQAUUUUAFFFFABRRRQAUUUUAFFFFABRRRQAUUUUAFFFFABRRRQAUUUUAFFFFABRRRQAUUUUAFFFFABRRRQAUUUUAFFFFABRRRQAUUUUAFFFFABRRRQAUUUUAFFFFABRRRQAUUUUAFFFFABRRRQAUUUUAFFFFABRRRQAUUUUAFFFFABRRRQAUUUUAFFFFABRRRQAUUUUAFFFFABRRRQAUUUUAFFFFABRRRQAUUUUAFFFFABRRRQAUUUUAFFFFABRRRQAUUUUAFFFFABRRRQAUUUUAFFFFABRRRQB//Z;clipPath=inset(34.89% 10% 34.89% 12%);" vertex="1" parent="1">
          <mxGeometry x="60" y="300" width="300" height="60" as="geometry" />
        </mxCell>
      </root>
    </mxGraphModel>
  </diagram>
</mxfile>
